%TF.GenerationSoftware,KiCad,Pcbnew,8.0.1*%
%TF.CreationDate,2024-06-09T20:13:55+02:00*%
%TF.ProjectId,daqIONA_CTRL,64617149-4f4e-4415-9f43-54524c2e6b69,rev?*%
%TF.SameCoordinates,Original*%
%TF.FileFunction,Legend,Bot*%
%TF.FilePolarity,Positive*%
%FSLAX46Y46*%
G04 Gerber Fmt 4.6, Leading zero omitted, Abs format (unit mm)*
G04 Created by KiCad (PCBNEW 8.0.1) date 2024-06-09 20:13:55*
%MOMM*%
%LPD*%
G01*
G04 APERTURE LIST*
%ADD10C,0.150000*%
%ADD11C,0.127000*%
G04 APERTURE END LIST*
D10*
X145074523Y-89389819D02*
X145074523Y-90104104D01*
X145074523Y-90104104D02*
X145122142Y-90246961D01*
X145122142Y-90246961D02*
X145217380Y-90342200D01*
X145217380Y-90342200D02*
X145360237Y-90389819D01*
X145360237Y-90389819D02*
X145455475Y-90389819D01*
X144074523Y-90389819D02*
X144645951Y-90389819D01*
X144360237Y-90389819D02*
X144360237Y-89389819D01*
X144360237Y-89389819D02*
X144455475Y-89532676D01*
X144455475Y-89532676D02*
X144550713Y-89627914D01*
X144550713Y-89627914D02*
X144645951Y-89675533D01*
X143169761Y-89389819D02*
X143645951Y-89389819D01*
X143645951Y-89389819D02*
X143693570Y-89866009D01*
X143693570Y-89866009D02*
X143645951Y-89818390D01*
X143645951Y-89818390D02*
X143550713Y-89770771D01*
X143550713Y-89770771D02*
X143312618Y-89770771D01*
X143312618Y-89770771D02*
X143217380Y-89818390D01*
X143217380Y-89818390D02*
X143169761Y-89866009D01*
X143169761Y-89866009D02*
X143122142Y-89961247D01*
X143122142Y-89961247D02*
X143122142Y-90199342D01*
X143122142Y-90199342D02*
X143169761Y-90294580D01*
X143169761Y-90294580D02*
X143217380Y-90342200D01*
X143217380Y-90342200D02*
X143312618Y-90389819D01*
X143312618Y-90389819D02*
X143550713Y-90389819D01*
X143550713Y-90389819D02*
X143645951Y-90342200D01*
X143645951Y-90342200D02*
X143693570Y-90294580D01*
D11*
%TO.C,J15*%
X135910000Y-83510000D02*
X135910000Y-84770000D01*
X135910000Y-86530000D02*
X135910000Y-87310000D01*
X135910000Y-87310000D02*
X138640000Y-87310000D01*
X151610000Y-83510000D02*
X135910000Y-83510000D01*
X151610000Y-84820000D02*
X151610000Y-83510000D01*
X151610000Y-86530000D02*
X151610000Y-87310000D01*
X151610000Y-87310000D02*
X148840000Y-87310000D01*
X138560000Y-87760000D02*
G75*
G02*
X138360000Y-87760000I-100000J0D01*
G01*
X138360000Y-87760000D02*
G75*
G02*
X138560000Y-87760000I100000J0D01*
G01*
%TD*%
M02*
