%TF.GenerationSoftware,KiCad,Pcbnew,8.0.1*%
%TF.CreationDate,2024-06-09T20:13:55+02:00*%
%TF.ProjectId,daqIONA_CTRL,64617149-4f4e-4415-9f43-54524c2e6b69,rev?*%
%TF.SameCoordinates,Original*%
%TF.FileFunction,Copper,L4,Bot*%
%TF.FilePolarity,Positive*%
%FSLAX46Y46*%
G04 Gerber Fmt 4.6, Leading zero omitted, Abs format (unit mm)*
G04 Created by KiCad (PCBNEW 8.0.1) date 2024-06-09 20:13:55*
%MOMM*%
%LPD*%
G01*
G04 APERTURE LIST*
%TA.AperFunction,SMDPad,CuDef*%
%ADD10R,0.300000X1.000000*%
%TD*%
%TA.AperFunction,SMDPad,CuDef*%
%ADD11R,1.650000X1.300000*%
%TD*%
%TA.AperFunction,ComponentPad*%
%ADD12C,5.600000*%
%TD*%
%TA.AperFunction,ComponentPad*%
%ADD13C,1.000000*%
%TD*%
%TA.AperFunction,ComponentPad*%
%ADD14R,1.500000X1.500000*%
%TD*%
%TA.AperFunction,ComponentPad*%
%ADD15C,1.500000*%
%TD*%
%TA.AperFunction,ComponentPad*%
%ADD16C,1.600000*%
%TD*%
%TA.AperFunction,ComponentPad*%
%ADD17C,2.200000*%
%TD*%
%TA.AperFunction,ComponentPad*%
%ADD18O,1.500000X3.300000*%
%TD*%
%TA.AperFunction,ComponentPad*%
%ADD19O,1.500000X2.300000*%
%TD*%
%TA.AperFunction,ViaPad*%
%ADD20C,0.600000*%
%TD*%
%TA.AperFunction,ViaPad*%
%ADD21C,0.350000*%
%TD*%
%TA.AperFunction,Conductor*%
%ADD22C,0.200000*%
%TD*%
%TA.AperFunction,Conductor*%
%ADD23C,0.400000*%
%TD*%
G04 APERTURE END LIST*
D10*
%TO.P,J15,1,Pin_1*%
%TO.N,+5V*%
X139010000Y-87560000D03*
%TO.P,J15,2,Pin_2*%
X139510000Y-87560000D03*
%TO.P,J15,3,Pin_3*%
X140010000Y-87560000D03*
%TO.P,J15,4,Pin_4*%
X140510000Y-87560000D03*
%TO.P,J15,5,Pin_5*%
X141010000Y-87560000D03*
%TO.P,J15,6,Pin_6*%
X141510000Y-87560000D03*
%TO.P,J15,7,Pin_7*%
%TO.N,/(5) RPI SbC/RPI_3V3*%
X142010000Y-87560000D03*
%TO.P,J15,8,Pin_8*%
%TO.N,GND*%
X142510000Y-87560000D03*
%TO.P,J15,9,Pin_9*%
%TO.N,/(5) RPI SbC/SPI0_~{CS}*%
X143010000Y-87560000D03*
%TO.P,J15,10,Pin_10*%
%TO.N,GND*%
X143510000Y-87560000D03*
%TO.P,J15,11,Pin_11*%
%TO.N,/(5) RPI SbC/SPI0_MOSI*%
X144010000Y-87560000D03*
%TO.P,J15,12,Pin_12*%
%TO.N,GND*%
X144510000Y-87560000D03*
%TO.P,J15,13,Pin_13*%
%TO.N,/(5) RPI SbC/SPI0_SCLK*%
X145010000Y-87560000D03*
%TO.P,J15,14,Pin_14*%
%TO.N,GND*%
X145510000Y-87560000D03*
%TO.P,J15,15,Pin_15*%
%TO.N,/(5) RPI SbC/SPI0_MISO*%
X146010000Y-87560000D03*
%TO.P,J15,16,Pin_16*%
%TO.N,GND*%
X146510000Y-87560000D03*
%TO.P,J15,17,Pin_17*%
%TO.N,/(5) RPI SbC/Ext_AUX*%
X147010000Y-87560000D03*
%TO.P,J15,18,Pin_18*%
%TO.N,/(5) RPI SbC/Ext_RELAY*%
X147510000Y-87560000D03*
%TO.P,J15,19,Pin_19*%
%TO.N,GND*%
X148010000Y-87560000D03*
%TO.P,J15,20,Pin_20*%
X148510000Y-87560000D03*
D11*
%TO.P,J15,Z1*%
%TO.N,N/C*%
X136735000Y-85660000D03*
%TO.P,J15,Z2*%
X150785000Y-85660000D03*
%TD*%
D12*
%TO.P,H7,1,1*%
%TO.N,GND*%
X101240000Y-134910000D03*
%TD*%
D13*
%TO.P,TP20,1,1*%
%TO.N,/(5) RPI SbC/TR3_TAP*%
X101260000Y-115360000D03*
%TD*%
%TO.P,TP17,1,1*%
%TO.N,/(5) RPI SbC/TR1_TAP*%
X101260000Y-117760000D03*
%TD*%
%TO.P,TP18,1,1*%
%TO.N,/(5) RPI SbC/TR0_TAP*%
X103660000Y-115360000D03*
%TD*%
D14*
%TO.P,U18,1,TRD0+*%
%TO.N,/(5) RPI SbC/TRD0_P*%
X115305000Y-102850000D03*
D15*
%TO.P,U18,2,TRD0-*%
%TO.N,/(5) RPI SbC/TRD0_N*%
X114035000Y-100310000D03*
%TO.P,U18,3,TRD1+*%
%TO.N,/(5) RPI SbC/TRD1_P*%
X112765000Y-102850000D03*
%TO.P,U18,4,CT*%
%TO.N,Net-(C78-Pad1)*%
X111495000Y-100310000D03*
%TO.P,U18,5,CT*%
X110225000Y-102850000D03*
%TO.P,U18,6,TRD1-*%
%TO.N,/(5) RPI SbC/TRD1_N*%
X108955000Y-100310000D03*
%TO.P,U18,7,TRD2+*%
%TO.N,/(5) RPI SbC/TRD2_P*%
X107685000Y-102850000D03*
%TO.P,U18,8,TRD2-*%
%TO.N,/(5) RPI SbC/TRD2_N*%
X106415000Y-100310000D03*
%TO.P,U18,9,TRD3+*%
%TO.N,/(5) RPI SbC/TRD3_P*%
X105145000Y-102850000D03*
%TO.P,U18,10,TRD3-*%
%TO.N,/(5) RPI SbC/TRD3_N*%
X103875000Y-100310000D03*
D16*
%TO.P,U18,11,VC1*%
%TO.N,/(5) RPI SbC/TR0_TAP*%
X116220000Y-89880000D03*
%TO.P,U18,12,VC2*%
%TO.N,/(5) RPI SbC/TR1_TAP*%
X113680000Y-89880000D03*
%TO.P,U18,13,VC3*%
%TO.N,/(5) RPI SbC/TR2_TAP*%
X105500000Y-89880000D03*
%TO.P,U18,14,VC4*%
%TO.N,/(5) RPI SbC/TR3_TAP*%
X102960000Y-89880000D03*
D17*
%TO.P,U18,SH*%
%TO.N,N/C*%
X117335000Y-97010000D03*
X101845000Y-97010000D03*
%TD*%
D13*
%TO.P,TP19,1,1*%
%TO.N,/(5) RPI SbC/TR2_TAP*%
X103610000Y-117760000D03*
%TD*%
D12*
%TO.P,H6,1,1*%
%TO.N,GND*%
X186240000Y-86910000D03*
%TD*%
D18*
%TO.P,J12,SH,SH*%
%TO.N,GND*%
X164290000Y-91490000D03*
X178790000Y-91490000D03*
D19*
X164290000Y-85530000D03*
X178790000Y-85530000D03*
%TD*%
D12*
%TO.P,H8,1,1*%
%TO.N,GND*%
X186240000Y-134910000D03*
%TD*%
D20*
%TO.N,GND*%
X113100000Y-125200000D03*
X113100000Y-123700000D03*
X113100000Y-122200000D03*
X113100000Y-120700000D03*
X111600000Y-125200000D03*
X111600000Y-123700000D03*
X111600000Y-122200000D03*
X111600000Y-120700000D03*
X113100000Y-119200000D03*
X111600000Y-119200000D03*
X110100000Y-119200000D03*
%TO.N,+5V*%
X107270000Y-114680000D03*
X116770000Y-121460000D03*
X171470000Y-103710000D03*
X170700000Y-103710000D03*
%TO.N,GND*%
X175360000Y-105060000D03*
X126070000Y-112560000D03*
X160060000Y-118160000D03*
X158560000Y-113360000D03*
X125640000Y-106840000D03*
D21*
X143460000Y-88560000D03*
X169005000Y-94860000D03*
D20*
X160060000Y-119360000D03*
X158560000Y-103760000D03*
X160060000Y-107360000D03*
D21*
X170560000Y-94860000D03*
D20*
X126070000Y-121760000D03*
D21*
X108060000Y-108460000D03*
D20*
X124610000Y-116560000D03*
X124600000Y-103770000D03*
X124610000Y-104970000D03*
X126070000Y-104960000D03*
X124600000Y-108960000D03*
X158560000Y-104960000D03*
X158560000Y-120560000D03*
X126070000Y-110560000D03*
X105360000Y-109360000D03*
X160060000Y-108560000D03*
X160060000Y-110960000D03*
X158560000Y-121760000D03*
X160060000Y-115760000D03*
X160060000Y-120560000D03*
D21*
X167560000Y-94860000D03*
D20*
X160060000Y-116960000D03*
X126070000Y-116960000D03*
X126070000Y-102560000D03*
X158537181Y-109769819D03*
X160060000Y-112160000D03*
D21*
X101260000Y-110197500D03*
D20*
X158560000Y-114560000D03*
X158560000Y-108560000D03*
X124610000Y-115360000D03*
X158560000Y-115760000D03*
D21*
X172060000Y-94860000D03*
X174586219Y-95486219D03*
D20*
X114710000Y-121260000D03*
X124630000Y-110960000D03*
X126070000Y-114160000D03*
X160060000Y-109760000D03*
X160060000Y-114560000D03*
D21*
X148560000Y-88560000D03*
X142460000Y-88560000D03*
D20*
X126070000Y-115360000D03*
X126070000Y-103760000D03*
X158560000Y-107360000D03*
X175360000Y-109060000D03*
X158560000Y-118160000D03*
D21*
X146560000Y-88560000D03*
X113360000Y-108660000D03*
X144460000Y-88560000D03*
D20*
X158560000Y-119360000D03*
X160060000Y-121760000D03*
X160060000Y-104960000D03*
X158560000Y-106160000D03*
X175360000Y-107060000D03*
X160060000Y-106160000D03*
X124610002Y-102559999D03*
X160104876Y-103753046D03*
X124600000Y-106960000D03*
X158560000Y-116960000D03*
X175260000Y-99960000D03*
X126070000Y-108560000D03*
X110560000Y-109260000D03*
D21*
X145460000Y-88560000D03*
D20*
X160060000Y-113360000D03*
X124610000Y-114160000D03*
X124620000Y-112970000D03*
%TO.N,+5V*%
X123108768Y-119761648D03*
X123170000Y-118160000D03*
X124612827Y-117756196D03*
X123170000Y-118960000D03*
%TO.N,/(5) RPI SbC/RPI_3V3*%
X135210000Y-130460000D03*
X132010735Y-128359265D03*
X140390000Y-95230000D03*
X141670000Y-89450000D03*
X132545000Y-115985000D03*
X129550000Y-118950000D03*
X141650000Y-93260000D03*
%TO.N,Net-(U17A-ETHERNET_~{LED3})*%
X117840000Y-112310000D03*
X117745735Y-107095735D03*
%TO.N,Net-(U17A-EEPROM_~{WP})*%
X121700000Y-106830000D03*
X125260000Y-105880000D03*
%TO.N,/(5) RPI SbC/LED~{ACT}*%
X121785000Y-122985000D03*
X121759265Y-121160735D03*
%TO.N,/(5) RPI SbC/TRD0_N*%
X117224265Y-100510000D03*
%TO.N,/(5) RPI SbC/TRD1_N*%
X110540000Y-108150000D03*
X118599265Y-102949265D03*
%TO.N,/(5) RPI SbC/TRD1_P*%
X118715000Y-101985000D03*
X110890000Y-107290000D03*
%TO.N,/(5) RPI SbC/TRD3_N*%
X121548499Y-102147029D03*
%TO.N,/(5) RPI SbC/TRD2_N*%
X121716470Y-103163530D03*
%TO.N,/(5) RPI SbC/TRD2_P*%
X120830000Y-103190000D03*
%TO.N,/(5) RPI SbC/TRD3_P*%
X122410000Y-102160000D03*
D21*
%TO.N,/(5) RPI SbC/SPI0_MOSI*%
X139610000Y-90985000D03*
%TO.N,/(5) RPI SbC/Ext_AUX*%
X147006967Y-89101281D03*
D20*
%TO.N,/(5) RPI SbC/SPI0_~{CS}*%
X123010000Y-97560000D03*
X122540000Y-110040000D03*
D21*
X139710000Y-90260000D03*
%TO.N,/(5) RPI SbC/Ext_RELAY*%
X134110000Y-92660000D03*
%TO.N,/(5) RPI SbC/SPI0_SCLK*%
X138210000Y-91460000D03*
%TO.N,/(5) RPI SbC/SPI0_MISO*%
X138001866Y-91969101D03*
%TD*%
D22*
%TO.N,GND*%
X142510000Y-87560000D02*
X142510000Y-88510000D01*
X148510000Y-88510000D02*
X148560000Y-88560000D01*
X145510000Y-87560000D02*
X145510000Y-88510000D01*
X146510000Y-87560000D02*
X146510000Y-88510000D01*
X143510000Y-88510000D02*
X143460000Y-88560000D01*
X146510000Y-88510000D02*
X146560000Y-88560000D01*
X148010000Y-87560000D02*
X148510000Y-87560000D01*
X145510000Y-88510000D02*
X145460000Y-88560000D01*
X144510000Y-87560000D02*
X144510000Y-88510000D01*
X144510000Y-88510000D02*
X144460000Y-88560000D01*
X148510000Y-87560000D02*
X148510000Y-88510000D01*
X143510000Y-87560000D02*
X143510000Y-88510000D01*
X142510000Y-88510000D02*
X142460000Y-88560000D01*
%TO.N,+5V*%
X141510000Y-87560000D02*
X139010000Y-87560000D01*
%TO.N,/(5) RPI SbC/RPI_3V3*%
X132010735Y-128359265D02*
X134111470Y-130460000D01*
X141670000Y-88678248D02*
X142010000Y-88338248D01*
X142010000Y-88338248D02*
X142010000Y-87560000D01*
X141985000Y-87585000D02*
X142010000Y-87560000D01*
D23*
X141670000Y-89450000D02*
X141670000Y-88678248D01*
D22*
X134111470Y-130460000D02*
X135210000Y-130460000D01*
D23*
X141650000Y-93970000D02*
X140390000Y-95230000D01*
X141670000Y-89450000D02*
X141640000Y-89410000D01*
X129590000Y-118950000D02*
X129550000Y-118950000D01*
D22*
X132545000Y-115985000D02*
X132545000Y-115995000D01*
D23*
X132545000Y-115995000D02*
X129590000Y-118950000D01*
X141650000Y-93260000D02*
X141650000Y-93970000D01*
D22*
%TO.N,Net-(U17A-ETHERNET_~{LED3})*%
X117745735Y-107095735D02*
X117840000Y-107190000D01*
X117840000Y-107190000D02*
X117840000Y-112310000D01*
%TO.N,Net-(U17A-EEPROM_~{WP})*%
X121700000Y-106830000D02*
X122170000Y-106360000D01*
X122170000Y-106360000D02*
X124780000Y-106360000D01*
X124780000Y-106360000D02*
X125260000Y-105880000D01*
%TO.N,/(5) RPI SbC/LED~{ACT}*%
X121785000Y-122985000D02*
X121759265Y-122959265D01*
X121759265Y-122959265D02*
X121759265Y-121160735D01*
%TO.N,/(5) RPI SbC/TRD0_N*%
X117224265Y-100510000D02*
X117024265Y-100310000D01*
X117024265Y-100310000D02*
X114035000Y-100310000D01*
%TO.N,/(5) RPI SbC/TRD1_N*%
X114095686Y-108150000D02*
X110540000Y-108150000D01*
X118599265Y-102949265D02*
X118599265Y-103646421D01*
X118599265Y-103646421D02*
X114095686Y-108150000D01*
%TO.N,/(5) RPI SbC/TRD1_P*%
X117999265Y-102700736D02*
X117999265Y-103680735D01*
X114390000Y-107290000D02*
X110890000Y-107290000D01*
X118715000Y-101985000D02*
X117999265Y-102700736D01*
X117999265Y-103680735D02*
X114390000Y-107290000D01*
%TO.N,/(5) RPI SbC/TRD3_N*%
X118441470Y-99040000D02*
X116294314Y-99040000D01*
X114874314Y-97620000D02*
X105340000Y-97620000D01*
X103875000Y-99085000D02*
X103875000Y-100310000D01*
X105340000Y-97620000D02*
X103875000Y-99085000D01*
X121548499Y-102147029D02*
X118441470Y-99040000D01*
X116294314Y-99040000D02*
X114874314Y-97620000D01*
%TO.N,/(5) RPI SbC/TRD2_N*%
X107530000Y-98020000D02*
X106415000Y-99135000D01*
X106415000Y-99135000D02*
X106415000Y-100310000D01*
X114708629Y-98020000D02*
X107530000Y-98020000D01*
X121713530Y-103163530D02*
X117990000Y-99440000D01*
X121716470Y-103163530D02*
X121713530Y-103163530D01*
X116128629Y-99440000D02*
X114708629Y-98020000D01*
X117990000Y-99440000D02*
X116128629Y-99440000D01*
%TO.N,/(5) RPI SbC/TRD2_P*%
X108480000Y-98420000D02*
X114542943Y-98420000D01*
X117480000Y-99840000D02*
X120830000Y-103190000D01*
X114542943Y-98420000D02*
X115962943Y-99840000D01*
X115962943Y-99840000D02*
X117480000Y-99840000D01*
X107685000Y-102850000D02*
X107685000Y-99215000D01*
X107685000Y-99215000D02*
X108480000Y-98420000D01*
%TO.N,/(5) RPI SbC/TRD3_P*%
X101380000Y-101730000D02*
X102500000Y-102850000D01*
X122410000Y-102160000D02*
X118889999Y-98640000D01*
X115040000Y-97220000D02*
X103690000Y-97220000D01*
X118889999Y-98640000D02*
X116460000Y-98640000D01*
X116460000Y-98640000D02*
X115040000Y-97220000D01*
X103690000Y-97220000D02*
X101380000Y-99530000D01*
X102500000Y-102850000D02*
X105145000Y-102850000D01*
X101380000Y-99530000D02*
X101380000Y-101730000D01*
%TO.N,/(5) RPI SbC/SPI0_MOSI*%
X139610000Y-90985000D02*
X141999215Y-90985000D01*
X143935000Y-89049215D02*
X143935000Y-88335000D01*
X143935000Y-88335000D02*
X144010000Y-88260000D01*
X144010000Y-87560000D02*
X143985000Y-87585000D01*
X144010000Y-88260000D02*
X144010000Y-87560000D01*
X141999215Y-90985000D02*
X143935000Y-89049215D01*
%TO.N,/(5) RPI SbC/Ext_AUX*%
X147006967Y-89101281D02*
X147035000Y-89073248D01*
X147035000Y-87585000D02*
X147010000Y-87560000D01*
X147035000Y-89073248D02*
X147035000Y-87585000D01*
%TO.N,/(5) RPI SbC/SPI0_~{CS}*%
X143010000Y-88288248D02*
X142935000Y-88363248D01*
X142158529Y-90260000D02*
X139710000Y-90260000D01*
X142935000Y-89483529D02*
X142158529Y-90260000D01*
X123010000Y-97560000D02*
X123010000Y-104671471D01*
X142935000Y-88363248D02*
X142935000Y-89483529D01*
X121100000Y-106581471D02*
X121100000Y-108600000D01*
X123010000Y-104671471D02*
X121100000Y-106581471D01*
X121100000Y-108600000D02*
X122540000Y-110040000D01*
X143010000Y-87560000D02*
X143010000Y-88288248D01*
%TO.N,/(5) RPI SbC/Ext_RELAY*%
X145210000Y-92660000D02*
X147510000Y-90360000D01*
X134110000Y-92660000D02*
X145210000Y-92660000D01*
X147510000Y-90360000D02*
X147510000Y-87560000D01*
%TO.N,/(5) RPI SbC/SPI0_SCLK*%
X144935000Y-88335000D02*
X145010000Y-88260000D01*
X145010000Y-88260000D02*
X145010000Y-87560000D01*
X142310000Y-91460000D02*
X144935000Y-88835000D01*
X138210000Y-91460000D02*
X142310000Y-91460000D01*
X144935000Y-88835000D02*
X144935000Y-88335000D01*
%TO.N,/(5) RPI SbC/SPI0_MISO*%
X142731752Y-91960000D02*
X146010000Y-88681752D01*
X138010967Y-91960000D02*
X142731752Y-91960000D01*
X138001866Y-91969101D02*
X138010967Y-91960000D01*
X146010000Y-88681752D02*
X146010000Y-87560000D01*
%TD*%
%TA.AperFunction,Conductor*%
%TO.N,+5V*%
G36*
X190682539Y-82430185D02*
G01*
X190728294Y-82482989D01*
X190739500Y-82534500D01*
X190739500Y-139285500D01*
X190719815Y-139352539D01*
X190667011Y-139398294D01*
X190615500Y-139409500D01*
X96864500Y-139409500D01*
X96797461Y-139389815D01*
X96751706Y-139337011D01*
X96740500Y-139285500D01*
X96740500Y-134910002D01*
X97934652Y-134910002D01*
X97954028Y-135267368D01*
X97954029Y-135267385D01*
X98011926Y-135620539D01*
X98011932Y-135620565D01*
X98107672Y-135965392D01*
X98107674Y-135965399D01*
X98240142Y-136297870D01*
X98240151Y-136297888D01*
X98407784Y-136614077D01*
X98407787Y-136614082D01*
X98407789Y-136614085D01*
X98582753Y-136872138D01*
X98608631Y-136910305D01*
X98608641Y-136910319D01*
X98840331Y-137183085D01*
X98840332Y-137183086D01*
X99100163Y-137429211D01*
X99385081Y-137645800D01*
X99691747Y-137830315D01*
X99691749Y-137830316D01*
X99691751Y-137830317D01*
X99691755Y-137830319D01*
X100016552Y-137980585D01*
X100016565Y-137980591D01*
X100355726Y-138094868D01*
X100705254Y-138171805D01*
X101061052Y-138210500D01*
X101061058Y-138210500D01*
X101418942Y-138210500D01*
X101418948Y-138210500D01*
X101774746Y-138171805D01*
X102124274Y-138094868D01*
X102463435Y-137980591D01*
X102788253Y-137830315D01*
X103094919Y-137645800D01*
X103379837Y-137429211D01*
X103639668Y-137183086D01*
X103871365Y-136910311D01*
X104072211Y-136614085D01*
X104239853Y-136297880D01*
X104372324Y-135965403D01*
X104468071Y-135620552D01*
X104525972Y-135267371D01*
X104545348Y-134910000D01*
X104525972Y-134552629D01*
X104496321Y-134371768D01*
X104468073Y-134199460D01*
X104468072Y-134199459D01*
X104468071Y-134199448D01*
X104421390Y-134031318D01*
X122809500Y-134031318D01*
X122847858Y-134371768D01*
X122847861Y-134371782D01*
X122924102Y-134705816D01*
X122924103Y-134705818D01*
X123037264Y-135029216D01*
X123185922Y-135337907D01*
X123185924Y-135337910D01*
X123368211Y-135628018D01*
X123581834Y-135895893D01*
X123824107Y-136138166D01*
X124091982Y-136351789D01*
X124382090Y-136534076D01*
X124690785Y-136682736D01*
X125014183Y-136795897D01*
X125348217Y-136872139D01*
X125348226Y-136872140D01*
X125348231Y-136872141D01*
X125575197Y-136897713D01*
X125688682Y-136910499D01*
X125688685Y-136910500D01*
X125688688Y-136910500D01*
X126031315Y-136910500D01*
X126031316Y-136910499D01*
X126205311Y-136890895D01*
X126371768Y-136872141D01*
X126371771Y-136872140D01*
X126371783Y-136872139D01*
X126705817Y-136795897D01*
X127029215Y-136682736D01*
X127337910Y-136534076D01*
X127628018Y-136351789D01*
X127895893Y-136138166D01*
X128138166Y-135895893D01*
X128351789Y-135628018D01*
X128534076Y-135337910D01*
X128682736Y-135029215D01*
X128795897Y-134705817D01*
X128872139Y-134371783D01*
X128910499Y-134031318D01*
X155809500Y-134031318D01*
X155847858Y-134371768D01*
X155847861Y-134371782D01*
X155924102Y-134705816D01*
X155924103Y-134705818D01*
X156037264Y-135029216D01*
X156185922Y-135337907D01*
X156185924Y-135337910D01*
X156368211Y-135628018D01*
X156581834Y-135895893D01*
X156824107Y-136138166D01*
X157091982Y-136351789D01*
X157382090Y-136534076D01*
X157690785Y-136682736D01*
X158014183Y-136795897D01*
X158348217Y-136872139D01*
X158348226Y-136872140D01*
X158348231Y-136872141D01*
X158575197Y-136897713D01*
X158688682Y-136910499D01*
X158688685Y-136910500D01*
X158688688Y-136910500D01*
X159031315Y-136910500D01*
X159031316Y-136910499D01*
X159205311Y-136890895D01*
X159371768Y-136872141D01*
X159371771Y-136872140D01*
X159371783Y-136872139D01*
X159705817Y-136795897D01*
X160029215Y-136682736D01*
X160337910Y-136534076D01*
X160628018Y-136351789D01*
X160895893Y-136138166D01*
X161138166Y-135895893D01*
X161351789Y-135628018D01*
X161534076Y-135337910D01*
X161682736Y-135029215D01*
X161724450Y-134910002D01*
X182934652Y-134910002D01*
X182954028Y-135267368D01*
X182954029Y-135267385D01*
X183011926Y-135620539D01*
X183011932Y-135620565D01*
X183107672Y-135965392D01*
X183107674Y-135965399D01*
X183240142Y-136297870D01*
X183240151Y-136297888D01*
X183407784Y-136614077D01*
X183407787Y-136614082D01*
X183407789Y-136614085D01*
X183582753Y-136872138D01*
X183608631Y-136910305D01*
X183608641Y-136910319D01*
X183840331Y-137183085D01*
X183840332Y-137183086D01*
X184100163Y-137429211D01*
X184385081Y-137645800D01*
X184691747Y-137830315D01*
X184691749Y-137830316D01*
X184691751Y-137830317D01*
X184691755Y-137830319D01*
X185016552Y-137980585D01*
X185016565Y-137980591D01*
X185355726Y-138094868D01*
X185705254Y-138171805D01*
X186061052Y-138210500D01*
X186061058Y-138210500D01*
X186418942Y-138210500D01*
X186418948Y-138210500D01*
X186774746Y-138171805D01*
X187124274Y-138094868D01*
X187463435Y-137980591D01*
X187788253Y-137830315D01*
X188094919Y-137645800D01*
X188379837Y-137429211D01*
X188639668Y-137183086D01*
X188871365Y-136910311D01*
X189072211Y-136614085D01*
X189239853Y-136297880D01*
X189372324Y-135965403D01*
X189468071Y-135620552D01*
X189525972Y-135267371D01*
X189545348Y-134910000D01*
X189525972Y-134552629D01*
X189496321Y-134371768D01*
X189468073Y-134199460D01*
X189468072Y-134199459D01*
X189468071Y-134199448D01*
X189421389Y-134031314D01*
X189372327Y-133854607D01*
X189372325Y-133854600D01*
X189239857Y-133522129D01*
X189239848Y-133522111D01*
X189072215Y-133205922D01*
X189072213Y-133205919D01*
X189072211Y-133205915D01*
X188871365Y-132909689D01*
X188871361Y-132909684D01*
X188871358Y-132909680D01*
X188639668Y-132636914D01*
X188379837Y-132390789D01*
X188379830Y-132390783D01*
X188379827Y-132390781D01*
X188312245Y-132339407D01*
X188094919Y-132174200D01*
X187788253Y-131989685D01*
X187788252Y-131989684D01*
X187788248Y-131989682D01*
X187788244Y-131989680D01*
X187463447Y-131839414D01*
X187463441Y-131839411D01*
X187463435Y-131839409D01*
X187293854Y-131782270D01*
X187124273Y-131725131D01*
X186774744Y-131648194D01*
X186418949Y-131609500D01*
X186418948Y-131609500D01*
X186061052Y-131609500D01*
X186061050Y-131609500D01*
X185705255Y-131648194D01*
X185355726Y-131725131D01*
X185099970Y-131811306D01*
X185016565Y-131839409D01*
X185016563Y-131839410D01*
X185016552Y-131839414D01*
X184691755Y-131989680D01*
X184691751Y-131989682D01*
X184463367Y-132127096D01*
X184385081Y-132174200D01*
X184296768Y-132241333D01*
X184100172Y-132390781D01*
X184100163Y-132390789D01*
X183840331Y-132636914D01*
X183608641Y-132909680D01*
X183608634Y-132909690D01*
X183407790Y-133205913D01*
X183407784Y-133205922D01*
X183240151Y-133522111D01*
X183240142Y-133522129D01*
X183107674Y-133854600D01*
X183107672Y-133854607D01*
X183011932Y-134199434D01*
X183011926Y-134199460D01*
X182954029Y-134552614D01*
X182954028Y-134552631D01*
X182934652Y-134909997D01*
X182934652Y-134910002D01*
X161724450Y-134910002D01*
X161795897Y-134705817D01*
X161872139Y-134371783D01*
X161910500Y-134031312D01*
X161910500Y-133688688D01*
X161872139Y-133348217D01*
X161795897Y-133014183D01*
X161682736Y-132690785D01*
X161534076Y-132382090D01*
X161351789Y-132091982D01*
X161138166Y-131824107D01*
X160895893Y-131581834D01*
X160628018Y-131368211D01*
X160337910Y-131185924D01*
X160337907Y-131185922D01*
X160029216Y-131037264D01*
X159705818Y-130924103D01*
X159705816Y-130924102D01*
X159448024Y-130865262D01*
X159371783Y-130847861D01*
X159371780Y-130847860D01*
X159371768Y-130847858D01*
X159031318Y-130809500D01*
X159031312Y-130809500D01*
X158688688Y-130809500D01*
X158688681Y-130809500D01*
X158348231Y-130847858D01*
X158348217Y-130847861D01*
X158014183Y-130924102D01*
X158014181Y-130924103D01*
X157690783Y-131037264D01*
X157382092Y-131185922D01*
X157091983Y-131368210D01*
X156824107Y-131581833D01*
X156581833Y-131824107D01*
X156368210Y-132091983D01*
X156185922Y-132382092D01*
X156037264Y-132690783D01*
X155924103Y-133014181D01*
X155924102Y-133014183D01*
X155847861Y-133348217D01*
X155847858Y-133348231D01*
X155809500Y-133688681D01*
X155809500Y-134031318D01*
X128910499Y-134031318D01*
X128910500Y-134031312D01*
X128910500Y-133688688D01*
X128872139Y-133348217D01*
X128795897Y-133014183D01*
X128682736Y-132690785D01*
X128534076Y-132382090D01*
X128351789Y-132091982D01*
X128138166Y-131824107D01*
X127895893Y-131581834D01*
X127628018Y-131368211D01*
X127337910Y-131185924D01*
X127337907Y-131185922D01*
X127029216Y-131037264D01*
X126705818Y-130924103D01*
X126705816Y-130924102D01*
X126448024Y-130865262D01*
X126371783Y-130847861D01*
X126371780Y-130847860D01*
X126371768Y-130847858D01*
X126031318Y-130809500D01*
X126031312Y-130809500D01*
X125688688Y-130809500D01*
X125688681Y-130809500D01*
X125348231Y-130847858D01*
X125348217Y-130847861D01*
X125014183Y-130924102D01*
X125014181Y-130924103D01*
X124690783Y-131037264D01*
X124382092Y-131185922D01*
X124091983Y-131368210D01*
X123824107Y-131581833D01*
X123581833Y-131824107D01*
X123368210Y-132091983D01*
X123185922Y-132382092D01*
X123037264Y-132690783D01*
X122924103Y-133014181D01*
X122924102Y-133014183D01*
X122847861Y-133348217D01*
X122847858Y-133348231D01*
X122809500Y-133688681D01*
X122809500Y-134031318D01*
X104421390Y-134031318D01*
X104421389Y-134031314D01*
X104372327Y-133854607D01*
X104372325Y-133854600D01*
X104239857Y-133522129D01*
X104239848Y-133522111D01*
X104072215Y-133205922D01*
X104072213Y-133205919D01*
X104072211Y-133205915D01*
X103871365Y-132909689D01*
X103871361Y-132909684D01*
X103871358Y-132909680D01*
X103639668Y-132636914D01*
X103379837Y-132390789D01*
X103379830Y-132390783D01*
X103379827Y-132390781D01*
X103312245Y-132339407D01*
X103094919Y-132174200D01*
X102788253Y-131989685D01*
X102788252Y-131989684D01*
X102788248Y-131989682D01*
X102788244Y-131989680D01*
X102463447Y-131839414D01*
X102463441Y-131839411D01*
X102463435Y-131839409D01*
X102293854Y-131782270D01*
X102124273Y-131725131D01*
X101774744Y-131648194D01*
X101418949Y-131609500D01*
X101418948Y-131609500D01*
X101061052Y-131609500D01*
X101061050Y-131609500D01*
X100705255Y-131648194D01*
X100355726Y-131725131D01*
X100099970Y-131811306D01*
X100016565Y-131839409D01*
X100016563Y-131839410D01*
X100016552Y-131839414D01*
X99691755Y-131989680D01*
X99691751Y-131989682D01*
X99463367Y-132127096D01*
X99385081Y-132174200D01*
X99296768Y-132241333D01*
X99100172Y-132390781D01*
X99100163Y-132390789D01*
X98840331Y-132636914D01*
X98608641Y-132909680D01*
X98608634Y-132909690D01*
X98407790Y-133205913D01*
X98407784Y-133205922D01*
X98240151Y-133522111D01*
X98240142Y-133522129D01*
X98107674Y-133854600D01*
X98107672Y-133854607D01*
X98011932Y-134199434D01*
X98011926Y-134199460D01*
X97954029Y-134552614D01*
X97954028Y-134552631D01*
X97934652Y-134909997D01*
X97934652Y-134910002D01*
X96740500Y-134910002D01*
X96740500Y-128359268D01*
X131205170Y-128359268D01*
X131225365Y-128538514D01*
X131225366Y-128538519D01*
X131284946Y-128708788D01*
X131380919Y-128861527D01*
X131508473Y-128989081D01*
X131661213Y-129085054D01*
X131831480Y-129144633D01*
X131918404Y-129154426D01*
X131982815Y-129181491D01*
X131992200Y-129189965D01*
X133626609Y-130824374D01*
X133626619Y-130824385D01*
X133630949Y-130828715D01*
X133630950Y-130828716D01*
X133742754Y-130940520D01*
X133829565Y-130990639D01*
X133829567Y-130990641D01*
X133867621Y-131012611D01*
X133879685Y-131019577D01*
X134032413Y-131060501D01*
X134032416Y-131060501D01*
X134198123Y-131060501D01*
X134198139Y-131060500D01*
X134627588Y-131060500D01*
X134694627Y-131080185D01*
X134704903Y-131087555D01*
X134707736Y-131089814D01*
X134707738Y-131089816D01*
X134860478Y-131185789D01*
X135030745Y-131245368D01*
X135030750Y-131245369D01*
X135209996Y-131265565D01*
X135210000Y-131265565D01*
X135210004Y-131265565D01*
X135389249Y-131245369D01*
X135389252Y-131245368D01*
X135389255Y-131245368D01*
X135559522Y-131185789D01*
X135712262Y-131089816D01*
X135839816Y-130962262D01*
X135935789Y-130809522D01*
X135995368Y-130639255D01*
X136015565Y-130460000D01*
X135995368Y-130280745D01*
X135935789Y-130110478D01*
X135839816Y-129957738D01*
X135712262Y-129830184D01*
X135701117Y-129823181D01*
X135559523Y-129734211D01*
X135389254Y-129674631D01*
X135389249Y-129674630D01*
X135210004Y-129654435D01*
X135209996Y-129654435D01*
X135030750Y-129674630D01*
X135030745Y-129674631D01*
X134860476Y-129734211D01*
X134707736Y-129830185D01*
X134704903Y-129832445D01*
X134702724Y-129833334D01*
X134701842Y-129833889D01*
X134701744Y-129833734D01*
X134640217Y-129858855D01*
X134627588Y-129859500D01*
X134411567Y-129859500D01*
X134344528Y-129839815D01*
X134323886Y-129823181D01*
X132841435Y-128340730D01*
X132807950Y-128279407D01*
X132805898Y-128266951D01*
X132796103Y-128180010D01*
X132736524Y-128009743D01*
X132640551Y-127857003D01*
X132512997Y-127729449D01*
X132360258Y-127633476D01*
X132189989Y-127573896D01*
X132189984Y-127573895D01*
X132010739Y-127553700D01*
X132010731Y-127553700D01*
X131831485Y-127573895D01*
X131831480Y-127573896D01*
X131661211Y-127633476D01*
X131508472Y-127729449D01*
X131380919Y-127857002D01*
X131284946Y-128009741D01*
X131225366Y-128180010D01*
X131225365Y-128180015D01*
X131205170Y-128359261D01*
X131205170Y-128359268D01*
X96740500Y-128359268D01*
X96740500Y-119200003D01*
X109294435Y-119200003D01*
X109314630Y-119379249D01*
X109314631Y-119379254D01*
X109374211Y-119549523D01*
X109453549Y-119675788D01*
X109470184Y-119702262D01*
X109597738Y-119829816D01*
X109750478Y-119925789D01*
X109888860Y-119974211D01*
X109920745Y-119985368D01*
X109920750Y-119985369D01*
X110099996Y-120005565D01*
X110100000Y-120005565D01*
X110100004Y-120005565D01*
X110279249Y-119985369D01*
X110279252Y-119985368D01*
X110279255Y-119985368D01*
X110449522Y-119925789D01*
X110602262Y-119829816D01*
X110729816Y-119702262D01*
X110745007Y-119678084D01*
X110797339Y-119631796D01*
X110866393Y-119621146D01*
X110930242Y-119649521D01*
X110954990Y-119678082D01*
X110970184Y-119702262D01*
X111097738Y-119829816D01*
X111121911Y-119845005D01*
X111121913Y-119845006D01*
X111168204Y-119897341D01*
X111178852Y-119966395D01*
X111150477Y-120030243D01*
X111121913Y-120054994D01*
X111097737Y-120070184D01*
X110970184Y-120197737D01*
X110874211Y-120350476D01*
X110814631Y-120520745D01*
X110814630Y-120520750D01*
X110794435Y-120699996D01*
X110794435Y-120700003D01*
X110814630Y-120879249D01*
X110814631Y-120879254D01*
X110874211Y-121049523D01*
X110943629Y-121160000D01*
X110970184Y-121202262D01*
X111097738Y-121329816D01*
X111113930Y-121339990D01*
X111121913Y-121345006D01*
X111168204Y-121397341D01*
X111178852Y-121466395D01*
X111150477Y-121530243D01*
X111121913Y-121554994D01*
X111097737Y-121570184D01*
X110970184Y-121697737D01*
X110874211Y-121850476D01*
X110814631Y-122020745D01*
X110814630Y-122020750D01*
X110794435Y-122199996D01*
X110794435Y-122200003D01*
X110814630Y-122379249D01*
X110814631Y-122379254D01*
X110874211Y-122549523D01*
X110954994Y-122678087D01*
X110970184Y-122702262D01*
X111097738Y-122829816D01*
X111121911Y-122845005D01*
X111121913Y-122845006D01*
X111168204Y-122897341D01*
X111178852Y-122966395D01*
X111150477Y-123030243D01*
X111121913Y-123054994D01*
X111097737Y-123070184D01*
X110970184Y-123197737D01*
X110874211Y-123350476D01*
X110814631Y-123520745D01*
X110814630Y-123520750D01*
X110794435Y-123699996D01*
X110794435Y-123700003D01*
X110814630Y-123879249D01*
X110814631Y-123879254D01*
X110874211Y-124049523D01*
X110954994Y-124178087D01*
X110970184Y-124202262D01*
X111097738Y-124329816D01*
X111121911Y-124345005D01*
X111121913Y-124345006D01*
X111168204Y-124397341D01*
X111178852Y-124466395D01*
X111150477Y-124530243D01*
X111121913Y-124554994D01*
X111097737Y-124570184D01*
X110970184Y-124697737D01*
X110874211Y-124850476D01*
X110814631Y-125020745D01*
X110814630Y-125020750D01*
X110794435Y-125199996D01*
X110794435Y-125200003D01*
X110814630Y-125379249D01*
X110814631Y-125379254D01*
X110874211Y-125549523D01*
X110954994Y-125678087D01*
X110970184Y-125702262D01*
X111097738Y-125829816D01*
X111250478Y-125925789D01*
X111420745Y-125985368D01*
X111420750Y-125985369D01*
X111599996Y-126005565D01*
X111600000Y-126005565D01*
X111600004Y-126005565D01*
X111779249Y-125985369D01*
X111779252Y-125985368D01*
X111779255Y-125985368D01*
X111949522Y-125925789D01*
X112102262Y-125829816D01*
X112229816Y-125702262D01*
X112245007Y-125678084D01*
X112297339Y-125631796D01*
X112366393Y-125621146D01*
X112430242Y-125649521D01*
X112454990Y-125678082D01*
X112470184Y-125702262D01*
X112597738Y-125829816D01*
X112750478Y-125925789D01*
X112920745Y-125985368D01*
X112920750Y-125985369D01*
X113099996Y-126005565D01*
X113100000Y-126005565D01*
X113100004Y-126005565D01*
X113279249Y-125985369D01*
X113279252Y-125985368D01*
X113279255Y-125985368D01*
X113449522Y-125925789D01*
X113602262Y-125829816D01*
X113729816Y-125702262D01*
X113825789Y-125549522D01*
X113885368Y-125379255D01*
X113905565Y-125200000D01*
X113885368Y-125020745D01*
X113825789Y-124850478D01*
X113729816Y-124697738D01*
X113602262Y-124570184D01*
X113578084Y-124554992D01*
X113531796Y-124502661D01*
X113521146Y-124433607D01*
X113549521Y-124369758D01*
X113578082Y-124345009D01*
X113602262Y-124329816D01*
X113729816Y-124202262D01*
X113825789Y-124049522D01*
X113885368Y-123879255D01*
X113895361Y-123790565D01*
X113905565Y-123700003D01*
X113905565Y-123699996D01*
X113885369Y-123520750D01*
X113885368Y-123520745D01*
X113825788Y-123350476D01*
X113729815Y-123197737D01*
X113602264Y-123070186D01*
X113602262Y-123070184D01*
X113578084Y-123054992D01*
X113531796Y-123002661D01*
X113521146Y-122933607D01*
X113549521Y-122869758D01*
X113578082Y-122845009D01*
X113602262Y-122829816D01*
X113729816Y-122702262D01*
X113825789Y-122549522D01*
X113885368Y-122379255D01*
X113901274Y-122238087D01*
X113905565Y-122200003D01*
X113905565Y-122199996D01*
X113885369Y-122020750D01*
X113885368Y-122020745D01*
X113839554Y-121889816D01*
X113825789Y-121850478D01*
X113729816Y-121697738D01*
X113602262Y-121570184D01*
X113578084Y-121554992D01*
X113531796Y-121502661D01*
X113521146Y-121433607D01*
X113549521Y-121369758D01*
X113578082Y-121345009D01*
X113602262Y-121329816D01*
X113698836Y-121233241D01*
X113760155Y-121199759D01*
X113829847Y-121204743D01*
X113885781Y-121246614D01*
X113909734Y-121307041D01*
X113924630Y-121439250D01*
X113924631Y-121439254D01*
X113984211Y-121609523D01*
X114036232Y-121692313D01*
X114080184Y-121762262D01*
X114207738Y-121889816D01*
X114360478Y-121985789D01*
X114460377Y-122020745D01*
X114530745Y-122045368D01*
X114530750Y-122045369D01*
X114709996Y-122065565D01*
X114710000Y-122065565D01*
X114710004Y-122065565D01*
X114889249Y-122045369D01*
X114889252Y-122045368D01*
X114889255Y-122045368D01*
X115059522Y-121985789D01*
X115212262Y-121889816D01*
X115339816Y-121762262D01*
X115435789Y-121609522D01*
X115495368Y-121439255D01*
X115495369Y-121439249D01*
X115515565Y-121260003D01*
X115515565Y-121259996D01*
X115504381Y-121160738D01*
X120953700Y-121160738D01*
X120973895Y-121339984D01*
X120973896Y-121339989D01*
X121033476Y-121510258D01*
X121129450Y-121662998D01*
X121131710Y-121665832D01*
X121132599Y-121668010D01*
X121133154Y-121668893D01*
X121132999Y-121668990D01*
X121158120Y-121730518D01*
X121158765Y-121743147D01*
X121158765Y-122441315D01*
X121139759Y-122507287D01*
X121059211Y-122635476D01*
X120999631Y-122805745D01*
X120999630Y-122805750D01*
X120979435Y-122984996D01*
X120979435Y-122985003D01*
X120999630Y-123164249D01*
X120999631Y-123164254D01*
X121059211Y-123334523D01*
X121112712Y-123419669D01*
X121155184Y-123487262D01*
X121282738Y-123614816D01*
X121435478Y-123710789D01*
X121605745Y-123770368D01*
X121605750Y-123770369D01*
X121784996Y-123790565D01*
X121785000Y-123790565D01*
X121785004Y-123790565D01*
X121964249Y-123770369D01*
X121964252Y-123770368D01*
X121964255Y-123770368D01*
X122134522Y-123710789D01*
X122287262Y-123614816D01*
X122414816Y-123487262D01*
X122510789Y-123334522D01*
X122570368Y-123164255D01*
X122582679Y-123054994D01*
X122590565Y-122985003D01*
X122590565Y-122984996D01*
X122570369Y-122805750D01*
X122570368Y-122805745D01*
X122534158Y-122702262D01*
X122510789Y-122635478D01*
X122508475Y-122631796D01*
X122414815Y-122482737D01*
X122396084Y-122464006D01*
X122362599Y-122402683D01*
X122359765Y-122376325D01*
X122359765Y-121760003D01*
X125264435Y-121760003D01*
X125284630Y-121939249D01*
X125284631Y-121939254D01*
X125344211Y-122109523D01*
X125424994Y-122238087D01*
X125440184Y-122262262D01*
X125567738Y-122389816D01*
X125588216Y-122402683D01*
X125715620Y-122482737D01*
X125720478Y-122485789D01*
X125781916Y-122507287D01*
X125890745Y-122545368D01*
X125890750Y-122545369D01*
X126069996Y-122565565D01*
X126070000Y-122565565D01*
X126070004Y-122565565D01*
X126249249Y-122545369D01*
X126249252Y-122545368D01*
X126249255Y-122545368D01*
X126419522Y-122485789D01*
X126572262Y-122389816D01*
X126699816Y-122262262D01*
X126795789Y-122109522D01*
X126855368Y-121939255D01*
X126857575Y-121919669D01*
X126875565Y-121760003D01*
X126875565Y-121759996D01*
X126855369Y-121580750D01*
X126855368Y-121580745D01*
X126846357Y-121554994D01*
X126795789Y-121410478D01*
X126787534Y-121397341D01*
X126701237Y-121260000D01*
X126699816Y-121257738D01*
X126572262Y-121130184D01*
X126550748Y-121116666D01*
X126419523Y-121034211D01*
X126249254Y-120974631D01*
X126249249Y-120974630D01*
X126070004Y-120954435D01*
X126069996Y-120954435D01*
X125890750Y-120974630D01*
X125890745Y-120974631D01*
X125720476Y-121034211D01*
X125567737Y-121130184D01*
X125440184Y-121257737D01*
X125344211Y-121410476D01*
X125284631Y-121580745D01*
X125284630Y-121580750D01*
X125264435Y-121759996D01*
X125264435Y-121760003D01*
X122359765Y-121760003D01*
X122359765Y-121743147D01*
X122379450Y-121676108D01*
X122386820Y-121665832D01*
X122389075Y-121663002D01*
X122389081Y-121662997D01*
X122485054Y-121510257D01*
X122544633Y-121339990D01*
X122544634Y-121339984D01*
X122564830Y-121160738D01*
X122564830Y-121160731D01*
X122544634Y-120981485D01*
X122544633Y-120981480D01*
X122542236Y-120974630D01*
X122485054Y-120811213D01*
X122389081Y-120658473D01*
X122261527Y-120530919D01*
X122171947Y-120474632D01*
X122108788Y-120434946D01*
X121938519Y-120375366D01*
X121938514Y-120375365D01*
X121759269Y-120355170D01*
X121759261Y-120355170D01*
X121580015Y-120375365D01*
X121580010Y-120375366D01*
X121409741Y-120434946D01*
X121257002Y-120530919D01*
X121129449Y-120658472D01*
X121033476Y-120811211D01*
X120973896Y-120981480D01*
X120973895Y-120981485D01*
X120953700Y-121160731D01*
X120953700Y-121160738D01*
X115504381Y-121160738D01*
X115495369Y-121080750D01*
X115495368Y-121080745D01*
X115492420Y-121072319D01*
X115435789Y-120910478D01*
X115435188Y-120909522D01*
X115391712Y-120840330D01*
X115339816Y-120757738D01*
X115212262Y-120630184D01*
X115100570Y-120560003D01*
X115059523Y-120534211D01*
X114889254Y-120474631D01*
X114889249Y-120474630D01*
X114710004Y-120454435D01*
X114709996Y-120454435D01*
X114530750Y-120474630D01*
X114530745Y-120474631D01*
X114360476Y-120534211D01*
X114207739Y-120630183D01*
X114111166Y-120726756D01*
X114049842Y-120760240D01*
X113980151Y-120755256D01*
X113924218Y-120713384D01*
X113900265Y-120652957D01*
X113885369Y-120520750D01*
X113885368Y-120520745D01*
X113862165Y-120454435D01*
X113825789Y-120350478D01*
X113729816Y-120197738D01*
X113602262Y-120070184D01*
X113578084Y-120054992D01*
X113531796Y-120002661D01*
X113521146Y-119933607D01*
X113549521Y-119869758D01*
X113578082Y-119845009D01*
X113602262Y-119829816D01*
X113729816Y-119702262D01*
X113825789Y-119549522D01*
X113885368Y-119379255D01*
X113887537Y-119360003D01*
X113905565Y-119200003D01*
X113905565Y-119199996D01*
X113885369Y-119020750D01*
X113885368Y-119020745D01*
X113860614Y-118950003D01*
X128744435Y-118950003D01*
X128764630Y-119129249D01*
X128764631Y-119129254D01*
X128824211Y-119299523D01*
X128920184Y-119452262D01*
X129047738Y-119579816D01*
X129200478Y-119675789D01*
X129370745Y-119735368D01*
X129370750Y-119735369D01*
X129549996Y-119755565D01*
X129550000Y-119755565D01*
X129550004Y-119755565D01*
X129729249Y-119735369D01*
X129729252Y-119735368D01*
X129729255Y-119735368D01*
X129899522Y-119675789D01*
X130052262Y-119579816D01*
X130179816Y-119452262D01*
X130275789Y-119299522D01*
X130290477Y-119257542D01*
X130319835Y-119210820D01*
X132759672Y-116770983D01*
X132806396Y-116741625D01*
X132894522Y-116710789D01*
X133047262Y-116614816D01*
X133174816Y-116487262D01*
X133270789Y-116334522D01*
X133330368Y-116164255D01*
X133330369Y-116164249D01*
X133350565Y-115985003D01*
X133350565Y-115984996D01*
X133330369Y-115805750D01*
X133330368Y-115805745D01*
X133270788Y-115635476D01*
X133231582Y-115573080D01*
X133174816Y-115482738D01*
X133047262Y-115355184D01*
X132894523Y-115259211D01*
X132724254Y-115199631D01*
X132724249Y-115199630D01*
X132545004Y-115179435D01*
X132544996Y-115179435D01*
X132365750Y-115199630D01*
X132365745Y-115199631D01*
X132195476Y-115259211D01*
X132042737Y-115355184D01*
X131915184Y-115482737D01*
X131819212Y-115635475D01*
X131819211Y-115635476D01*
X131777609Y-115754367D01*
X131748249Y-115801092D01*
X129412239Y-118137102D01*
X129365512Y-118166463D01*
X129200478Y-118224210D01*
X129047737Y-118320184D01*
X128920184Y-118447737D01*
X128824211Y-118600476D01*
X128764631Y-118770745D01*
X128764630Y-118770750D01*
X128744435Y-118949996D01*
X128744435Y-118950003D01*
X113860614Y-118950003D01*
X113825788Y-118850476D01*
X113780783Y-118778852D01*
X113729816Y-118697738D01*
X113602262Y-118570184D01*
X113505721Y-118509523D01*
X113449523Y-118474211D01*
X113279254Y-118414631D01*
X113279249Y-118414630D01*
X113100004Y-118394435D01*
X113099996Y-118394435D01*
X112920750Y-118414630D01*
X112920745Y-118414631D01*
X112750476Y-118474211D01*
X112597737Y-118570184D01*
X112470184Y-118697737D01*
X112454994Y-118721913D01*
X112402659Y-118768204D01*
X112333605Y-118778852D01*
X112269757Y-118750477D01*
X112245006Y-118721913D01*
X112229815Y-118697737D01*
X112102262Y-118570184D01*
X111949523Y-118474211D01*
X111779254Y-118414631D01*
X111779249Y-118414630D01*
X111600004Y-118394435D01*
X111599996Y-118394435D01*
X111420750Y-118414630D01*
X111420745Y-118414631D01*
X111250476Y-118474211D01*
X111097737Y-118570184D01*
X110970184Y-118697737D01*
X110954994Y-118721913D01*
X110902659Y-118768204D01*
X110833605Y-118778852D01*
X110769757Y-118750477D01*
X110745006Y-118721913D01*
X110729815Y-118697737D01*
X110602262Y-118570184D01*
X110449523Y-118474211D01*
X110279254Y-118414631D01*
X110279249Y-118414630D01*
X110100004Y-118394435D01*
X110099996Y-118394435D01*
X109920750Y-118414630D01*
X109920745Y-118414631D01*
X109750476Y-118474211D01*
X109597737Y-118570184D01*
X109470184Y-118697737D01*
X109374211Y-118850476D01*
X109314631Y-119020745D01*
X109314630Y-119020750D01*
X109294435Y-119199996D01*
X109294435Y-119200003D01*
X96740500Y-119200003D01*
X96740500Y-117760000D01*
X100254659Y-117760000D01*
X100273975Y-117956129D01*
X100331188Y-118144733D01*
X100424086Y-118318532D01*
X100424090Y-118318539D01*
X100549116Y-118470883D01*
X100701460Y-118595909D01*
X100701467Y-118595913D01*
X100875266Y-118688811D01*
X100875269Y-118688811D01*
X100875273Y-118688814D01*
X101063868Y-118746024D01*
X101260000Y-118765341D01*
X101456132Y-118746024D01*
X101644727Y-118688814D01*
X101818538Y-118595910D01*
X101970883Y-118470883D01*
X102095910Y-118318538D01*
X102180649Y-118160003D01*
X102188811Y-118144733D01*
X102188811Y-118144732D01*
X102188814Y-118144727D01*
X102246024Y-117956132D01*
X102265341Y-117760000D01*
X102604659Y-117760000D01*
X102623975Y-117956129D01*
X102681188Y-118144733D01*
X102774086Y-118318532D01*
X102774090Y-118318539D01*
X102899116Y-118470883D01*
X103051460Y-118595909D01*
X103051467Y-118595913D01*
X103225266Y-118688811D01*
X103225269Y-118688811D01*
X103225273Y-118688814D01*
X103413868Y-118746024D01*
X103610000Y-118765341D01*
X103806132Y-118746024D01*
X103994727Y-118688814D01*
X104168538Y-118595910D01*
X104320883Y-118470883D01*
X104445910Y-118318538D01*
X104530649Y-118160003D01*
X104538811Y-118144733D01*
X104538811Y-118144732D01*
X104538814Y-118144727D01*
X104596024Y-117956132D01*
X104615341Y-117760000D01*
X104596024Y-117563868D01*
X104538814Y-117375273D01*
X104538811Y-117375269D01*
X104538811Y-117375266D01*
X104445913Y-117201467D01*
X104445909Y-117201460D01*
X104320883Y-117049116D01*
X104168539Y-116924090D01*
X104168532Y-116924086D01*
X103994733Y-116831188D01*
X103994727Y-116831186D01*
X103806132Y-116773976D01*
X103806129Y-116773975D01*
X103610000Y-116754659D01*
X103413870Y-116773975D01*
X103225266Y-116831188D01*
X103051467Y-116924086D01*
X103051460Y-116924090D01*
X102899116Y-117049116D01*
X102774090Y-117201460D01*
X102774086Y-117201467D01*
X102681188Y-117375266D01*
X102623975Y-117563870D01*
X102604659Y-117760000D01*
X102265341Y-117760000D01*
X102246024Y-117563868D01*
X102188814Y-117375273D01*
X102188811Y-117375269D01*
X102188811Y-117375266D01*
X102095913Y-117201467D01*
X102095909Y-117201460D01*
X101970883Y-117049116D01*
X101818539Y-116924090D01*
X101818532Y-116924086D01*
X101644733Y-116831188D01*
X101644727Y-116831186D01*
X101456132Y-116773976D01*
X101456129Y-116773975D01*
X101260000Y-116754659D01*
X101063870Y-116773975D01*
X100875266Y-116831188D01*
X100701467Y-116924086D01*
X100701460Y-116924090D01*
X100549116Y-117049116D01*
X100424090Y-117201460D01*
X100424086Y-117201467D01*
X100331188Y-117375266D01*
X100273975Y-117563870D01*
X100254659Y-117760000D01*
X96740500Y-117760000D01*
X96740500Y-116560003D01*
X123804435Y-116560003D01*
X123824630Y-116739249D01*
X123824631Y-116739254D01*
X123884211Y-116909523D01*
X123915926Y-116959996D01*
X123980184Y-117062262D01*
X124107738Y-117189816D01*
X124260478Y-117285789D01*
X124328306Y-117309523D01*
X124430745Y-117345368D01*
X124430750Y-117345369D01*
X124609996Y-117365565D01*
X124610000Y-117365565D01*
X124610004Y-117365565D01*
X124789249Y-117345369D01*
X124789252Y-117345368D01*
X124789255Y-117345368D01*
X124959522Y-117285789D01*
X125112262Y-117189816D01*
X125113508Y-117188569D01*
X125114511Y-117188021D01*
X125117705Y-117185475D01*
X125118150Y-117186034D01*
X125174826Y-117155081D01*
X125244518Y-117160060D01*
X125300455Y-117201927D01*
X125318235Y-117235290D01*
X125344209Y-117309519D01*
X125366735Y-117345369D01*
X125440184Y-117462262D01*
X125567738Y-117589816D01*
X125589252Y-117603334D01*
X125675833Y-117657737D01*
X125720478Y-117685789D01*
X125890745Y-117745368D01*
X125890750Y-117745369D01*
X126069996Y-117765565D01*
X126070000Y-117765565D01*
X126070004Y-117765565D01*
X126249249Y-117745369D01*
X126249252Y-117745368D01*
X126249255Y-117745368D01*
X126419522Y-117685789D01*
X126572262Y-117589816D01*
X126699816Y-117462262D01*
X126795789Y-117309522D01*
X126855368Y-117139255D01*
X126865524Y-117049116D01*
X126875565Y-116960003D01*
X126875565Y-116959996D01*
X126855369Y-116780750D01*
X126855368Y-116780745D01*
X126797307Y-116614816D01*
X126795789Y-116610478D01*
X126699816Y-116457738D01*
X126572262Y-116330184D01*
X126468510Y-116264992D01*
X126422221Y-116212659D01*
X126411573Y-116143606D01*
X126439948Y-116079757D01*
X126468509Y-116055007D01*
X126572262Y-115989816D01*
X126699816Y-115862262D01*
X126795789Y-115709522D01*
X126855368Y-115539255D01*
X126875565Y-115360000D01*
X126875022Y-115355184D01*
X126855369Y-115180750D01*
X126855368Y-115180745D01*
X126795788Y-115010476D01*
X126699815Y-114857737D01*
X126689759Y-114847681D01*
X126656274Y-114786358D01*
X126661258Y-114716666D01*
X126689759Y-114672319D01*
X126699816Y-114662262D01*
X126795789Y-114509522D01*
X126855368Y-114339255D01*
X126875565Y-114160000D01*
X126857913Y-114003334D01*
X126855369Y-113980750D01*
X126855368Y-113980745D01*
X126795788Y-113810476D01*
X126727589Y-113701939D01*
X126699816Y-113657738D01*
X126572262Y-113530184D01*
X126468510Y-113464992D01*
X126422221Y-113412659D01*
X126411573Y-113343606D01*
X126439948Y-113279757D01*
X126468509Y-113255007D01*
X126572262Y-113189816D01*
X126699816Y-113062262D01*
X126795789Y-112909522D01*
X126855368Y-112739255D01*
X126855369Y-112739249D01*
X126875565Y-112560003D01*
X126875565Y-112559996D01*
X126855369Y-112380750D01*
X126855368Y-112380745D01*
X126830612Y-112309996D01*
X126795789Y-112210478D01*
X126699816Y-112057738D01*
X126572262Y-111930184D01*
X126419523Y-111834211D01*
X126249254Y-111774631D01*
X126249249Y-111774630D01*
X126070004Y-111754435D01*
X126069996Y-111754435D01*
X125890750Y-111774630D01*
X125890745Y-111774631D01*
X125720476Y-111834211D01*
X125567737Y-111930184D01*
X125440184Y-112057737D01*
X125344209Y-112210480D01*
X125318023Y-112285315D01*
X125277301Y-112342091D01*
X125212349Y-112367838D01*
X125143787Y-112354382D01*
X125123663Y-112341302D01*
X125122264Y-112340186D01*
X125122262Y-112340184D01*
X125074229Y-112310003D01*
X124969523Y-112244211D01*
X124799254Y-112184631D01*
X124799249Y-112184630D01*
X124620004Y-112164435D01*
X124619996Y-112164435D01*
X124440750Y-112184630D01*
X124440745Y-112184631D01*
X124270476Y-112244211D01*
X124117737Y-112340184D01*
X123990184Y-112467737D01*
X123894211Y-112620476D01*
X123834631Y-112790745D01*
X123834630Y-112790750D01*
X123814435Y-112969996D01*
X123814435Y-112970003D01*
X123834630Y-113149249D01*
X123834631Y-113149254D01*
X123894211Y-113319523D01*
X123990184Y-113472262D01*
X123990241Y-113472319D01*
X123990265Y-113472364D01*
X123994525Y-113477705D01*
X123993589Y-113478451D01*
X124023726Y-113533642D01*
X124018742Y-113603334D01*
X123990241Y-113647681D01*
X123980184Y-113657737D01*
X123884211Y-113810476D01*
X123824631Y-113980745D01*
X123824630Y-113980750D01*
X123804435Y-114159996D01*
X123804435Y-114160003D01*
X123824630Y-114339249D01*
X123824631Y-114339254D01*
X123884211Y-114509523D01*
X123980184Y-114662262D01*
X123990241Y-114672319D01*
X124023726Y-114733642D01*
X124018742Y-114803334D01*
X123990241Y-114847681D01*
X123980184Y-114857737D01*
X123884211Y-115010476D01*
X123824631Y-115180745D01*
X123824630Y-115180750D01*
X123804435Y-115359996D01*
X123804435Y-115360003D01*
X123824630Y-115539249D01*
X123824631Y-115539254D01*
X123884211Y-115709523D01*
X123980184Y-115862262D01*
X123990241Y-115872319D01*
X124023726Y-115933642D01*
X124018742Y-116003334D01*
X123990241Y-116047681D01*
X123980184Y-116057737D01*
X123884211Y-116210476D01*
X123824631Y-116380745D01*
X123824630Y-116380750D01*
X123804435Y-116559996D01*
X123804435Y-116560003D01*
X96740500Y-116560003D01*
X96740500Y-115360000D01*
X100254659Y-115360000D01*
X100273975Y-115556129D01*
X100273976Y-115556132D01*
X100298045Y-115635478D01*
X100331188Y-115744733D01*
X100424086Y-115918532D01*
X100424090Y-115918539D01*
X100549116Y-116070883D01*
X100701460Y-116195909D01*
X100701467Y-116195913D01*
X100875266Y-116288811D01*
X100875269Y-116288811D01*
X100875273Y-116288814D01*
X101063868Y-116346024D01*
X101260000Y-116365341D01*
X101456132Y-116346024D01*
X101644727Y-116288814D01*
X101818538Y-116195910D01*
X101970883Y-116070883D01*
X102095910Y-115918538D01*
X102151139Y-115815212D01*
X102188811Y-115744733D01*
X102188811Y-115744732D01*
X102188814Y-115744727D01*
X102246024Y-115556132D01*
X102265341Y-115360000D01*
X102654659Y-115360000D01*
X102673975Y-115556129D01*
X102673976Y-115556132D01*
X102698045Y-115635478D01*
X102731188Y-115744733D01*
X102824086Y-115918532D01*
X102824090Y-115918539D01*
X102949116Y-116070883D01*
X103101460Y-116195909D01*
X103101467Y-116195913D01*
X103275266Y-116288811D01*
X103275269Y-116288811D01*
X103275273Y-116288814D01*
X103463868Y-116346024D01*
X103660000Y-116365341D01*
X103856132Y-116346024D01*
X104044727Y-116288814D01*
X104218538Y-116195910D01*
X104370883Y-116070883D01*
X104495910Y-115918538D01*
X104551139Y-115815212D01*
X104588811Y-115744733D01*
X104588811Y-115744732D01*
X104588814Y-115744727D01*
X104646024Y-115556132D01*
X104665341Y-115360000D01*
X104646024Y-115163868D01*
X104588814Y-114975273D01*
X104588811Y-114975269D01*
X104588811Y-114975266D01*
X104495913Y-114801467D01*
X104495909Y-114801460D01*
X104370883Y-114649116D01*
X104218539Y-114524090D01*
X104218532Y-114524086D01*
X104044733Y-114431188D01*
X104044727Y-114431186D01*
X103856132Y-114373976D01*
X103856129Y-114373975D01*
X103660000Y-114354659D01*
X103463870Y-114373975D01*
X103275266Y-114431188D01*
X103101467Y-114524086D01*
X103101460Y-114524090D01*
X102949116Y-114649116D01*
X102824090Y-114801460D01*
X102824086Y-114801467D01*
X102731188Y-114975266D01*
X102673975Y-115163870D01*
X102654659Y-115360000D01*
X102265341Y-115360000D01*
X102246024Y-115163868D01*
X102188814Y-114975273D01*
X102188811Y-114975269D01*
X102188811Y-114975266D01*
X102095913Y-114801467D01*
X102095909Y-114801460D01*
X101970883Y-114649116D01*
X101818539Y-114524090D01*
X101818532Y-114524086D01*
X101644733Y-114431188D01*
X101644727Y-114431186D01*
X101456132Y-114373976D01*
X101456129Y-114373975D01*
X101260000Y-114354659D01*
X101063870Y-114373975D01*
X100875266Y-114431188D01*
X100701467Y-114524086D01*
X100701460Y-114524090D01*
X100549116Y-114649116D01*
X100424090Y-114801460D01*
X100424086Y-114801467D01*
X100331188Y-114975266D01*
X100273975Y-115163870D01*
X100254659Y-115360000D01*
X96740500Y-115360000D01*
X96740500Y-110197500D01*
X100579539Y-110197500D01*
X100599311Y-110360342D01*
X100599312Y-110360345D01*
X100650610Y-110495607D01*
X100657483Y-110513728D01*
X100724264Y-110610476D01*
X100750668Y-110648729D01*
X100750670Y-110648731D01*
X100750672Y-110648733D01*
X100873451Y-110757506D01*
X100873452Y-110757506D01*
X100873454Y-110757508D01*
X101018705Y-110833742D01*
X101018707Y-110833742D01*
X101018708Y-110833743D01*
X101177978Y-110873000D01*
X101177979Y-110873000D01*
X101342022Y-110873000D01*
X101501291Y-110833743D01*
X101501291Y-110833742D01*
X101501295Y-110833742D01*
X101646546Y-110757508D01*
X101769332Y-110648729D01*
X101862518Y-110513726D01*
X101920688Y-110360345D01*
X101940461Y-110197500D01*
X101920688Y-110034655D01*
X101862518Y-109881274D01*
X101769332Y-109746271D01*
X101769329Y-109746268D01*
X101769327Y-109746266D01*
X101646548Y-109637493D01*
X101555707Y-109589816D01*
X101501295Y-109561258D01*
X101501294Y-109561257D01*
X101501291Y-109561256D01*
X101342022Y-109522000D01*
X101342021Y-109522000D01*
X101177979Y-109522000D01*
X101177978Y-109522000D01*
X101018708Y-109561256D01*
X100873451Y-109637493D01*
X100750672Y-109746266D01*
X100750666Y-109746273D01*
X100657483Y-109881271D01*
X100599312Y-110034654D01*
X100599311Y-110034657D01*
X100579539Y-110197499D01*
X100579539Y-110197500D01*
X96740500Y-110197500D01*
X96740500Y-109360003D01*
X104554435Y-109360003D01*
X104574630Y-109539249D01*
X104574631Y-109539254D01*
X104634211Y-109709523D01*
X104712558Y-109834211D01*
X104730184Y-109862262D01*
X104857738Y-109989816D01*
X104894051Y-110012633D01*
X104965833Y-110057737D01*
X105010478Y-110085789D01*
X105078306Y-110109523D01*
X105180745Y-110145368D01*
X105180750Y-110145369D01*
X105359996Y-110165565D01*
X105360000Y-110165565D01*
X105360004Y-110165565D01*
X105539249Y-110145369D01*
X105539252Y-110145368D01*
X105539255Y-110145368D01*
X105709522Y-110085789D01*
X105862262Y-109989816D01*
X105989816Y-109862262D01*
X106085789Y-109709522D01*
X106145368Y-109539255D01*
X106154043Y-109462262D01*
X106165565Y-109360003D01*
X106165565Y-109359996D01*
X106145369Y-109180750D01*
X106145368Y-109180745D01*
X106115799Y-109096242D01*
X106085789Y-109010478D01*
X106079201Y-108999994D01*
X106022955Y-108910478D01*
X105989816Y-108857738D01*
X105862262Y-108730184D01*
X105780894Y-108679057D01*
X105709523Y-108634211D01*
X105539254Y-108574631D01*
X105539249Y-108574630D01*
X105360004Y-108554435D01*
X105359996Y-108554435D01*
X105180750Y-108574630D01*
X105180745Y-108574631D01*
X105010476Y-108634211D01*
X104857737Y-108730184D01*
X104730184Y-108857737D01*
X104634211Y-109010476D01*
X104574631Y-109180745D01*
X104574630Y-109180750D01*
X104554435Y-109359996D01*
X104554435Y-109360003D01*
X96740500Y-109360003D01*
X96740500Y-108460000D01*
X107379539Y-108460000D01*
X107399311Y-108622842D01*
X107399312Y-108622845D01*
X107456951Y-108774827D01*
X107457483Y-108776228D01*
X107495833Y-108831787D01*
X107550668Y-108911229D01*
X107550670Y-108911231D01*
X107550672Y-108911233D01*
X107673451Y-109020006D01*
X107673452Y-109020006D01*
X107673454Y-109020008D01*
X107818705Y-109096242D01*
X107818707Y-109096242D01*
X107818708Y-109096243D01*
X107977978Y-109135500D01*
X107977979Y-109135500D01*
X108142022Y-109135500D01*
X108301291Y-109096243D01*
X108301291Y-109096242D01*
X108301295Y-109096242D01*
X108446546Y-109020008D01*
X108569332Y-108911229D01*
X108662518Y-108776226D01*
X108720688Y-108622845D01*
X108740461Y-108460000D01*
X108720688Y-108297155D01*
X108662518Y-108143774D01*
X108569332Y-108008771D01*
X108569329Y-108008768D01*
X108569327Y-108008766D01*
X108446548Y-107899993D01*
X108301291Y-107823756D01*
X108142022Y-107784500D01*
X108142021Y-107784500D01*
X107977979Y-107784500D01*
X107977978Y-107784500D01*
X107818708Y-107823756D01*
X107673451Y-107899993D01*
X107550672Y-108008766D01*
X107550666Y-108008773D01*
X107457483Y-108143771D01*
X107399312Y-108297154D01*
X107399311Y-108297157D01*
X107379539Y-108459999D01*
X107379539Y-108460000D01*
X96740500Y-108460000D01*
X96740500Y-97010000D01*
X100239551Y-97010000D01*
X100259317Y-97261151D01*
X100318126Y-97506110D01*
X100414533Y-97738859D01*
X100546160Y-97953653D01*
X100546161Y-97953656D01*
X100601604Y-98018571D01*
X100709776Y-98145224D01*
X100797913Y-98220500D01*
X100901343Y-98308838D01*
X100901346Y-98308839D01*
X101116140Y-98440466D01*
X101301181Y-98517112D01*
X101355584Y-98560953D01*
X101377649Y-98627247D01*
X101360370Y-98694946D01*
X101341409Y-98719354D01*
X101011286Y-99049478D01*
X100899481Y-99161282D01*
X100899479Y-99161285D01*
X100882036Y-99191498D01*
X100857376Y-99234211D01*
X100820423Y-99298215D01*
X100779499Y-99450943D01*
X100779499Y-99450945D01*
X100779499Y-99619046D01*
X100779500Y-99619059D01*
X100779500Y-101643330D01*
X100779499Y-101643348D01*
X100779499Y-101809054D01*
X100779498Y-101809054D01*
X100819162Y-101957082D01*
X100820423Y-101961785D01*
X100844324Y-102003182D01*
X100875821Y-102057737D01*
X100899479Y-102098714D01*
X100899481Y-102098717D01*
X101018349Y-102217585D01*
X101018355Y-102217590D01*
X102015139Y-103214374D01*
X102015149Y-103214385D01*
X102019479Y-103218715D01*
X102019480Y-103218716D01*
X102131284Y-103330520D01*
X102131286Y-103330521D01*
X102131287Y-103330522D01*
X102198373Y-103369253D01*
X102198375Y-103369255D01*
X102246075Y-103396794D01*
X102268215Y-103409577D01*
X102420942Y-103450500D01*
X102420943Y-103450500D01*
X103974345Y-103450500D01*
X104041384Y-103470185D01*
X104075917Y-103503373D01*
X104183402Y-103656877D01*
X104338123Y-103811598D01*
X104517361Y-103937102D01*
X104715670Y-104029575D01*
X104927023Y-104086207D01*
X105109926Y-104102208D01*
X105144998Y-104105277D01*
X105145000Y-104105277D01*
X105145002Y-104105277D01*
X105175965Y-104102568D01*
X105362977Y-104086207D01*
X105574330Y-104029575D01*
X105772639Y-103937102D01*
X105951877Y-103811598D01*
X106106598Y-103656877D01*
X106232102Y-103477639D01*
X106302618Y-103326414D01*
X106348790Y-103273977D01*
X106415984Y-103254825D01*
X106482865Y-103275041D01*
X106527381Y-103326414D01*
X106597898Y-103477639D01*
X106723402Y-103656877D01*
X106878123Y-103811598D01*
X107057361Y-103937102D01*
X107255670Y-104029575D01*
X107467023Y-104086207D01*
X107649926Y-104102208D01*
X107684998Y-104105277D01*
X107685000Y-104105277D01*
X107685002Y-104105277D01*
X107715965Y-104102568D01*
X107902977Y-104086207D01*
X108114330Y-104029575D01*
X108312639Y-103937102D01*
X108491877Y-103811598D01*
X108646598Y-103656877D01*
X108772102Y-103477639D01*
X108842618Y-103326414D01*
X108888790Y-103273977D01*
X108955984Y-103254825D01*
X109022865Y-103275041D01*
X109067381Y-103326414D01*
X109137898Y-103477639D01*
X109263402Y-103656877D01*
X109418123Y-103811598D01*
X109597361Y-103937102D01*
X109795670Y-104029575D01*
X110007023Y-104086207D01*
X110189926Y-104102208D01*
X110224998Y-104105277D01*
X110225000Y-104105277D01*
X110225002Y-104105277D01*
X110255965Y-104102568D01*
X110442977Y-104086207D01*
X110654330Y-104029575D01*
X110852639Y-103937102D01*
X111031877Y-103811598D01*
X111186598Y-103656877D01*
X111312102Y-103477639D01*
X111382618Y-103326414D01*
X111428790Y-103273977D01*
X111495984Y-103254825D01*
X111562865Y-103275041D01*
X111607381Y-103326414D01*
X111677898Y-103477639D01*
X111803402Y-103656877D01*
X111958123Y-103811598D01*
X112137361Y-103937102D01*
X112335670Y-104029575D01*
X112547023Y-104086207D01*
X112729926Y-104102208D01*
X112764998Y-104105277D01*
X112765000Y-104105277D01*
X112765002Y-104105277D01*
X112795965Y-104102568D01*
X112982977Y-104086207D01*
X113194330Y-104029575D01*
X113392639Y-103937102D01*
X113571877Y-103811598D01*
X113726598Y-103656877D01*
X113828928Y-103510734D01*
X113883502Y-103467112D01*
X113953000Y-103459918D01*
X114015355Y-103491441D01*
X114050769Y-103551670D01*
X114054500Y-103581858D01*
X114054500Y-103647869D01*
X114054501Y-103647876D01*
X114060908Y-103707483D01*
X114111202Y-103842328D01*
X114111206Y-103842335D01*
X114197452Y-103957544D01*
X114197455Y-103957547D01*
X114312664Y-104043793D01*
X114312671Y-104043797D01*
X114447517Y-104094091D01*
X114447516Y-104094091D01*
X114454444Y-104094835D01*
X114507127Y-104100500D01*
X116102872Y-104100499D01*
X116162483Y-104094091D01*
X116297331Y-104043796D01*
X116412546Y-103957546D01*
X116498796Y-103842331D01*
X116549091Y-103707483D01*
X116555500Y-103647873D01*
X116555499Y-102052128D01*
X116549091Y-101992517D01*
X116539374Y-101966465D01*
X116498797Y-101857671D01*
X116498793Y-101857664D01*
X116412547Y-101742455D01*
X116412544Y-101742452D01*
X116297335Y-101656206D01*
X116297328Y-101656202D01*
X116162482Y-101605908D01*
X116162483Y-101605908D01*
X116102883Y-101599501D01*
X116102881Y-101599500D01*
X116102873Y-101599500D01*
X116102865Y-101599500D01*
X114766861Y-101599500D01*
X114699822Y-101579815D01*
X114654067Y-101527011D01*
X114644123Y-101457853D01*
X114673148Y-101394297D01*
X114695734Y-101373928D01*
X114841877Y-101271598D01*
X114996598Y-101116877D01*
X115104081Y-100963374D01*
X115158657Y-100919751D01*
X115205655Y-100910500D01*
X116461975Y-100910500D01*
X116529014Y-100930185D01*
X116566968Y-100968527D01*
X116594447Y-101012260D01*
X116594449Y-101012262D01*
X116722003Y-101139816D01*
X116874743Y-101235789D01*
X117045010Y-101295368D01*
X117045015Y-101295369D01*
X117224261Y-101315565D01*
X117224265Y-101315565D01*
X117224269Y-101315565D01*
X117403514Y-101295369D01*
X117403517Y-101295368D01*
X117403520Y-101295368D01*
X117573787Y-101235789D01*
X117726527Y-101139816D01*
X117740873Y-101125470D01*
X117802196Y-101091985D01*
X117871888Y-101096969D01*
X117916235Y-101125470D01*
X118091661Y-101300896D01*
X118125146Y-101362219D01*
X118120162Y-101431911D01*
X118091669Y-101476251D01*
X118085186Y-101482734D01*
X117989210Y-101635478D01*
X117929630Y-101805750D01*
X117919837Y-101892668D01*
X117892770Y-101957082D01*
X117884298Y-101966465D01*
X117518746Y-102332018D01*
X117518740Y-102332026D01*
X117439691Y-102468945D01*
X117439688Y-102468950D01*
X117419226Y-102545315D01*
X117398764Y-102621679D01*
X117398764Y-102621680D01*
X117398764Y-102621681D01*
X117398765Y-102706606D01*
X117398765Y-103380637D01*
X117379080Y-103447676D01*
X117362446Y-103468318D01*
X114177584Y-106653181D01*
X114116261Y-106686666D01*
X114089903Y-106689500D01*
X111472412Y-106689500D01*
X111405373Y-106669815D01*
X111395097Y-106662445D01*
X111392263Y-106660185D01*
X111392262Y-106660184D01*
X111335496Y-106624515D01*
X111239523Y-106564211D01*
X111069254Y-106504631D01*
X111069249Y-106504630D01*
X110890004Y-106484435D01*
X110889996Y-106484435D01*
X110710750Y-106504630D01*
X110710745Y-106504631D01*
X110540476Y-106564211D01*
X110387737Y-106660184D01*
X110260184Y-106787737D01*
X110164211Y-106940476D01*
X110104631Y-107110745D01*
X110104630Y-107110750D01*
X110084435Y-107289996D01*
X110084435Y-107290003D01*
X110096844Y-107400139D01*
X110084789Y-107468961D01*
X110042845Y-107515421D01*
X110043182Y-107515843D01*
X110040622Y-107517883D01*
X110039608Y-107519008D01*
X110037745Y-107520178D01*
X110037735Y-107520186D01*
X109910184Y-107647737D01*
X109814211Y-107800476D01*
X109754631Y-107970745D01*
X109754630Y-107970750D01*
X109734435Y-108149996D01*
X109734435Y-108150003D01*
X109754630Y-108329249D01*
X109754631Y-108329254D01*
X109814211Y-108499523D01*
X109911868Y-108654942D01*
X109930868Y-108722179D01*
X109911868Y-108786886D01*
X109834211Y-108910476D01*
X109774631Y-109080745D01*
X109774630Y-109080750D01*
X109754435Y-109259996D01*
X109754435Y-109260003D01*
X109774630Y-109439249D01*
X109774631Y-109439254D01*
X109834211Y-109609523D01*
X109884662Y-109689815D01*
X109930184Y-109762262D01*
X110057738Y-109889816D01*
X110210478Y-109985789D01*
X110221984Y-109989815D01*
X110380745Y-110045368D01*
X110380750Y-110045369D01*
X110559996Y-110065565D01*
X110560000Y-110065565D01*
X110560004Y-110065565D01*
X110739249Y-110045369D01*
X110739252Y-110045368D01*
X110739255Y-110045368D01*
X110909522Y-109985789D01*
X111062262Y-109889816D01*
X111189816Y-109762262D01*
X111285789Y-109609522D01*
X111345368Y-109439255D01*
X111347504Y-109420297D01*
X111365565Y-109260003D01*
X111365565Y-109259996D01*
X111345369Y-109080750D01*
X111345367Y-109080742D01*
X111287531Y-108915454D01*
X111283970Y-108845675D01*
X111318699Y-108785048D01*
X111380692Y-108752821D01*
X111404573Y-108750500D01*
X112586284Y-108750500D01*
X112653323Y-108770185D01*
X112699078Y-108822989D01*
X112702226Y-108830529D01*
X112732184Y-108909522D01*
X112757482Y-108976226D01*
X112850668Y-109111229D01*
X112850670Y-109111231D01*
X112850672Y-109111233D01*
X112973451Y-109220006D01*
X112973452Y-109220006D01*
X112973454Y-109220008D01*
X113118705Y-109296242D01*
X113118707Y-109296242D01*
X113118708Y-109296243D01*
X113277978Y-109335500D01*
X113277979Y-109335500D01*
X113442022Y-109335500D01*
X113601291Y-109296243D01*
X113601291Y-109296242D01*
X113601295Y-109296242D01*
X113746546Y-109220008D01*
X113869332Y-109111229D01*
X113962518Y-108976226D01*
X114014057Y-108840330D01*
X114017774Y-108830529D01*
X114059953Y-108774827D01*
X114125550Y-108750770D01*
X114133716Y-108750501D01*
X114174740Y-108750501D01*
X114174743Y-108750501D01*
X114327471Y-108709577D01*
X114380333Y-108679057D01*
X114380334Y-108679057D01*
X114464395Y-108630524D01*
X114464394Y-108630524D01*
X114464402Y-108630520D01*
X114576206Y-108518716D01*
X114576206Y-108518714D01*
X114586410Y-108508511D01*
X114586413Y-108508506D01*
X115999182Y-107095738D01*
X116940170Y-107095738D01*
X116960365Y-107274984D01*
X116960366Y-107274989D01*
X117019946Y-107445258D01*
X117115919Y-107597997D01*
X117203181Y-107685259D01*
X117236666Y-107746582D01*
X117239500Y-107772940D01*
X117239500Y-111727587D01*
X117219815Y-111794626D01*
X117212450Y-111804896D01*
X117210186Y-111807734D01*
X117114211Y-111960476D01*
X117054631Y-112130745D01*
X117054630Y-112130750D01*
X117034435Y-112309996D01*
X117034435Y-112310003D01*
X117054630Y-112489249D01*
X117054631Y-112489254D01*
X117114211Y-112659523D01*
X117193907Y-112786358D01*
X117210184Y-112812262D01*
X117337738Y-112939816D01*
X117428080Y-112996582D01*
X117478885Y-113028505D01*
X117490478Y-113035789D01*
X117615880Y-113079669D01*
X117660745Y-113095368D01*
X117660750Y-113095369D01*
X117839996Y-113115565D01*
X117840000Y-113115565D01*
X117840004Y-113115565D01*
X118019249Y-113095369D01*
X118019252Y-113095368D01*
X118019255Y-113095368D01*
X118189522Y-113035789D01*
X118342262Y-112939816D01*
X118469816Y-112812262D01*
X118565789Y-112659522D01*
X118625368Y-112489255D01*
X118625369Y-112489249D01*
X118645565Y-112310003D01*
X118645565Y-112309996D01*
X118625369Y-112130750D01*
X118625368Y-112130745D01*
X118572882Y-111980750D01*
X118565789Y-111960478D01*
X118469816Y-111807738D01*
X118469814Y-111807736D01*
X118469813Y-111807734D01*
X118467550Y-111804896D01*
X118466659Y-111802715D01*
X118466111Y-111801842D01*
X118466264Y-111801745D01*
X118441144Y-111740209D01*
X118440500Y-111727587D01*
X118440500Y-110960003D01*
X123824435Y-110960003D01*
X123844630Y-111139249D01*
X123844631Y-111139254D01*
X123904211Y-111309523D01*
X123926735Y-111345369D01*
X124000184Y-111462262D01*
X124127738Y-111589816D01*
X124149252Y-111603334D01*
X124235833Y-111657737D01*
X124280478Y-111685789D01*
X124399930Y-111727587D01*
X124450745Y-111745368D01*
X124450750Y-111745369D01*
X124629996Y-111765565D01*
X124630000Y-111765565D01*
X124630004Y-111765565D01*
X124809249Y-111745369D01*
X124809252Y-111745368D01*
X124809255Y-111745368D01*
X124979522Y-111685789D01*
X125132262Y-111589816D01*
X125259816Y-111462262D01*
X125355789Y-111309522D01*
X125377058Y-111248739D01*
X125417780Y-111191963D01*
X125482732Y-111166215D01*
X125551294Y-111179671D01*
X125561656Y-111186406D01*
X125561842Y-111186111D01*
X125567737Y-111189815D01*
X125567738Y-111189816D01*
X125720478Y-111285789D01*
X125788306Y-111309523D01*
X125890745Y-111345368D01*
X125890750Y-111345369D01*
X126069996Y-111365565D01*
X126070000Y-111365565D01*
X126070004Y-111365565D01*
X126249249Y-111345369D01*
X126249252Y-111345368D01*
X126249255Y-111345368D01*
X126419522Y-111285789D01*
X126572262Y-111189816D01*
X126699816Y-111062262D01*
X126795789Y-110909522D01*
X126855368Y-110739255D01*
X126863192Y-110669815D01*
X126875565Y-110560003D01*
X126875565Y-110559996D01*
X126855369Y-110380750D01*
X126855368Y-110380745D01*
X126813909Y-110262262D01*
X126795789Y-110210478D01*
X126787634Y-110197500D01*
X126719594Y-110089215D01*
X126699816Y-110057738D01*
X126572262Y-109930184D01*
X126508017Y-109889816D01*
X126419523Y-109834211D01*
X126249254Y-109774631D01*
X126249249Y-109774630D01*
X126206575Y-109769822D01*
X157731616Y-109769822D01*
X157751811Y-109949068D01*
X157751812Y-109949073D01*
X157811392Y-110119342D01*
X157874172Y-110219255D01*
X157907365Y-110272081D01*
X158034919Y-110399635D01*
X158187659Y-110495608D01*
X158357926Y-110555187D01*
X158357931Y-110555188D01*
X158537177Y-110575384D01*
X158537181Y-110575384D01*
X158537185Y-110575384D01*
X158716430Y-110555188D01*
X158716433Y-110555187D01*
X158716436Y-110555187D01*
X158886703Y-110495608D01*
X159039443Y-110399635D01*
X159166997Y-110272081D01*
X159196681Y-110224838D01*
X159249015Y-110178547D01*
X159318068Y-110167898D01*
X159381917Y-110196273D01*
X159406669Y-110224838D01*
X159430184Y-110262262D01*
X159440241Y-110272319D01*
X159473726Y-110333642D01*
X159468742Y-110403334D01*
X159440241Y-110447681D01*
X159430184Y-110457737D01*
X159334211Y-110610476D01*
X159274631Y-110780745D01*
X159274630Y-110780750D01*
X159254435Y-110959996D01*
X159254435Y-110960003D01*
X159274630Y-111139249D01*
X159274631Y-111139254D01*
X159334211Y-111309523D01*
X159430184Y-111462262D01*
X159440241Y-111472319D01*
X159473726Y-111533642D01*
X159468742Y-111603334D01*
X159440241Y-111647681D01*
X159430184Y-111657737D01*
X159334211Y-111810476D01*
X159274631Y-111980745D01*
X159274630Y-111980750D01*
X159254435Y-112159996D01*
X159254435Y-112160003D01*
X159274630Y-112339249D01*
X159274631Y-112339254D01*
X159334211Y-112509523D01*
X159430184Y-112662262D01*
X159440241Y-112672319D01*
X159473726Y-112733642D01*
X159468742Y-112803334D01*
X159440241Y-112847681D01*
X159430184Y-112857737D01*
X159414994Y-112881913D01*
X159362659Y-112928204D01*
X159293605Y-112938852D01*
X159229757Y-112910477D01*
X159205006Y-112881913D01*
X159189815Y-112857737D01*
X159062262Y-112730184D01*
X158909523Y-112634211D01*
X158739254Y-112574631D01*
X158739249Y-112574630D01*
X158560004Y-112554435D01*
X158559996Y-112554435D01*
X158380750Y-112574630D01*
X158380745Y-112574631D01*
X158210476Y-112634211D01*
X158057737Y-112730184D01*
X157930184Y-112857737D01*
X157834211Y-113010476D01*
X157774631Y-113180745D01*
X157774630Y-113180750D01*
X157754435Y-113359996D01*
X157754435Y-113360003D01*
X157774630Y-113539249D01*
X157774631Y-113539254D01*
X157834211Y-113709523D01*
X157930184Y-113862262D01*
X157940241Y-113872319D01*
X157973726Y-113933642D01*
X157968742Y-114003334D01*
X157940241Y-114047681D01*
X157930184Y-114057737D01*
X157834211Y-114210476D01*
X157774631Y-114380745D01*
X157774630Y-114380750D01*
X157754435Y-114559996D01*
X157754435Y-114560003D01*
X157774630Y-114739249D01*
X157774631Y-114739254D01*
X157834211Y-114909523D01*
X157930184Y-115062262D01*
X157940241Y-115072319D01*
X157973726Y-115133642D01*
X157968742Y-115203334D01*
X157940241Y-115247681D01*
X157930184Y-115257737D01*
X157834211Y-115410476D01*
X157774631Y-115580745D01*
X157774630Y-115580750D01*
X157754435Y-115759996D01*
X157754435Y-115760003D01*
X157774630Y-115939249D01*
X157774631Y-115939254D01*
X157834211Y-116109523D01*
X157930184Y-116262262D01*
X157940241Y-116272319D01*
X157973726Y-116333642D01*
X157968742Y-116403334D01*
X157940241Y-116447681D01*
X157930184Y-116457737D01*
X157834211Y-116610476D01*
X157774631Y-116780745D01*
X157774630Y-116780750D01*
X157754435Y-116959996D01*
X157754435Y-116960003D01*
X157774630Y-117139249D01*
X157774631Y-117139254D01*
X157834211Y-117309523D01*
X157930184Y-117462262D01*
X157940241Y-117472319D01*
X157973726Y-117533642D01*
X157968742Y-117603334D01*
X157940241Y-117647681D01*
X157930184Y-117657737D01*
X157834211Y-117810476D01*
X157774631Y-117980745D01*
X157774630Y-117980750D01*
X157754435Y-118159996D01*
X157754435Y-118160003D01*
X157774630Y-118339249D01*
X157774631Y-118339254D01*
X157834211Y-118509523D01*
X157930184Y-118662262D01*
X157940241Y-118672319D01*
X157973726Y-118733642D01*
X157968742Y-118803334D01*
X157940241Y-118847681D01*
X157930184Y-118857737D01*
X157834211Y-119010476D01*
X157774631Y-119180745D01*
X157774630Y-119180750D01*
X157754435Y-119359996D01*
X157754435Y-119360003D01*
X157774630Y-119539249D01*
X157774631Y-119539254D01*
X157834211Y-119709523D01*
X157930184Y-119862262D01*
X157940241Y-119872319D01*
X157973726Y-119933642D01*
X157968742Y-120003334D01*
X157940241Y-120047681D01*
X157930184Y-120057737D01*
X157834211Y-120210476D01*
X157774631Y-120380745D01*
X157774630Y-120380750D01*
X157754435Y-120559996D01*
X157754435Y-120560003D01*
X157774630Y-120739249D01*
X157774631Y-120739254D01*
X157834211Y-120909523D01*
X157930184Y-121062262D01*
X157940241Y-121072319D01*
X157973726Y-121133642D01*
X157968742Y-121203334D01*
X157940241Y-121247681D01*
X157930184Y-121257737D01*
X157834211Y-121410476D01*
X157774631Y-121580745D01*
X157774630Y-121580750D01*
X157754435Y-121759996D01*
X157754435Y-121760003D01*
X157774630Y-121939249D01*
X157774631Y-121939254D01*
X157834211Y-122109523D01*
X157914994Y-122238087D01*
X157930184Y-122262262D01*
X158057738Y-122389816D01*
X158078216Y-122402683D01*
X158205620Y-122482737D01*
X158210478Y-122485789D01*
X158271916Y-122507287D01*
X158380745Y-122545368D01*
X158380750Y-122545369D01*
X158559996Y-122565565D01*
X158560000Y-122565565D01*
X158560004Y-122565565D01*
X158739249Y-122545369D01*
X158739252Y-122545368D01*
X158739255Y-122545368D01*
X158909522Y-122485789D01*
X159062262Y-122389816D01*
X159189816Y-122262262D01*
X159205007Y-122238084D01*
X159257339Y-122191796D01*
X159326393Y-122181146D01*
X159390242Y-122209521D01*
X159414990Y-122238082D01*
X159430184Y-122262262D01*
X159557738Y-122389816D01*
X159578216Y-122402683D01*
X159705620Y-122482737D01*
X159710478Y-122485789D01*
X159771916Y-122507287D01*
X159880745Y-122545368D01*
X159880750Y-122545369D01*
X160059996Y-122565565D01*
X160060000Y-122565565D01*
X160060004Y-122565565D01*
X160239249Y-122545369D01*
X160239252Y-122545368D01*
X160239255Y-122545368D01*
X160409522Y-122485789D01*
X160562262Y-122389816D01*
X160689816Y-122262262D01*
X160785789Y-122109522D01*
X160845368Y-121939255D01*
X160847575Y-121919669D01*
X160865565Y-121760003D01*
X160865565Y-121759996D01*
X160845369Y-121580750D01*
X160845368Y-121580745D01*
X160836357Y-121554994D01*
X160785789Y-121410478D01*
X160777534Y-121397341D01*
X160691237Y-121260000D01*
X160689816Y-121257738D01*
X160679759Y-121247681D01*
X160646274Y-121186358D01*
X160651258Y-121116666D01*
X160679759Y-121072319D01*
X160689816Y-121062262D01*
X160785789Y-120909522D01*
X160845368Y-120739255D01*
X160845369Y-120739249D01*
X160865565Y-120560003D01*
X160865565Y-120559996D01*
X160845369Y-120380750D01*
X160845368Y-120380745D01*
X160785788Y-120210476D01*
X160746582Y-120148080D01*
X160689816Y-120057738D01*
X160679759Y-120047681D01*
X160646274Y-119986358D01*
X160651258Y-119916666D01*
X160679759Y-119872319D01*
X160682320Y-119869758D01*
X160689816Y-119862262D01*
X160785789Y-119709522D01*
X160845368Y-119539255D01*
X160845369Y-119539249D01*
X160865565Y-119360003D01*
X160865565Y-119359996D01*
X160845369Y-119180750D01*
X160845368Y-119180745D01*
X160827351Y-119129255D01*
X160785789Y-119010478D01*
X160689816Y-118857738D01*
X160679759Y-118847681D01*
X160646274Y-118786358D01*
X160651258Y-118716666D01*
X160679759Y-118672319D01*
X160689816Y-118662262D01*
X160785789Y-118509522D01*
X160845368Y-118339255D01*
X160847702Y-118318539D01*
X160865565Y-118160003D01*
X160865565Y-118159996D01*
X160845369Y-117980750D01*
X160845368Y-117980745D01*
X160785789Y-117810478D01*
X160689816Y-117657738D01*
X160679759Y-117647681D01*
X160646274Y-117586358D01*
X160651258Y-117516666D01*
X160679759Y-117472319D01*
X160689816Y-117462262D01*
X160785789Y-117309522D01*
X160845368Y-117139255D01*
X160855524Y-117049116D01*
X160865565Y-116960003D01*
X160865565Y-116959996D01*
X160845369Y-116780750D01*
X160845368Y-116780745D01*
X160787307Y-116614816D01*
X160785789Y-116610478D01*
X160689816Y-116457738D01*
X160679759Y-116447681D01*
X160646274Y-116386358D01*
X160651258Y-116316666D01*
X160679759Y-116272319D01*
X160689816Y-116262262D01*
X160785789Y-116109522D01*
X160845368Y-115939255D01*
X160845369Y-115939249D01*
X160865565Y-115760003D01*
X160865565Y-115759996D01*
X160845369Y-115580750D01*
X160845368Y-115580745D01*
X160785789Y-115410478D01*
X160689816Y-115257738D01*
X160679759Y-115247681D01*
X160646274Y-115186358D01*
X160651258Y-115116666D01*
X160679759Y-115072319D01*
X160689816Y-115062262D01*
X160785789Y-114909522D01*
X160845368Y-114739255D01*
X160845369Y-114739249D01*
X160865565Y-114560003D01*
X160865565Y-114559996D01*
X160845369Y-114380750D01*
X160845368Y-114380745D01*
X160785788Y-114210476D01*
X160689815Y-114057737D01*
X160679759Y-114047681D01*
X160646274Y-113986358D01*
X160651258Y-113916666D01*
X160679759Y-113872319D01*
X160689816Y-113862262D01*
X160785789Y-113709522D01*
X160845368Y-113539255D01*
X160845369Y-113539249D01*
X160865565Y-113360003D01*
X160865565Y-113359996D01*
X160845369Y-113180750D01*
X160845368Y-113180745D01*
X160843574Y-113175618D01*
X160785789Y-113010478D01*
X160760352Y-112969996D01*
X160689815Y-112857737D01*
X160679759Y-112847681D01*
X160646274Y-112786358D01*
X160651258Y-112716666D01*
X160679759Y-112672319D01*
X160689816Y-112662262D01*
X160785789Y-112509522D01*
X160845368Y-112339255D01*
X160848664Y-112310003D01*
X160865565Y-112160003D01*
X160865565Y-112159996D01*
X160845369Y-111980750D01*
X160845368Y-111980745D01*
X160827676Y-111930184D01*
X160785789Y-111810478D01*
X160784067Y-111807738D01*
X160733705Y-111727587D01*
X160689816Y-111657738D01*
X160679759Y-111647681D01*
X160646274Y-111586358D01*
X160651258Y-111516666D01*
X160679759Y-111472319D01*
X160689816Y-111462262D01*
X160785789Y-111309522D01*
X160845368Y-111139255D01*
X160854043Y-111062262D01*
X160865565Y-110960003D01*
X160865565Y-110959996D01*
X160845369Y-110780750D01*
X160845368Y-110780745D01*
X160799175Y-110648733D01*
X160785789Y-110610478D01*
X160689816Y-110457738D01*
X160679759Y-110447681D01*
X160646274Y-110386358D01*
X160651258Y-110316666D01*
X160679759Y-110272319D01*
X160680817Y-110271261D01*
X160689816Y-110262262D01*
X160785789Y-110109522D01*
X160845368Y-109939255D01*
X160846390Y-109930184D01*
X160865565Y-109760003D01*
X160865565Y-109759996D01*
X160845369Y-109580750D01*
X160845368Y-109580745D01*
X160785789Y-109410478D01*
X160785604Y-109410184D01*
X160714010Y-109296243D01*
X160689816Y-109257738D01*
X160679759Y-109247681D01*
X160646274Y-109186358D01*
X160651258Y-109116666D01*
X160679759Y-109072319D01*
X160689816Y-109062262D01*
X160691235Y-109060003D01*
X174554435Y-109060003D01*
X174574630Y-109239249D01*
X174574631Y-109239254D01*
X174634211Y-109409523D01*
X174715724Y-109539249D01*
X174730184Y-109562262D01*
X174857738Y-109689816D01*
X174946148Y-109745368D01*
X174992721Y-109774632D01*
X175010478Y-109785789D01*
X175148860Y-109834211D01*
X175180745Y-109845368D01*
X175180750Y-109845369D01*
X175359996Y-109865565D01*
X175360000Y-109865565D01*
X175360004Y-109865565D01*
X175539249Y-109845369D01*
X175539252Y-109845368D01*
X175539255Y-109845368D01*
X175709522Y-109785789D01*
X175862262Y-109689816D01*
X175989816Y-109562262D01*
X176085789Y-109409522D01*
X176145368Y-109239255D01*
X176145369Y-109239249D01*
X176165565Y-109060003D01*
X176165565Y-109059996D01*
X176145369Y-108880750D01*
X176145368Y-108880745D01*
X176143632Y-108875785D01*
X176085789Y-108710478D01*
X175989816Y-108557738D01*
X175862262Y-108430184D01*
X175794463Y-108387583D01*
X175709523Y-108334211D01*
X175539254Y-108274631D01*
X175539249Y-108274630D01*
X175360004Y-108254435D01*
X175359996Y-108254435D01*
X175180750Y-108274630D01*
X175180745Y-108274631D01*
X175010476Y-108334211D01*
X174857737Y-108430184D01*
X174730184Y-108557737D01*
X174634211Y-108710476D01*
X174574631Y-108880745D01*
X174574630Y-108880750D01*
X174554435Y-109059996D01*
X174554435Y-109060003D01*
X160691235Y-109060003D01*
X160785789Y-108909522D01*
X160845368Y-108739255D01*
X160848101Y-108715000D01*
X160865565Y-108560003D01*
X160865565Y-108559996D01*
X160845369Y-108380750D01*
X160845368Y-108380745D01*
X160835052Y-108351264D01*
X160785789Y-108210478D01*
X160763265Y-108174632D01*
X160689815Y-108057737D01*
X160679759Y-108047681D01*
X160646274Y-107986358D01*
X160651258Y-107916666D01*
X160679759Y-107872319D01*
X160681604Y-107870474D01*
X160689816Y-107862262D01*
X160785789Y-107709522D01*
X160845368Y-107539255D01*
X160845369Y-107539249D01*
X160865565Y-107360003D01*
X160865565Y-107359996D01*
X160845369Y-107180750D01*
X160845368Y-107180745D01*
X160810000Y-107079669D01*
X160803119Y-107060003D01*
X174554435Y-107060003D01*
X174574630Y-107239249D01*
X174574631Y-107239254D01*
X174634211Y-107409523D01*
X174703746Y-107520186D01*
X174730184Y-107562262D01*
X174857738Y-107689816D01*
X174908287Y-107721578D01*
X175008426Y-107784500D01*
X175010478Y-107785789D01*
X175118987Y-107823758D01*
X175180745Y-107845368D01*
X175180750Y-107845369D01*
X175359996Y-107865565D01*
X175360000Y-107865565D01*
X175360004Y-107865565D01*
X175539249Y-107845369D01*
X175539252Y-107845368D01*
X175539255Y-107845368D01*
X175709522Y-107785789D01*
X175862262Y-107689816D01*
X175989816Y-107562262D01*
X176085789Y-107409522D01*
X176145368Y-107239255D01*
X176145369Y-107239249D01*
X176165565Y-107060003D01*
X176165565Y-107059996D01*
X176145369Y-106880750D01*
X176145368Y-106880745D01*
X176085789Y-106710478D01*
X175989816Y-106557738D01*
X175862262Y-106430184D01*
X175766394Y-106369946D01*
X175709523Y-106334211D01*
X175539254Y-106274631D01*
X175539249Y-106274630D01*
X175360004Y-106254435D01*
X175359996Y-106254435D01*
X175180750Y-106274630D01*
X175180745Y-106274631D01*
X175010476Y-106334211D01*
X174857737Y-106430184D01*
X174730184Y-106557737D01*
X174634211Y-106710476D01*
X174574631Y-106880745D01*
X174574630Y-106880750D01*
X174554435Y-107059996D01*
X174554435Y-107060003D01*
X160803119Y-107060003D01*
X160785789Y-107010478D01*
X160689816Y-106857738D01*
X160679759Y-106847681D01*
X160646274Y-106786358D01*
X160651258Y-106716666D01*
X160679759Y-106672319D01*
X160682263Y-106669815D01*
X160689816Y-106662262D01*
X160785789Y-106509522D01*
X160845368Y-106339255D01*
X160845539Y-106337737D01*
X160865565Y-106160003D01*
X160865565Y-106159996D01*
X160845369Y-105980750D01*
X160845368Y-105980745D01*
X160797998Y-105845369D01*
X160785789Y-105810478D01*
X160785387Y-105809839D01*
X160708209Y-105687011D01*
X160689816Y-105657738D01*
X160679759Y-105647681D01*
X160646274Y-105586358D01*
X160651258Y-105516666D01*
X160679759Y-105472319D01*
X160679816Y-105472262D01*
X160689816Y-105462262D01*
X160785789Y-105309522D01*
X160845368Y-105139255D01*
X160845369Y-105139249D01*
X160854298Y-105060003D01*
X174554435Y-105060003D01*
X174574630Y-105239249D01*
X174574631Y-105239254D01*
X174634211Y-105409523D01*
X174673633Y-105472262D01*
X174730184Y-105562262D01*
X174857738Y-105689816D01*
X175010478Y-105785789D01*
X175180745Y-105845368D01*
X175180750Y-105845369D01*
X175359996Y-105865565D01*
X175360000Y-105865565D01*
X175360004Y-105865565D01*
X175539249Y-105845369D01*
X175539252Y-105845368D01*
X175539255Y-105845368D01*
X175709522Y-105785789D01*
X175862262Y-105689816D01*
X175989816Y-105562262D01*
X176085789Y-105409522D01*
X176145368Y-105239255D01*
X176154050Y-105162203D01*
X176165565Y-105060003D01*
X176165565Y-105059996D01*
X176145369Y-104880750D01*
X176145368Y-104880745D01*
X176115840Y-104796360D01*
X176085789Y-104710478D01*
X176066430Y-104679669D01*
X176022955Y-104610478D01*
X175989816Y-104557738D01*
X175862262Y-104430184D01*
X175801558Y-104392041D01*
X175709523Y-104334211D01*
X175539254Y-104274631D01*
X175539249Y-104274630D01*
X175360004Y-104254435D01*
X175359996Y-104254435D01*
X175180750Y-104274630D01*
X175180745Y-104274631D01*
X175010476Y-104334211D01*
X174857737Y-104430184D01*
X174730184Y-104557737D01*
X174634211Y-104710476D01*
X174574631Y-104880745D01*
X174574630Y-104880750D01*
X174554435Y-105059996D01*
X174554435Y-105060003D01*
X160854298Y-105060003D01*
X160865565Y-104960003D01*
X160865565Y-104959996D01*
X160845369Y-104780750D01*
X160845368Y-104780745D01*
X160821956Y-104713837D01*
X160785789Y-104610478D01*
X160769666Y-104584819D01*
X160689817Y-104457740D01*
X160689816Y-104457738D01*
X160689813Y-104457735D01*
X160689009Y-104456727D01*
X160688690Y-104455947D01*
X160686111Y-104451842D01*
X160686829Y-104451390D01*
X160662597Y-104392041D01*
X160675350Y-104323345D01*
X160698269Y-104291730D01*
X160734692Y-104255308D01*
X160830665Y-104102568D01*
X160890244Y-103932301D01*
X160890245Y-103932295D01*
X160910441Y-103753049D01*
X160910441Y-103753042D01*
X160890245Y-103573796D01*
X160890244Y-103573791D01*
X160883434Y-103554329D01*
X160830665Y-103403524D01*
X160734692Y-103250784D01*
X160607138Y-103123230D01*
X160454399Y-103027257D01*
X160284130Y-102967677D01*
X160284125Y-102967676D01*
X160104880Y-102947481D01*
X160104872Y-102947481D01*
X159925626Y-102967676D01*
X159925621Y-102967677D01*
X159755352Y-103027257D01*
X159602613Y-103123230D01*
X159475060Y-103250783D01*
X159475058Y-103250786D01*
X159435246Y-103314146D01*
X159382911Y-103360437D01*
X159313858Y-103371084D01*
X159250009Y-103342709D01*
X159225260Y-103314145D01*
X159189820Y-103257743D01*
X159189815Y-103257737D01*
X159062262Y-103130184D01*
X158909523Y-103034211D01*
X158739254Y-102974631D01*
X158739249Y-102974630D01*
X158560004Y-102954435D01*
X158559996Y-102954435D01*
X158380750Y-102974630D01*
X158380745Y-102974631D01*
X158210476Y-103034211D01*
X158057737Y-103130184D01*
X157930184Y-103257737D01*
X157834211Y-103410476D01*
X157774631Y-103580745D01*
X157774630Y-103580750D01*
X157754435Y-103759996D01*
X157754435Y-103760003D01*
X157774630Y-103939249D01*
X157774631Y-103939254D01*
X157834211Y-104109523D01*
X157930184Y-104262262D01*
X157940241Y-104272319D01*
X157973726Y-104333642D01*
X157968742Y-104403334D01*
X157940241Y-104447681D01*
X157930184Y-104457737D01*
X157834211Y-104610476D01*
X157774631Y-104780745D01*
X157774630Y-104780750D01*
X157754435Y-104959996D01*
X157754435Y-104960003D01*
X157774630Y-105139249D01*
X157774631Y-105139254D01*
X157834211Y-105309523D01*
X157930184Y-105462262D01*
X157940241Y-105472319D01*
X157973726Y-105533642D01*
X157968742Y-105603334D01*
X157940241Y-105647681D01*
X157930184Y-105657737D01*
X157834211Y-105810476D01*
X157774631Y-105980745D01*
X157774630Y-105980750D01*
X157754435Y-106159996D01*
X157754435Y-106160003D01*
X157774630Y-106339249D01*
X157774631Y-106339254D01*
X157834211Y-106509523D01*
X157930184Y-106662262D01*
X157940241Y-106672319D01*
X157973726Y-106733642D01*
X157968742Y-106803334D01*
X157940241Y-106847681D01*
X157930184Y-106857737D01*
X157834211Y-107010476D01*
X157774631Y-107180745D01*
X157774630Y-107180750D01*
X157754435Y-107359996D01*
X157754435Y-107360003D01*
X157774630Y-107539249D01*
X157774631Y-107539254D01*
X157834211Y-107709523D01*
X157930184Y-107862262D01*
X157940241Y-107872319D01*
X157973726Y-107933642D01*
X157968742Y-108003334D01*
X157940241Y-108047681D01*
X157930184Y-108057737D01*
X157834211Y-108210476D01*
X157774631Y-108380745D01*
X157774630Y-108380750D01*
X157754435Y-108559996D01*
X157754435Y-108560003D01*
X157774630Y-108739249D01*
X157774631Y-108739254D01*
X157834211Y-108909523D01*
X157930184Y-109062262D01*
X157933741Y-109065819D01*
X157967226Y-109127142D01*
X157962242Y-109196834D01*
X157933741Y-109241181D01*
X157907365Y-109267556D01*
X157811392Y-109420295D01*
X157751812Y-109590564D01*
X157751811Y-109590569D01*
X157731616Y-109769815D01*
X157731616Y-109769822D01*
X126206575Y-109769822D01*
X126070004Y-109754435D01*
X126069996Y-109754435D01*
X125890750Y-109774630D01*
X125890745Y-109774631D01*
X125720476Y-109834211D01*
X125567737Y-109930184D01*
X125440184Y-110057737D01*
X125344209Y-110210480D01*
X125322941Y-110271261D01*
X125282220Y-110328037D01*
X125217267Y-110353784D01*
X125148705Y-110340328D01*
X125138342Y-110333594D01*
X125138158Y-110333889D01*
X124979523Y-110234211D01*
X124809254Y-110174631D01*
X124809249Y-110174630D01*
X124630004Y-110154435D01*
X124629996Y-110154435D01*
X124450750Y-110174630D01*
X124450745Y-110174631D01*
X124280476Y-110234211D01*
X124127737Y-110330184D01*
X124000184Y-110457737D01*
X123904211Y-110610476D01*
X123844631Y-110780745D01*
X123844630Y-110780750D01*
X123824435Y-110959996D01*
X123824435Y-110960003D01*
X118440500Y-110960003D01*
X118440500Y-107530355D01*
X118459507Y-107464381D01*
X118471524Y-107445257D01*
X118531103Y-107274990D01*
X118531104Y-107274984D01*
X118551300Y-107095738D01*
X118551300Y-107095731D01*
X118531104Y-106916485D01*
X118531103Y-106916480D01*
X118471524Y-106746213D01*
X118452958Y-106716666D01*
X118375550Y-106593472D01*
X118247997Y-106465919D01*
X118095258Y-106369946D01*
X117924989Y-106310366D01*
X117924984Y-106310365D01*
X117745739Y-106290170D01*
X117745731Y-106290170D01*
X117566485Y-106310365D01*
X117566480Y-106310366D01*
X117396211Y-106369946D01*
X117243472Y-106465919D01*
X117115919Y-106593472D01*
X117019946Y-106746211D01*
X116960366Y-106916480D01*
X116960365Y-106916485D01*
X116940170Y-107095731D01*
X116940170Y-107095738D01*
X115999182Y-107095738D01*
X119079785Y-104015137D01*
X119158842Y-103878205D01*
X119199766Y-103725478D01*
X119199766Y-103567363D01*
X119199766Y-103559768D01*
X119199765Y-103559750D01*
X119199765Y-103531677D01*
X119219450Y-103464638D01*
X119226820Y-103454362D01*
X119229075Y-103451532D01*
X119229081Y-103451527D01*
X119325054Y-103298787D01*
X119384633Y-103128520D01*
X119385969Y-103116666D01*
X119404830Y-102949268D01*
X119404830Y-102949265D01*
X119401943Y-102923646D01*
X119413997Y-102854823D01*
X119461345Y-102803443D01*
X119528955Y-102785818D01*
X119595361Y-102807543D01*
X119612844Y-102822079D01*
X119999298Y-103208533D01*
X120032783Y-103269856D01*
X120034837Y-103282330D01*
X120044630Y-103369249D01*
X120104210Y-103539521D01*
X120172294Y-103647876D01*
X120200184Y-103692262D01*
X120327738Y-103819816D01*
X120480478Y-103915789D01*
X120599807Y-103957544D01*
X120650745Y-103975368D01*
X120650750Y-103975369D01*
X120829996Y-103995565D01*
X120830000Y-103995565D01*
X120830004Y-103995565D01*
X121009249Y-103975369D01*
X121009252Y-103975368D01*
X121009255Y-103975368D01*
X121179522Y-103915789D01*
X121221649Y-103889319D01*
X121228325Y-103885124D01*
X121295562Y-103866123D01*
X121360271Y-103885124D01*
X121366945Y-103889318D01*
X121537215Y-103948898D01*
X121537220Y-103948899D01*
X121716466Y-103969095D01*
X121716470Y-103969095D01*
X121716474Y-103969095D01*
X121895719Y-103948899D01*
X121895722Y-103948898D01*
X121895725Y-103948898D01*
X122065992Y-103889319D01*
X122072669Y-103885124D01*
X122138642Y-103843670D01*
X122218732Y-103793346D01*
X122218733Y-103793344D01*
X122219527Y-103792846D01*
X122286764Y-103773845D01*
X122353599Y-103794212D01*
X122398814Y-103847480D01*
X122409500Y-103897839D01*
X122409500Y-104371373D01*
X122389815Y-104438412D01*
X122373181Y-104459054D01*
X120619481Y-106212753D01*
X120619475Y-106212761D01*
X120583756Y-106274630D01*
X120583756Y-106274632D01*
X120540423Y-106349685D01*
X120540423Y-106349686D01*
X120499499Y-106502414D01*
X120499499Y-106502416D01*
X120499499Y-106670517D01*
X120499500Y-106670530D01*
X120499500Y-108513330D01*
X120499499Y-108513348D01*
X120499499Y-108679054D01*
X120499498Y-108679054D01*
X120540423Y-108831787D01*
X120540424Y-108831788D01*
X120565826Y-108875785D01*
X120565828Y-108875788D01*
X120565829Y-108875789D01*
X120614446Y-108959996D01*
X120619479Y-108968714D01*
X120619481Y-108968717D01*
X120738349Y-109087585D01*
X120738355Y-109087590D01*
X121709298Y-110058533D01*
X121742783Y-110119856D01*
X121744837Y-110132330D01*
X121754630Y-110219249D01*
X121814210Y-110389521D01*
X121880869Y-110495607D01*
X121910184Y-110542262D01*
X122037738Y-110669816D01*
X122128080Y-110726582D01*
X122177295Y-110757506D01*
X122190478Y-110765789D01*
X122360745Y-110825368D01*
X122360750Y-110825369D01*
X122539996Y-110845565D01*
X122540000Y-110845565D01*
X122540004Y-110845565D01*
X122719249Y-110825369D01*
X122719252Y-110825368D01*
X122719255Y-110825368D01*
X122889522Y-110765789D01*
X123042262Y-110669816D01*
X123169816Y-110542262D01*
X123265789Y-110389522D01*
X123325368Y-110219255D01*
X123326357Y-110210476D01*
X123345565Y-110040003D01*
X123345565Y-110039996D01*
X123325369Y-109860750D01*
X123325368Y-109860745D01*
X123293553Y-109769822D01*
X123265789Y-109690478D01*
X123265372Y-109689815D01*
X123226582Y-109628080D01*
X123169816Y-109537738D01*
X123042262Y-109410184D01*
X123041208Y-109409522D01*
X122889521Y-109314210D01*
X122728131Y-109257738D01*
X122719255Y-109254632D01*
X122719254Y-109254631D01*
X122719249Y-109254630D01*
X122632330Y-109244837D01*
X122567916Y-109217770D01*
X122558533Y-109209298D01*
X121736819Y-108387583D01*
X121703334Y-108326260D01*
X121700500Y-108299902D01*
X121700500Y-107746321D01*
X121720185Y-107679282D01*
X121772989Y-107633527D01*
X121810612Y-107623101D01*
X121879255Y-107615368D01*
X122049522Y-107555789D01*
X122202262Y-107459816D01*
X122329816Y-107332262D01*
X122425789Y-107179522D01*
X122473369Y-107043545D01*
X122514091Y-106986770D01*
X122579043Y-106961022D01*
X122590411Y-106960500D01*
X123683678Y-106960500D01*
X123750717Y-106980185D01*
X123796472Y-107032989D01*
X123806898Y-107070617D01*
X123814630Y-107139249D01*
X123874210Y-107309521D01*
X123894783Y-107342262D01*
X123970184Y-107462262D01*
X124097738Y-107589816D01*
X124181204Y-107642261D01*
X124249634Y-107685259D01*
X124250478Y-107685789D01*
X124420745Y-107745368D01*
X124420750Y-107745369D01*
X124599996Y-107765565D01*
X124600000Y-107765565D01*
X124600004Y-107765565D01*
X124779249Y-107745369D01*
X124779252Y-107745368D01*
X124779255Y-107745368D01*
X124949522Y-107685789D01*
X125102262Y-107589816D01*
X125119721Y-107572357D01*
X125181043Y-107538870D01*
X125250735Y-107543853D01*
X125273372Y-107555040D01*
X125290478Y-107565789D01*
X125342318Y-107583928D01*
X125460737Y-107625366D01*
X125460743Y-107625367D01*
X125460745Y-107625368D01*
X125460746Y-107625368D01*
X125460750Y-107625369D01*
X125610674Y-107642261D01*
X125675088Y-107669327D01*
X125714643Y-107726922D01*
X125716781Y-107796759D01*
X125680823Y-107856665D01*
X125662764Y-107870474D01*
X125567739Y-107930182D01*
X125440184Y-108057737D01*
X125344209Y-108210480D01*
X125315643Y-108292117D01*
X125274922Y-108348893D01*
X125209969Y-108374640D01*
X125141407Y-108361184D01*
X125110921Y-108338843D01*
X125102262Y-108330184D01*
X124949523Y-108234211D01*
X124779254Y-108174631D01*
X124779249Y-108174630D01*
X124600004Y-108154435D01*
X124599996Y-108154435D01*
X124420750Y-108174630D01*
X124420745Y-108174631D01*
X124250476Y-108234211D01*
X124097737Y-108330184D01*
X123970184Y-108457737D01*
X123874211Y-108610476D01*
X123814631Y-108780745D01*
X123814630Y-108780750D01*
X123794435Y-108959996D01*
X123794435Y-108960003D01*
X123814630Y-109139249D01*
X123814631Y-109139254D01*
X123874211Y-109309523D01*
X123955724Y-109439249D01*
X123970184Y-109462262D01*
X124097738Y-109589816D01*
X124250478Y-109685789D01*
X124318306Y-109709523D01*
X124420745Y-109745368D01*
X124420750Y-109745369D01*
X124599996Y-109765565D01*
X124600000Y-109765565D01*
X124600004Y-109765565D01*
X124779249Y-109745369D01*
X124779252Y-109745368D01*
X124779255Y-109745368D01*
X124949522Y-109685789D01*
X125102262Y-109589816D01*
X125229816Y-109462262D01*
X125325789Y-109309522D01*
X125354355Y-109227882D01*
X125395076Y-109171107D01*
X125460028Y-109145359D01*
X125528590Y-109158815D01*
X125559078Y-109181156D01*
X125567738Y-109189816D01*
X125649485Y-109241181D01*
X125675833Y-109257737D01*
X125720478Y-109285789D01*
X125862544Y-109335500D01*
X125890745Y-109345368D01*
X125890750Y-109345369D01*
X126069996Y-109365565D01*
X126070000Y-109365565D01*
X126070004Y-109365565D01*
X126249249Y-109345369D01*
X126249252Y-109345368D01*
X126249255Y-109345368D01*
X126419522Y-109285789D01*
X126572262Y-109189816D01*
X126699816Y-109062262D01*
X126795789Y-108909522D01*
X126855368Y-108739255D01*
X126858101Y-108715000D01*
X126875565Y-108560003D01*
X126875565Y-108559996D01*
X126855369Y-108380750D01*
X126855368Y-108380745D01*
X126845052Y-108351264D01*
X126795789Y-108210478D01*
X126773265Y-108174632D01*
X126699815Y-108057737D01*
X126572262Y-107930184D01*
X126419523Y-107834211D01*
X126249254Y-107774631D01*
X126249250Y-107774630D01*
X126099324Y-107757738D01*
X126034910Y-107730671D01*
X125995355Y-107673076D01*
X125993218Y-107603239D01*
X126029176Y-107543333D01*
X126047229Y-107529528D01*
X126142262Y-107469816D01*
X126269816Y-107342262D01*
X126365789Y-107189522D01*
X126425368Y-107019255D01*
X126429770Y-106980185D01*
X126445565Y-106840003D01*
X126445565Y-106839996D01*
X126425369Y-106660750D01*
X126425368Y-106660745D01*
X126422721Y-106653181D01*
X126365789Y-106490478D01*
X126269816Y-106337738D01*
X126142262Y-106210184D01*
X126101864Y-106184800D01*
X126055574Y-106132466D01*
X126044617Y-106065924D01*
X126065565Y-105880002D01*
X126065565Y-105876878D01*
X126066136Y-105874932D01*
X126066345Y-105873080D01*
X126066669Y-105873116D01*
X126085250Y-105809839D01*
X126138054Y-105764084D01*
X126175682Y-105753658D01*
X126249249Y-105745369D01*
X126249252Y-105745368D01*
X126249255Y-105745368D01*
X126419522Y-105685789D01*
X126572262Y-105589816D01*
X126699816Y-105462262D01*
X126795789Y-105309522D01*
X126855368Y-105139255D01*
X126855369Y-105139249D01*
X126875565Y-104960003D01*
X126875565Y-104959996D01*
X126855369Y-104780750D01*
X126855368Y-104780745D01*
X126831956Y-104713837D01*
X126795789Y-104610478D01*
X126779666Y-104584819D01*
X126706099Y-104467738D01*
X126699816Y-104457738D01*
X126689759Y-104447681D01*
X126656274Y-104386358D01*
X126661258Y-104316666D01*
X126689759Y-104272319D01*
X126689816Y-104272262D01*
X126699816Y-104262262D01*
X126795789Y-104109522D01*
X126855368Y-103939255D01*
X126856152Y-103932300D01*
X126875565Y-103760003D01*
X126875565Y-103759996D01*
X126855369Y-103580750D01*
X126855368Y-103580745D01*
X126848028Y-103559768D01*
X126795789Y-103410478D01*
X126699816Y-103257738D01*
X126689759Y-103247681D01*
X126656274Y-103186358D01*
X126661258Y-103116666D01*
X126689759Y-103072319D01*
X126694101Y-103067977D01*
X126699816Y-103062262D01*
X126795789Y-102909522D01*
X126855368Y-102739255D01*
X126867450Y-102632023D01*
X126875565Y-102560003D01*
X126875565Y-102559996D01*
X126855369Y-102380750D01*
X126855368Y-102380745D01*
X126835695Y-102324524D01*
X126795789Y-102210478D01*
X126787083Y-102196623D01*
X126707164Y-102069433D01*
X126699816Y-102057738D01*
X126572262Y-101930184D01*
X126505768Y-101888403D01*
X126419523Y-101834211D01*
X126249254Y-101774631D01*
X126249249Y-101774630D01*
X126070004Y-101754435D01*
X126069996Y-101754435D01*
X125890750Y-101774630D01*
X125890745Y-101774631D01*
X125720476Y-101834211D01*
X125567737Y-101930184D01*
X125440181Y-102057740D01*
X125436942Y-102061802D01*
X125379751Y-102101938D01*
X125309939Y-102104783D01*
X125249672Y-102069433D01*
X125243056Y-102061797D01*
X125239818Y-102057737D01*
X125112264Y-101930183D01*
X124959525Y-101834210D01*
X124789256Y-101774630D01*
X124789251Y-101774629D01*
X124610006Y-101754434D01*
X124609998Y-101754434D01*
X124430752Y-101774629D01*
X124430747Y-101774630D01*
X124260478Y-101834210D01*
X124107739Y-101930183D01*
X123980186Y-102057736D01*
X123884211Y-102210479D01*
X123851541Y-102303845D01*
X123810820Y-102360621D01*
X123745867Y-102386368D01*
X123677305Y-102372912D01*
X123626903Y-102324524D01*
X123610500Y-102262890D01*
X123610500Y-99960003D01*
X174454435Y-99960003D01*
X174474630Y-100139249D01*
X174474631Y-100139254D01*
X174534211Y-100309523D01*
X174630184Y-100462262D01*
X174757738Y-100589816D01*
X174910478Y-100685789D01*
X175051232Y-100735041D01*
X175080745Y-100745368D01*
X175080750Y-100745369D01*
X175259996Y-100765565D01*
X175260000Y-100765565D01*
X175260004Y-100765565D01*
X175439249Y-100745369D01*
X175439252Y-100745368D01*
X175439255Y-100745368D01*
X175609522Y-100685789D01*
X175762262Y-100589816D01*
X175889816Y-100462262D01*
X175985789Y-100309522D01*
X176045368Y-100139255D01*
X176065565Y-99960000D01*
X176051321Y-99833583D01*
X176045369Y-99780750D01*
X176045368Y-99780745D01*
X176010942Y-99682361D01*
X175985789Y-99610478D01*
X175889816Y-99457738D01*
X175762262Y-99330184D01*
X175711384Y-99298215D01*
X175609523Y-99234211D01*
X175439254Y-99174631D01*
X175439249Y-99174630D01*
X175260004Y-99154435D01*
X175259996Y-99154435D01*
X175080750Y-99174630D01*
X175080745Y-99174631D01*
X174910476Y-99234211D01*
X174757737Y-99330184D01*
X174630184Y-99457737D01*
X174534211Y-99610476D01*
X174474631Y-99780745D01*
X174474630Y-99780750D01*
X174454435Y-99959996D01*
X174454435Y-99960003D01*
X123610500Y-99960003D01*
X123610500Y-98142412D01*
X123630185Y-98075373D01*
X123637555Y-98065097D01*
X123639810Y-98062267D01*
X123639816Y-98062262D01*
X123735789Y-97909522D01*
X123795368Y-97739255D01*
X123815565Y-97560000D01*
X123809493Y-97506111D01*
X123795369Y-97380750D01*
X123795368Y-97380745D01*
X123735788Y-97210476D01*
X123639815Y-97057737D01*
X123512262Y-96930184D01*
X123359523Y-96834211D01*
X123189254Y-96774631D01*
X123189249Y-96774630D01*
X123010004Y-96754435D01*
X123009996Y-96754435D01*
X122830750Y-96774630D01*
X122830745Y-96774631D01*
X122660476Y-96834211D01*
X122507737Y-96930184D01*
X122380184Y-97057737D01*
X122284211Y-97210476D01*
X122224631Y-97380745D01*
X122224630Y-97380750D01*
X122204435Y-97559996D01*
X122204435Y-97560003D01*
X122224630Y-97739249D01*
X122224631Y-97739254D01*
X122284211Y-97909523D01*
X122320334Y-97967011D01*
X122357212Y-98025703D01*
X122380185Y-98062263D01*
X122382445Y-98065097D01*
X122383334Y-98067275D01*
X122383889Y-98068158D01*
X122383734Y-98068255D01*
X122408855Y-98129783D01*
X122409500Y-98142412D01*
X122409500Y-101010903D01*
X122389815Y-101077942D01*
X122337011Y-101123697D01*
X122267853Y-101133641D01*
X122204297Y-101104616D01*
X122197819Y-101098584D01*
X119377589Y-98278355D01*
X119377587Y-98278352D01*
X119258716Y-98159481D01*
X119258715Y-98159480D01*
X119171903Y-98109360D01*
X119171903Y-98109359D01*
X119171899Y-98109358D01*
X119121784Y-98080423D01*
X118969056Y-98039499D01*
X118810942Y-98039499D01*
X118803346Y-98039499D01*
X118803330Y-98039500D01*
X118802651Y-98039500D01*
X118735612Y-98019815D01*
X118689857Y-97967011D01*
X118679913Y-97897853D01*
X118696924Y-97850710D01*
X118765466Y-97738859D01*
X118839550Y-97560003D01*
X118861873Y-97506111D01*
X118920683Y-97261148D01*
X118940449Y-97010000D01*
X118920683Y-96758852D01*
X118861873Y-96513889D01*
X118765466Y-96281141D01*
X118765466Y-96281140D01*
X118633839Y-96066346D01*
X118633838Y-96066343D01*
X118590301Y-96015368D01*
X118470224Y-95874776D01*
X118303362Y-95732262D01*
X118278656Y-95711161D01*
X118278653Y-95711160D01*
X118063859Y-95579533D01*
X117831110Y-95483126D01*
X117586151Y-95424317D01*
X117335000Y-95404551D01*
X117083848Y-95424317D01*
X116838887Y-95483127D01*
X116838885Y-95483127D01*
X116724031Y-95530701D01*
X116654561Y-95538170D01*
X116592082Y-95506894D01*
X116556431Y-95446805D01*
X116558925Y-95376980D01*
X116588896Y-95328460D01*
X116718101Y-95199256D01*
X116867767Y-95004208D01*
X116990694Y-94791292D01*
X117084778Y-94564153D01*
X117148409Y-94326677D01*
X117180500Y-94082927D01*
X117180500Y-93837073D01*
X117148409Y-93593323D01*
X117084778Y-93355847D01*
X116990694Y-93128708D01*
X116867767Y-92915792D01*
X116718101Y-92720744D01*
X116718096Y-92720738D01*
X116657358Y-92660000D01*
X133429539Y-92660000D01*
X133449311Y-92822842D01*
X133449312Y-92822845D01*
X133507482Y-92976226D01*
X133600668Y-93111229D01*
X133600670Y-93111231D01*
X133600672Y-93111233D01*
X133723451Y-93220006D01*
X133723452Y-93220006D01*
X133723454Y-93220008D01*
X133868705Y-93296242D01*
X133868707Y-93296242D01*
X133868708Y-93296243D01*
X134027978Y-93335500D01*
X134027979Y-93335500D01*
X134192022Y-93335500D01*
X134310882Y-93306203D01*
X134351295Y-93296242D01*
X134392332Y-93274703D01*
X134449958Y-93260500D01*
X140733678Y-93260500D01*
X140800717Y-93280185D01*
X140846472Y-93332989D01*
X140856898Y-93370617D01*
X140864630Y-93439249D01*
X140864631Y-93439254D01*
X140864632Y-93439255D01*
X140902992Y-93548882D01*
X140923261Y-93606807D01*
X140926822Y-93676586D01*
X140893900Y-93735442D01*
X140190709Y-94438632D01*
X140143984Y-94467992D01*
X140040476Y-94504211D01*
X140040475Y-94504212D01*
X139887737Y-94600184D01*
X139760184Y-94727737D01*
X139664211Y-94880476D01*
X139604631Y-95050745D01*
X139604630Y-95050750D01*
X139584435Y-95229996D01*
X139584435Y-95230003D01*
X139604630Y-95409249D01*
X139604631Y-95409254D01*
X139664211Y-95579523D01*
X139705791Y-95645696D01*
X139760184Y-95732262D01*
X139887738Y-95859816D01*
X140040478Y-95955789D01*
X140210745Y-96015368D01*
X140210750Y-96015369D01*
X140389996Y-96035565D01*
X140390000Y-96035565D01*
X140390004Y-96035565D01*
X140569249Y-96015369D01*
X140569252Y-96015368D01*
X140569255Y-96015368D01*
X140739522Y-95955789D01*
X140892262Y-95859816D01*
X141019816Y-95732262D01*
X141115789Y-95579522D01*
X141152007Y-95476013D01*
X141181365Y-95429290D01*
X141750656Y-94860000D01*
X166879539Y-94860000D01*
X166899311Y-95022842D01*
X166899312Y-95022845D01*
X166932316Y-95109870D01*
X166957483Y-95176228D01*
X167036055Y-95290059D01*
X167050668Y-95311229D01*
X167050670Y-95311231D01*
X167050672Y-95311233D01*
X167173451Y-95420006D01*
X167173452Y-95420006D01*
X167173454Y-95420008D01*
X167318705Y-95496242D01*
X167318707Y-95496242D01*
X167318708Y-95496243D01*
X167477978Y-95535500D01*
X167477979Y-95535500D01*
X167642022Y-95535500D01*
X167801291Y-95496243D01*
X167801291Y-95496242D01*
X167801295Y-95496242D01*
X167946546Y-95420008D01*
X168069332Y-95311229D01*
X168162518Y-95176226D01*
X168166558Y-95165572D01*
X168208735Y-95109870D01*
X168274332Y-95085812D01*
X168342523Y-95101038D01*
X168391656Y-95150714D01*
X168398441Y-95165570D01*
X168402482Y-95176226D01*
X168495668Y-95311229D01*
X168495670Y-95311231D01*
X168495672Y-95311233D01*
X168618451Y-95420006D01*
X168618452Y-95420006D01*
X168618454Y-95420008D01*
X168763705Y-95496242D01*
X168763707Y-95496242D01*
X168763708Y-95496243D01*
X168922978Y-95535500D01*
X168922979Y-95535500D01*
X169087022Y-95535500D01*
X169246291Y-95496243D01*
X169246291Y-95496242D01*
X169246295Y-95496242D01*
X169391546Y-95420008D01*
X169514332Y-95311229D01*
X169607518Y-95176226D01*
X169665688Y-95022845D01*
X169665688Y-95022844D01*
X169666558Y-95020551D01*
X169708736Y-94964848D01*
X169774334Y-94940791D01*
X169842524Y-94956018D01*
X169891657Y-95005694D01*
X169898442Y-95020551D01*
X169899311Y-95022844D01*
X169899312Y-95022845D01*
X169957482Y-95176226D01*
X170050668Y-95311229D01*
X170050670Y-95311231D01*
X170050672Y-95311233D01*
X170173451Y-95420006D01*
X170173452Y-95420006D01*
X170173454Y-95420008D01*
X170318705Y-95496242D01*
X170318707Y-95496242D01*
X170318708Y-95496243D01*
X170477978Y-95535500D01*
X170477979Y-95535500D01*
X170642022Y-95535500D01*
X170801291Y-95496243D01*
X170801291Y-95496242D01*
X170801295Y-95496242D01*
X170946546Y-95420008D01*
X171069332Y-95311229D01*
X171162518Y-95176226D01*
X171194058Y-95093061D01*
X171236236Y-95037359D01*
X171301834Y-95013302D01*
X171370024Y-95028529D01*
X171419157Y-95078205D01*
X171425941Y-95093060D01*
X171457482Y-95176226D01*
X171550668Y-95311229D01*
X171550670Y-95311231D01*
X171550672Y-95311233D01*
X171673451Y-95420006D01*
X171673452Y-95420006D01*
X171673454Y-95420008D01*
X171818705Y-95496242D01*
X171818707Y-95496242D01*
X171818708Y-95496243D01*
X171977978Y-95535500D01*
X171977979Y-95535500D01*
X172142022Y-95535500D01*
X172301291Y-95496243D01*
X172301291Y-95496242D01*
X172301295Y-95496242D01*
X172320392Y-95486219D01*
X173905758Y-95486219D01*
X173925530Y-95649061D01*
X173925531Y-95649064D01*
X173959934Y-95739778D01*
X173983702Y-95802447D01*
X174062274Y-95916278D01*
X174076887Y-95937448D01*
X174076889Y-95937450D01*
X174076891Y-95937452D01*
X174199670Y-96046225D01*
X174199671Y-96046225D01*
X174199673Y-96046227D01*
X174344924Y-96122461D01*
X174344926Y-96122461D01*
X174344927Y-96122462D01*
X174504197Y-96161719D01*
X174504198Y-96161719D01*
X174668241Y-96161719D01*
X174827510Y-96122462D01*
X174827510Y-96122461D01*
X174827514Y-96122461D01*
X174972765Y-96046227D01*
X175095551Y-95937448D01*
X175188737Y-95802445D01*
X175246907Y-95649064D01*
X175266680Y-95486219D01*
X175266304Y-95483126D01*
X175259164Y-95424317D01*
X175246907Y-95323374D01*
X175188737Y-95169993D01*
X175095551Y-95034990D01*
X175095548Y-95034987D01*
X175095546Y-95034985D01*
X174972767Y-94926212D01*
X174827510Y-94849975D01*
X174668241Y-94810719D01*
X174668240Y-94810719D01*
X174504198Y-94810719D01*
X174504197Y-94810719D01*
X174344927Y-94849975D01*
X174199670Y-94926212D01*
X174076891Y-95034985D01*
X174076885Y-95034992D01*
X173983702Y-95169990D01*
X173925531Y-95323373D01*
X173925530Y-95323376D01*
X173905758Y-95486218D01*
X173905758Y-95486219D01*
X172320392Y-95486219D01*
X172446546Y-95420008D01*
X172569332Y-95311229D01*
X172662518Y-95176226D01*
X172720688Y-95022845D01*
X172740461Y-94860000D01*
X172720688Y-94697155D01*
X172662518Y-94543774D01*
X172569332Y-94408771D01*
X172569329Y-94408768D01*
X172569327Y-94408766D01*
X172446548Y-94299993D01*
X172301291Y-94223756D01*
X172142022Y-94184500D01*
X172142021Y-94184500D01*
X171977979Y-94184500D01*
X171977978Y-94184500D01*
X171818708Y-94223756D01*
X171673451Y-94299993D01*
X171550672Y-94408766D01*
X171550666Y-94408773D01*
X171457483Y-94543771D01*
X171425942Y-94626938D01*
X171383763Y-94682640D01*
X171318166Y-94706697D01*
X171249975Y-94691470D01*
X171200843Y-94641793D01*
X171194058Y-94626938D01*
X171191032Y-94618960D01*
X171162518Y-94543774D01*
X171069332Y-94408771D01*
X171069329Y-94408768D01*
X171069327Y-94408766D01*
X170946548Y-94299993D01*
X170801291Y-94223756D01*
X170642022Y-94184500D01*
X170642021Y-94184500D01*
X170477979Y-94184500D01*
X170477978Y-94184500D01*
X170318708Y-94223756D01*
X170173451Y-94299993D01*
X170050672Y-94408766D01*
X170050666Y-94408773D01*
X169957483Y-94543771D01*
X169898442Y-94699449D01*
X169856264Y-94755151D01*
X169790666Y-94779208D01*
X169722476Y-94763981D01*
X169673343Y-94714305D01*
X169666558Y-94699449D01*
X169636032Y-94618960D01*
X169607518Y-94543774D01*
X169514332Y-94408771D01*
X169514329Y-94408768D01*
X169514327Y-94408766D01*
X169391548Y-94299993D01*
X169246291Y-94223756D01*
X169087022Y-94184500D01*
X169087021Y-94184500D01*
X168922979Y-94184500D01*
X168922978Y-94184500D01*
X168763708Y-94223756D01*
X168618451Y-94299993D01*
X168495672Y-94408766D01*
X168495666Y-94408773D01*
X168402483Y-94543771D01*
X168402482Y-94543774D01*
X168398440Y-94554429D01*
X168356263Y-94610130D01*
X168290666Y-94634187D01*
X168222475Y-94618960D01*
X168173343Y-94569283D01*
X168166561Y-94554435D01*
X168162518Y-94543774D01*
X168069332Y-94408771D01*
X168069329Y-94408768D01*
X168069327Y-94408766D01*
X167946548Y-94299993D01*
X167801291Y-94223756D01*
X167642022Y-94184500D01*
X167642021Y-94184500D01*
X167477979Y-94184500D01*
X167477978Y-94184500D01*
X167318708Y-94223756D01*
X167173451Y-94299993D01*
X167050672Y-94408766D01*
X167050666Y-94408773D01*
X166957483Y-94543771D01*
X166899312Y-94697154D01*
X166899311Y-94697157D01*
X166879539Y-94859999D01*
X166879539Y-94860000D01*
X141750656Y-94860000D01*
X142194114Y-94416543D01*
X142270775Y-94301811D01*
X142271529Y-94299992D01*
X142303106Y-94223756D01*
X142323580Y-94174328D01*
X142341761Y-94082927D01*
X142350500Y-94038996D01*
X142350500Y-93685493D01*
X142369508Y-93619519D01*
X142375788Y-93609523D01*
X142375789Y-93609522D01*
X142435368Y-93439255D01*
X142443102Y-93370617D01*
X142470168Y-93306203D01*
X142527763Y-93266648D01*
X142566322Y-93260500D01*
X145123331Y-93260500D01*
X145123347Y-93260501D01*
X145130943Y-93260501D01*
X145289054Y-93260501D01*
X145289057Y-93260501D01*
X145441785Y-93219577D01*
X145502477Y-93184536D01*
X145578716Y-93140520D01*
X145690520Y-93028716D01*
X145690520Y-93028714D01*
X145700724Y-93018511D01*
X145700728Y-93018506D01*
X146230812Y-92488422D01*
X163039500Y-92488422D01*
X163070290Y-92682826D01*
X163131117Y-92870029D01*
X163220476Y-93045405D01*
X163336172Y-93204646D01*
X163475354Y-93343828D01*
X163634595Y-93459524D01*
X163717455Y-93501743D01*
X163809970Y-93548882D01*
X163809972Y-93548882D01*
X163809975Y-93548884D01*
X163910317Y-93581487D01*
X163997173Y-93609709D01*
X164191578Y-93640500D01*
X164191583Y-93640500D01*
X164388422Y-93640500D01*
X164582826Y-93609709D01*
X164591757Y-93606807D01*
X164770025Y-93548884D01*
X164945405Y-93459524D01*
X165104646Y-93343828D01*
X165243828Y-93204646D01*
X165359524Y-93045405D01*
X165448884Y-92870025D01*
X165509709Y-92682826D01*
X165531237Y-92546903D01*
X165540500Y-92488422D01*
X177539500Y-92488422D01*
X177570290Y-92682826D01*
X177631117Y-92870029D01*
X177720476Y-93045405D01*
X177836172Y-93204646D01*
X177975354Y-93343828D01*
X178134595Y-93459524D01*
X178217455Y-93501743D01*
X178309970Y-93548882D01*
X178309972Y-93548882D01*
X178309975Y-93548884D01*
X178410317Y-93581487D01*
X178497173Y-93609709D01*
X178691578Y-93640500D01*
X178691583Y-93640500D01*
X178888422Y-93640500D01*
X179082826Y-93609709D01*
X179091757Y-93606807D01*
X179270025Y-93548884D01*
X179445405Y-93459524D01*
X179604646Y-93343828D01*
X179743828Y-93204646D01*
X179859524Y-93045405D01*
X179948884Y-92870025D01*
X180009709Y-92682826D01*
X180031237Y-92546903D01*
X180040500Y-92488422D01*
X180040500Y-90491577D01*
X180009709Y-90297173D01*
X179948882Y-90109970D01*
X179882957Y-89980585D01*
X179859524Y-89934595D01*
X179743828Y-89775354D01*
X179604646Y-89636172D01*
X179445405Y-89520476D01*
X179270029Y-89431117D01*
X179082826Y-89370290D01*
X178888422Y-89339500D01*
X178888417Y-89339500D01*
X178691583Y-89339500D01*
X178691578Y-89339500D01*
X178497173Y-89370290D01*
X178309970Y-89431117D01*
X178134594Y-89520476D01*
X178046474Y-89584500D01*
X177975354Y-89636172D01*
X177975352Y-89636174D01*
X177975351Y-89636174D01*
X177836174Y-89775351D01*
X177836174Y-89775352D01*
X177836172Y-89775354D01*
X177829251Y-89784880D01*
X177720476Y-89934594D01*
X177631117Y-90109970D01*
X177570290Y-90297173D01*
X177539500Y-90491577D01*
X177539500Y-92488422D01*
X165540500Y-92488422D01*
X165540500Y-90491577D01*
X165509709Y-90297173D01*
X165448882Y-90109970D01*
X165382957Y-89980585D01*
X165359524Y-89934595D01*
X165243828Y-89775354D01*
X165104646Y-89636172D01*
X164945405Y-89520476D01*
X164770029Y-89431117D01*
X164582826Y-89370290D01*
X164388422Y-89339500D01*
X164388417Y-89339500D01*
X164191583Y-89339500D01*
X164191578Y-89339500D01*
X163997173Y-89370290D01*
X163809970Y-89431117D01*
X163634594Y-89520476D01*
X163546474Y-89584500D01*
X163475354Y-89636172D01*
X163475352Y-89636174D01*
X163475351Y-89636174D01*
X163336174Y-89775351D01*
X163336174Y-89775352D01*
X163336172Y-89775354D01*
X163329251Y-89784880D01*
X163220476Y-89934594D01*
X163131117Y-90109970D01*
X163070290Y-90297173D01*
X163039500Y-90491577D01*
X163039500Y-92488422D01*
X146230812Y-92488422D01*
X147878713Y-90840521D01*
X147878716Y-90840520D01*
X147990520Y-90728716D01*
X148040639Y-90641904D01*
X148069577Y-90591785D01*
X148110500Y-90439058D01*
X148110500Y-90280943D01*
X148110500Y-89292088D01*
X148130185Y-89225049D01*
X148182989Y-89179294D01*
X148252147Y-89169350D01*
X148292125Y-89182291D01*
X148318705Y-89196242D01*
X148477978Y-89235500D01*
X148477979Y-89235500D01*
X148642022Y-89235500D01*
X148801291Y-89196243D01*
X148801291Y-89196242D01*
X148801295Y-89196242D01*
X148946546Y-89120008D01*
X149069332Y-89011229D01*
X149162518Y-88876226D01*
X149220688Y-88722845D01*
X149240461Y-88560000D01*
X149239683Y-88553596D01*
X149230009Y-88473920D01*
X149220688Y-88397155D01*
X149162518Y-88243774D01*
X149162516Y-88243771D01*
X149159858Y-88236762D01*
X149162939Y-88235593D01*
X149152076Y-88181689D01*
X149153547Y-88172541D01*
X149154103Y-88167372D01*
X149160500Y-88107873D01*
X149160499Y-87012128D01*
X149154091Y-86952517D01*
X149138233Y-86910000D01*
X149103797Y-86817671D01*
X149103793Y-86817664D01*
X149017547Y-86702455D01*
X149017544Y-86702452D01*
X148902335Y-86616206D01*
X148902328Y-86616202D01*
X148767486Y-86565910D01*
X148767485Y-86565909D01*
X148767483Y-86565909D01*
X148707873Y-86559500D01*
X148707863Y-86559500D01*
X148312130Y-86559500D01*
X148312119Y-86559501D01*
X148273253Y-86563679D01*
X148246748Y-86563679D01*
X148207874Y-86559500D01*
X147812130Y-86559500D01*
X147812119Y-86559501D01*
X147773253Y-86563679D01*
X147746748Y-86563679D01*
X147707874Y-86559500D01*
X147312130Y-86559500D01*
X147312119Y-86559501D01*
X147273253Y-86563679D01*
X147246748Y-86563679D01*
X147207874Y-86559500D01*
X146812130Y-86559500D01*
X146812119Y-86559501D01*
X146773253Y-86563679D01*
X146746748Y-86563679D01*
X146707874Y-86559500D01*
X146312130Y-86559500D01*
X146312119Y-86559501D01*
X146273253Y-86563679D01*
X146246748Y-86563679D01*
X146207874Y-86559500D01*
X145812130Y-86559500D01*
X145812119Y-86559501D01*
X145773253Y-86563679D01*
X145746748Y-86563679D01*
X145707874Y-86559500D01*
X145312130Y-86559500D01*
X145312119Y-86559501D01*
X145273253Y-86563679D01*
X145246748Y-86563679D01*
X145207874Y-86559500D01*
X144812130Y-86559500D01*
X144812119Y-86559501D01*
X144773253Y-86563679D01*
X144746748Y-86563679D01*
X144707874Y-86559500D01*
X144312130Y-86559500D01*
X144312119Y-86559501D01*
X144273253Y-86563679D01*
X144246748Y-86563679D01*
X144207874Y-86559500D01*
X143812130Y-86559500D01*
X143812119Y-86559501D01*
X143773253Y-86563679D01*
X143746748Y-86563679D01*
X143707874Y-86559500D01*
X143312130Y-86559500D01*
X143312119Y-86559501D01*
X143273253Y-86563679D01*
X143246748Y-86563679D01*
X143207874Y-86559500D01*
X142812130Y-86559500D01*
X142812119Y-86559501D01*
X142773253Y-86563679D01*
X142746748Y-86563679D01*
X142707874Y-86559500D01*
X142312130Y-86559500D01*
X142312119Y-86559501D01*
X142273253Y-86563679D01*
X142246748Y-86563679D01*
X142207874Y-86559500D01*
X141812132Y-86559500D01*
X141812117Y-86559501D01*
X141770904Y-86563931D01*
X141744402Y-86563931D01*
X141707834Y-86560000D01*
X141660000Y-86560000D01*
X141644388Y-86575611D01*
X141640315Y-86589485D01*
X141610313Y-86621710D01*
X141558309Y-86660640D01*
X141492846Y-86685057D01*
X141424574Y-86670205D01*
X141375168Y-86620800D01*
X141360000Y-86561373D01*
X141360000Y-86560000D01*
X141312164Y-86560000D01*
X141273252Y-86564183D01*
X141246748Y-86564183D01*
X141207835Y-86560000D01*
X141160000Y-86560000D01*
X141160000Y-87410000D01*
X141235500Y-87410000D01*
X141302539Y-87429685D01*
X141348294Y-87482489D01*
X141359500Y-87534000D01*
X141359500Y-87586000D01*
X141339815Y-87653039D01*
X141287011Y-87698794D01*
X141235500Y-87710000D01*
X140660000Y-87710000D01*
X140660000Y-88560000D01*
X140707821Y-88560000D01*
X140707831Y-88559999D01*
X140746742Y-88555815D01*
X140773258Y-88555815D01*
X140812168Y-88559999D01*
X140812179Y-88560000D01*
X140845500Y-88560000D01*
X140912539Y-88579685D01*
X140958294Y-88632489D01*
X140969500Y-88684000D01*
X140969500Y-89024507D01*
X140950494Y-89090478D01*
X140944209Y-89100479D01*
X140884633Y-89270737D01*
X140884630Y-89270750D01*
X140864435Y-89449996D01*
X140864435Y-89450002D01*
X140872504Y-89521616D01*
X140860450Y-89590438D01*
X140813101Y-89641818D01*
X140749284Y-89659500D01*
X140049958Y-89659500D01*
X139992332Y-89645296D01*
X139961769Y-89629255D01*
X139951294Y-89623757D01*
X139792022Y-89584500D01*
X139792021Y-89584500D01*
X139627979Y-89584500D01*
X139627978Y-89584500D01*
X139468708Y-89623756D01*
X139323451Y-89699993D01*
X139200672Y-89808766D01*
X139200666Y-89808773D01*
X139107483Y-89943771D01*
X139049312Y-90097154D01*
X139049311Y-90097157D01*
X139029539Y-90259999D01*
X139029539Y-90260000D01*
X139049311Y-90422842D01*
X139049312Y-90422845D01*
X139055460Y-90439057D01*
X139071596Y-90481602D01*
X139076963Y-90551266D01*
X139057704Y-90596014D01*
X139007483Y-90668772D01*
X139007482Y-90668773D01*
X138965500Y-90779471D01*
X138923322Y-90835174D01*
X138857724Y-90859231D01*
X138849558Y-90859500D01*
X138549958Y-90859500D01*
X138492332Y-90845296D01*
X138472904Y-90835099D01*
X138451294Y-90823757D01*
X138292022Y-90784500D01*
X138292021Y-90784500D01*
X138127979Y-90784500D01*
X138127978Y-90784500D01*
X137968708Y-90823756D01*
X137823451Y-90899993D01*
X137700672Y-91008766D01*
X137700666Y-91008773D01*
X137607483Y-91143771D01*
X137549312Y-91297154D01*
X137549311Y-91297156D01*
X137531794Y-91441428D01*
X137504172Y-91505605D01*
X137495010Y-91515075D01*
X137492535Y-91517869D01*
X137399349Y-91652872D01*
X137341178Y-91806255D01*
X137341177Y-91806258D01*
X137323670Y-91950446D01*
X137296048Y-92014624D01*
X137238114Y-92053681D01*
X137200574Y-92059500D01*
X134449958Y-92059500D01*
X134392332Y-92045296D01*
X134372904Y-92035099D01*
X134351294Y-92023757D01*
X134192022Y-91984500D01*
X134192021Y-91984500D01*
X134027979Y-91984500D01*
X134027978Y-91984500D01*
X133868708Y-92023756D01*
X133723451Y-92099993D01*
X133600672Y-92208766D01*
X133600666Y-92208773D01*
X133507483Y-92343771D01*
X133449312Y-92497154D01*
X133449311Y-92497157D01*
X133429539Y-92659999D01*
X133429539Y-92660000D01*
X116657358Y-92660000D01*
X116544261Y-92546903D01*
X116544254Y-92546897D01*
X116349212Y-92397236D01*
X116349211Y-92397235D01*
X116349208Y-92397233D01*
X116136292Y-92274306D01*
X116136285Y-92274303D01*
X115909162Y-92180225D01*
X115909155Y-92180223D01*
X115909153Y-92180222D01*
X115671677Y-92116591D01*
X115630939Y-92111227D01*
X115427934Y-92084500D01*
X115427927Y-92084500D01*
X115182073Y-92084500D01*
X115182065Y-92084500D01*
X114950059Y-92115045D01*
X114938323Y-92116591D01*
X114700847Y-92180222D01*
X114700837Y-92180225D01*
X114473714Y-92274303D01*
X114473705Y-92274307D01*
X114260787Y-92397236D01*
X114065745Y-92546897D01*
X114065738Y-92546903D01*
X113891903Y-92720738D01*
X113891897Y-92720745D01*
X113742236Y-92915787D01*
X113619307Y-93128705D01*
X113619303Y-93128714D01*
X113525225Y-93355837D01*
X113525222Y-93355847D01*
X113461592Y-93593320D01*
X113461590Y-93593331D01*
X113429500Y-93837065D01*
X113429500Y-94082934D01*
X113448041Y-94223756D01*
X113461591Y-94326677D01*
X113499456Y-94467992D01*
X113525222Y-94564152D01*
X113525225Y-94564162D01*
X113592981Y-94727738D01*
X113619306Y-94791292D01*
X113742233Y-95004208D01*
X113742235Y-95004211D01*
X113742236Y-95004212D01*
X113891897Y-95199254D01*
X113891903Y-95199261D01*
X114065738Y-95373096D01*
X114065745Y-95373102D01*
X114126874Y-95420008D01*
X114260792Y-95522767D01*
X114473708Y-95645694D01*
X114700847Y-95739778D01*
X114938323Y-95803409D01*
X115182073Y-95835500D01*
X115182080Y-95835500D01*
X115427920Y-95835500D01*
X115427927Y-95835500D01*
X115671677Y-95803409D01*
X115909153Y-95739778D01*
X116060114Y-95677247D01*
X116129581Y-95669779D01*
X116192060Y-95701054D01*
X116227713Y-95761142D01*
X116225220Y-95830967D01*
X116201856Y-95872340D01*
X116036161Y-96066344D01*
X116036160Y-96066346D01*
X115904533Y-96281140D01*
X115808126Y-96513889D01*
X115751563Y-96749496D01*
X115749317Y-96758852D01*
X115746984Y-96788500D01*
X115722099Y-96853788D01*
X115665867Y-96895258D01*
X115596142Y-96899743D01*
X115535685Y-96866450D01*
X115527590Y-96858355D01*
X115527588Y-96858352D01*
X115408717Y-96739481D01*
X115408716Y-96739480D01*
X115321904Y-96689360D01*
X115321904Y-96689359D01*
X115321900Y-96689358D01*
X115271785Y-96660423D01*
X115119057Y-96619499D01*
X114960943Y-96619499D01*
X114953347Y-96619499D01*
X114953331Y-96619500D01*
X103610940Y-96619500D01*
X103570018Y-96630465D01*
X103533095Y-96640358D01*
X103463245Y-96638695D01*
X103405383Y-96599531D01*
X103380429Y-96549528D01*
X103371874Y-96513892D01*
X103371873Y-96513890D01*
X103275466Y-96281140D01*
X103143839Y-96066346D01*
X103143838Y-96066343D01*
X102978144Y-95872341D01*
X102949573Y-95808579D01*
X102960010Y-95739494D01*
X103006141Y-95687018D01*
X103073319Y-95667812D01*
X103119885Y-95677247D01*
X103270847Y-95739778D01*
X103508323Y-95803409D01*
X103752073Y-95835500D01*
X103752080Y-95835500D01*
X103997920Y-95835500D01*
X103997927Y-95835500D01*
X104241677Y-95803409D01*
X104479153Y-95739778D01*
X104706292Y-95645694D01*
X104919208Y-95522767D01*
X105114256Y-95373101D01*
X105288101Y-95199256D01*
X105437767Y-95004208D01*
X105560694Y-94791292D01*
X105654778Y-94564153D01*
X105718409Y-94326677D01*
X105750500Y-94082927D01*
X105750500Y-93837073D01*
X105718409Y-93593323D01*
X105654778Y-93355847D01*
X105560694Y-93128708D01*
X105437767Y-92915792D01*
X105288101Y-92720744D01*
X105288096Y-92720738D01*
X105114261Y-92546903D01*
X105114254Y-92546897D01*
X104919212Y-92397236D01*
X104919211Y-92397235D01*
X104919208Y-92397233D01*
X104706292Y-92274306D01*
X104706285Y-92274303D01*
X104479162Y-92180225D01*
X104479155Y-92180223D01*
X104479153Y-92180222D01*
X104241677Y-92116591D01*
X104200939Y-92111227D01*
X103997934Y-92084500D01*
X103997927Y-92084500D01*
X103752073Y-92084500D01*
X103752065Y-92084500D01*
X103520059Y-92115045D01*
X103508323Y-92116591D01*
X103270847Y-92180222D01*
X103270837Y-92180225D01*
X103043714Y-92274303D01*
X103043705Y-92274307D01*
X102830787Y-92397236D01*
X102635745Y-92546897D01*
X102635738Y-92546903D01*
X102461903Y-92720738D01*
X102461897Y-92720745D01*
X102312236Y-92915787D01*
X102189307Y-93128705D01*
X102189303Y-93128714D01*
X102095225Y-93355837D01*
X102095222Y-93355847D01*
X102031592Y-93593320D01*
X102031590Y-93593331D01*
X101999500Y-93837065D01*
X101999500Y-94082934D01*
X102018041Y-94223756D01*
X102031591Y-94326677D01*
X102069456Y-94467992D01*
X102095222Y-94564152D01*
X102095225Y-94564162D01*
X102162981Y-94727738D01*
X102189306Y-94791292D01*
X102312233Y-95004208D01*
X102312235Y-95004211D01*
X102312236Y-95004212D01*
X102461897Y-95199254D01*
X102461903Y-95199261D01*
X102591101Y-95328459D01*
X102624586Y-95389782D01*
X102619602Y-95459474D01*
X102577730Y-95515407D01*
X102512266Y-95539824D01*
X102455968Y-95530701D01*
X102341113Y-95483127D01*
X102096151Y-95424317D01*
X101845000Y-95404551D01*
X101593848Y-95424317D01*
X101348889Y-95483126D01*
X101116140Y-95579533D01*
X100901346Y-95711160D01*
X100901343Y-95711161D01*
X100709776Y-95874776D01*
X100546161Y-96066343D01*
X100546160Y-96066346D01*
X100414533Y-96281140D01*
X100318126Y-96513889D01*
X100259317Y-96758848D01*
X100239551Y-97010000D01*
X96740500Y-97010000D01*
X96740500Y-89880001D01*
X101654532Y-89880001D01*
X101674364Y-90106686D01*
X101674366Y-90106697D01*
X101733258Y-90326488D01*
X101733261Y-90326497D01*
X101829431Y-90532732D01*
X101829432Y-90532734D01*
X101959954Y-90719141D01*
X102120858Y-90880045D01*
X102120861Y-90880047D01*
X102307266Y-91010568D01*
X102513504Y-91106739D01*
X102733308Y-91165635D01*
X102895230Y-91179801D01*
X102959998Y-91185468D01*
X102960000Y-91185468D01*
X102960002Y-91185468D01*
X103016673Y-91180509D01*
X103186692Y-91165635D01*
X103406496Y-91106739D01*
X103612734Y-91010568D01*
X103799139Y-90880047D01*
X103960047Y-90719139D01*
X104090568Y-90532734D01*
X104117618Y-90474724D01*
X104163790Y-90422285D01*
X104230983Y-90403133D01*
X104297865Y-90423348D01*
X104342382Y-90474725D01*
X104369429Y-90532728D01*
X104369432Y-90532734D01*
X104499954Y-90719141D01*
X104660858Y-90880045D01*
X104660861Y-90880047D01*
X104847266Y-91010568D01*
X105053504Y-91106739D01*
X105273308Y-91165635D01*
X105435230Y-91179801D01*
X105499998Y-91185468D01*
X105500000Y-91185468D01*
X105500002Y-91185468D01*
X105556673Y-91180509D01*
X105726692Y-91165635D01*
X105946496Y-91106739D01*
X106152734Y-91010568D01*
X106339139Y-90880047D01*
X106500047Y-90719139D01*
X106630568Y-90532734D01*
X106726739Y-90326496D01*
X106785635Y-90106692D01*
X106805468Y-89880001D01*
X112374532Y-89880001D01*
X112394364Y-90106686D01*
X112394366Y-90106697D01*
X112453258Y-90326488D01*
X112453261Y-90326497D01*
X112549431Y-90532732D01*
X112549432Y-90532734D01*
X112679954Y-90719141D01*
X112840858Y-90880045D01*
X112840861Y-90880047D01*
X113027266Y-91010568D01*
X113233504Y-91106739D01*
X113453308Y-91165635D01*
X113615230Y-91179801D01*
X113679998Y-91185468D01*
X113680000Y-91185468D01*
X113680002Y-91185468D01*
X113736673Y-91180509D01*
X113906692Y-91165635D01*
X114126496Y-91106739D01*
X114332734Y-91010568D01*
X114519139Y-90880047D01*
X114680047Y-90719139D01*
X114810568Y-90532734D01*
X114837618Y-90474724D01*
X114883790Y-90422285D01*
X114950983Y-90403133D01*
X115017865Y-90423348D01*
X115062382Y-90474725D01*
X115089429Y-90532728D01*
X115089432Y-90532734D01*
X115219954Y-90719141D01*
X115380858Y-90880045D01*
X115380861Y-90880047D01*
X115567266Y-91010568D01*
X115773504Y-91106739D01*
X115993308Y-91165635D01*
X116155230Y-91179801D01*
X116219998Y-91185468D01*
X116220000Y-91185468D01*
X116220002Y-91185468D01*
X116276673Y-91180509D01*
X116446692Y-91165635D01*
X116666496Y-91106739D01*
X116872734Y-91010568D01*
X117059139Y-90880047D01*
X117220047Y-90719139D01*
X117350568Y-90532734D01*
X117446739Y-90326496D01*
X117505635Y-90106692D01*
X117525468Y-89880000D01*
X117521121Y-89830319D01*
X117506333Y-89661287D01*
X117505635Y-89653308D01*
X117446739Y-89433504D01*
X117350568Y-89227266D01*
X117220047Y-89040861D01*
X117220045Y-89040858D01*
X117059141Y-88879954D01*
X116872734Y-88749432D01*
X116872732Y-88749431D01*
X116666497Y-88653261D01*
X116666488Y-88653258D01*
X116446697Y-88594366D01*
X116446693Y-88594365D01*
X116446692Y-88594365D01*
X116446691Y-88594364D01*
X116446686Y-88594364D01*
X116220002Y-88574532D01*
X116219998Y-88574532D01*
X115993313Y-88594364D01*
X115993302Y-88594366D01*
X115773511Y-88653258D01*
X115773502Y-88653261D01*
X115567267Y-88749431D01*
X115567265Y-88749432D01*
X115380858Y-88879954D01*
X115219954Y-89040858D01*
X115089432Y-89227265D01*
X115089431Y-89227267D01*
X115062382Y-89285275D01*
X115016209Y-89337714D01*
X114949016Y-89356866D01*
X114882135Y-89336650D01*
X114837618Y-89285275D01*
X114830845Y-89270750D01*
X114810568Y-89227266D01*
X114680047Y-89040861D01*
X114680045Y-89040858D01*
X114519141Y-88879954D01*
X114332734Y-88749432D01*
X114332732Y-88749431D01*
X114126497Y-88653261D01*
X114126488Y-88653258D01*
X113906697Y-88594366D01*
X113906693Y-88594365D01*
X113906692Y-88594365D01*
X113906691Y-88594364D01*
X113906686Y-88594364D01*
X113680002Y-88574532D01*
X113679998Y-88574532D01*
X113453313Y-88594364D01*
X113453302Y-88594366D01*
X113233511Y-88653258D01*
X113233502Y-88653261D01*
X113027267Y-88749431D01*
X113027265Y-88749432D01*
X112840858Y-88879954D01*
X112679954Y-89040858D01*
X112549432Y-89227265D01*
X112549431Y-89227267D01*
X112453261Y-89433502D01*
X112453258Y-89433511D01*
X112394366Y-89653302D01*
X112394364Y-89653313D01*
X112374532Y-89879998D01*
X112374532Y-89880001D01*
X106805468Y-89880001D01*
X106805468Y-89880000D01*
X106801121Y-89830319D01*
X106786333Y-89661287D01*
X106785635Y-89653308D01*
X106726739Y-89433504D01*
X106630568Y-89227266D01*
X106500047Y-89040861D01*
X106500045Y-89040858D01*
X106339141Y-88879954D01*
X106152734Y-88749432D01*
X106152732Y-88749431D01*
X105946497Y-88653261D01*
X105946488Y-88653258D01*
X105726697Y-88594366D01*
X105726693Y-88594365D01*
X105726692Y-88594365D01*
X105726691Y-88594364D01*
X105726686Y-88594364D01*
X105500002Y-88574532D01*
X105499998Y-88574532D01*
X105273313Y-88594364D01*
X105273302Y-88594366D01*
X105053511Y-88653258D01*
X105053502Y-88653261D01*
X104847267Y-88749431D01*
X104847265Y-88749432D01*
X104660858Y-88879954D01*
X104499954Y-89040858D01*
X104369432Y-89227265D01*
X104369431Y-89227267D01*
X104342382Y-89285275D01*
X104296209Y-89337714D01*
X104229016Y-89356866D01*
X104162135Y-89336650D01*
X104117618Y-89285275D01*
X104110845Y-89270750D01*
X104090568Y-89227266D01*
X103960047Y-89040861D01*
X103960045Y-89040858D01*
X103799141Y-88879954D01*
X103612734Y-88749432D01*
X103612732Y-88749431D01*
X103406497Y-88653261D01*
X103406488Y-88653258D01*
X103186697Y-88594366D01*
X103186693Y-88594365D01*
X103186692Y-88594365D01*
X103186691Y-88594364D01*
X103186686Y-88594364D01*
X102960002Y-88574532D01*
X102959998Y-88574532D01*
X102733313Y-88594364D01*
X102733302Y-88594366D01*
X102513511Y-88653258D01*
X102513502Y-88653261D01*
X102307267Y-88749431D01*
X102307265Y-88749432D01*
X102120858Y-88879954D01*
X101959954Y-89040858D01*
X101829432Y-89227265D01*
X101829431Y-89227267D01*
X101733261Y-89433502D01*
X101733258Y-89433511D01*
X101674366Y-89653302D01*
X101674364Y-89653313D01*
X101654532Y-89879998D01*
X101654532Y-89880001D01*
X96740500Y-89880001D01*
X96740500Y-86031318D01*
X122809500Y-86031318D01*
X122847858Y-86371768D01*
X122847861Y-86371782D01*
X122924102Y-86705816D01*
X122924103Y-86705818D01*
X123037264Y-87029216D01*
X123185922Y-87337907D01*
X123185924Y-87337910D01*
X123368211Y-87628018D01*
X123581834Y-87895893D01*
X123824107Y-88138166D01*
X124091982Y-88351789D01*
X124382090Y-88534076D01*
X124382092Y-88534077D01*
X124435922Y-88560000D01*
X124690785Y-88682736D01*
X125014183Y-88795897D01*
X125348217Y-88872139D01*
X125348226Y-88872140D01*
X125348231Y-88872141D01*
X125575197Y-88897713D01*
X125688682Y-88910499D01*
X125688685Y-88910500D01*
X125688688Y-88910500D01*
X126031315Y-88910500D01*
X126031316Y-88910499D01*
X126205311Y-88890895D01*
X126371768Y-88872141D01*
X126371771Y-88872140D01*
X126371783Y-88872139D01*
X126705817Y-88795897D01*
X127029215Y-88682736D01*
X127337910Y-88534076D01*
X127628018Y-88351789D01*
X127895893Y-88138166D01*
X128138166Y-87895893D01*
X128286411Y-87710000D01*
X138360000Y-87710000D01*
X138360000Y-88107844D01*
X138366401Y-88167372D01*
X138366403Y-88167379D01*
X138416645Y-88302086D01*
X138416649Y-88302093D01*
X138502809Y-88417187D01*
X138502812Y-88417190D01*
X138617906Y-88503350D01*
X138617913Y-88503354D01*
X138752620Y-88553596D01*
X138752627Y-88553598D01*
X138812155Y-88559999D01*
X138812172Y-88560000D01*
X138860000Y-88560000D01*
X138860000Y-87710000D01*
X139160000Y-87710000D01*
X139160000Y-88560000D01*
X139207821Y-88560000D01*
X139207831Y-88559999D01*
X139246742Y-88555815D01*
X139273258Y-88555815D01*
X139312168Y-88559999D01*
X139312179Y-88560000D01*
X139360000Y-88560000D01*
X139360000Y-87710000D01*
X139660000Y-87710000D01*
X139660000Y-88560000D01*
X139707821Y-88560000D01*
X139707831Y-88559999D01*
X139746742Y-88555815D01*
X139773258Y-88555815D01*
X139812168Y-88559999D01*
X139812179Y-88560000D01*
X139860000Y-88560000D01*
X139860000Y-87710000D01*
X140160000Y-87710000D01*
X140160000Y-88560000D01*
X140207821Y-88560000D01*
X140207831Y-88559999D01*
X140246742Y-88555815D01*
X140273258Y-88555815D01*
X140312168Y-88559999D01*
X140312179Y-88560000D01*
X140360000Y-88560000D01*
X140360000Y-87710000D01*
X140160000Y-87710000D01*
X139860000Y-87710000D01*
X139660000Y-87710000D01*
X139360000Y-87710000D01*
X139160000Y-87710000D01*
X138860000Y-87710000D01*
X138360000Y-87710000D01*
X128286411Y-87710000D01*
X128351789Y-87628018D01*
X128488779Y-87410000D01*
X138360000Y-87410000D01*
X138860000Y-87410000D01*
X138860000Y-86560000D01*
X139160000Y-86560000D01*
X139160000Y-87410000D01*
X139360000Y-87410000D01*
X139360000Y-86560000D01*
X139660000Y-86560000D01*
X139660000Y-87410000D01*
X139860000Y-87410000D01*
X139860000Y-86560000D01*
X140160000Y-86560000D01*
X140160000Y-87410000D01*
X140360000Y-87410000D01*
X140360000Y-86560000D01*
X140660000Y-86560000D01*
X140660000Y-87410000D01*
X140860000Y-87410000D01*
X140860000Y-86560000D01*
X140812164Y-86560000D01*
X140773252Y-86564183D01*
X140746748Y-86564183D01*
X140707835Y-86560000D01*
X140660000Y-86560000D01*
X140360000Y-86560000D01*
X140312164Y-86560000D01*
X140273252Y-86564183D01*
X140246748Y-86564183D01*
X140207835Y-86560000D01*
X140160000Y-86560000D01*
X139860000Y-86560000D01*
X139812164Y-86560000D01*
X139773252Y-86564183D01*
X139746748Y-86564183D01*
X139707835Y-86560000D01*
X139660000Y-86560000D01*
X139360000Y-86560000D01*
X139312164Y-86560000D01*
X139273252Y-86564183D01*
X139246748Y-86564183D01*
X139207835Y-86560000D01*
X139160000Y-86560000D01*
X138860000Y-86560000D01*
X138812155Y-86560000D01*
X138752627Y-86566401D01*
X138752620Y-86566403D01*
X138617913Y-86616645D01*
X138617906Y-86616649D01*
X138502812Y-86702809D01*
X138502809Y-86702812D01*
X138416649Y-86817906D01*
X138416645Y-86817913D01*
X138366403Y-86952620D01*
X138366401Y-86952627D01*
X138360000Y-87012155D01*
X138360000Y-87410000D01*
X128488779Y-87410000D01*
X128534076Y-87337910D01*
X128682736Y-87029215D01*
X128795897Y-86705817D01*
X128872139Y-86371783D01*
X128873707Y-86357873D01*
X128873707Y-86357870D01*
X135409500Y-86357870D01*
X135409501Y-86357876D01*
X135415908Y-86417483D01*
X135466202Y-86552328D01*
X135466206Y-86552335D01*
X135552452Y-86667544D01*
X135552455Y-86667547D01*
X135667664Y-86753793D01*
X135667671Y-86753797D01*
X135802517Y-86804091D01*
X135802516Y-86804091D01*
X135809444Y-86804835D01*
X135862127Y-86810500D01*
X137607872Y-86810499D01*
X137667483Y-86804091D01*
X137802331Y-86753796D01*
X137917546Y-86667546D01*
X138003796Y-86552331D01*
X138054091Y-86417483D01*
X138060500Y-86357873D01*
X138060500Y-86357870D01*
X149459500Y-86357870D01*
X149459501Y-86357876D01*
X149465908Y-86417483D01*
X149516202Y-86552328D01*
X149516206Y-86552335D01*
X149602452Y-86667544D01*
X149602455Y-86667547D01*
X149717664Y-86753793D01*
X149717671Y-86753797D01*
X149852517Y-86804091D01*
X149852516Y-86804091D01*
X149859444Y-86804835D01*
X149912127Y-86810500D01*
X151657872Y-86810499D01*
X151717483Y-86804091D01*
X151852331Y-86753796D01*
X151967546Y-86667546D01*
X152053796Y-86552331D01*
X152104091Y-86417483D01*
X152110500Y-86357873D01*
X152110500Y-86031318D01*
X155809500Y-86031318D01*
X155847858Y-86371768D01*
X155847861Y-86371782D01*
X155924102Y-86705816D01*
X155924103Y-86705818D01*
X156037264Y-87029216D01*
X156185922Y-87337907D01*
X156185924Y-87337910D01*
X156368211Y-87628018D01*
X156581834Y-87895893D01*
X156824107Y-88138166D01*
X157091982Y-88351789D01*
X157382090Y-88534076D01*
X157382092Y-88534077D01*
X157435922Y-88560000D01*
X157690785Y-88682736D01*
X158014183Y-88795897D01*
X158348217Y-88872139D01*
X158348226Y-88872140D01*
X158348231Y-88872141D01*
X158575197Y-88897713D01*
X158688682Y-88910499D01*
X158688685Y-88910500D01*
X158688688Y-88910500D01*
X159031315Y-88910500D01*
X159031316Y-88910499D01*
X159205311Y-88890895D01*
X159371768Y-88872141D01*
X159371771Y-88872140D01*
X159371783Y-88872139D01*
X159705817Y-88795897D01*
X160029215Y-88682736D01*
X160337910Y-88534076D01*
X160628018Y-88351789D01*
X160895893Y-88138166D01*
X161138166Y-87895893D01*
X161351789Y-87628018D01*
X161534076Y-87337910D01*
X161682736Y-87029215D01*
X161795897Y-86705817D01*
X161872139Y-86371783D01*
X161873707Y-86357873D01*
X161910499Y-86031318D01*
X161910500Y-86031314D01*
X161910500Y-86028422D01*
X163039500Y-86028422D01*
X163070290Y-86222826D01*
X163131117Y-86410029D01*
X163209663Y-86564183D01*
X163220476Y-86585405D01*
X163336172Y-86744646D01*
X163475354Y-86883828D01*
X163634595Y-86999524D01*
X163692869Y-87029216D01*
X163809970Y-87088882D01*
X163809972Y-87088882D01*
X163809975Y-87088884D01*
X163910317Y-87121487D01*
X163997173Y-87149709D01*
X164191578Y-87180500D01*
X164191583Y-87180500D01*
X164388422Y-87180500D01*
X164582826Y-87149709D01*
X164770025Y-87088884D01*
X164945405Y-86999524D01*
X165104646Y-86883828D01*
X165243828Y-86744646D01*
X165359524Y-86585405D01*
X165448884Y-86410025D01*
X165509709Y-86222826D01*
X165540041Y-86031318D01*
X165540500Y-86028422D01*
X177539500Y-86028422D01*
X177570290Y-86222826D01*
X177631117Y-86410029D01*
X177709663Y-86564183D01*
X177720476Y-86585405D01*
X177836172Y-86744646D01*
X177975354Y-86883828D01*
X178134595Y-86999524D01*
X178192869Y-87029216D01*
X178309970Y-87088882D01*
X178309972Y-87088882D01*
X178309975Y-87088884D01*
X178410317Y-87121487D01*
X178497173Y-87149709D01*
X178691578Y-87180500D01*
X178691583Y-87180500D01*
X178888422Y-87180500D01*
X179082826Y-87149709D01*
X179270025Y-87088884D01*
X179445405Y-86999524D01*
X179568621Y-86910002D01*
X182934652Y-86910002D01*
X182954028Y-87267368D01*
X182954029Y-87267385D01*
X183011926Y-87620539D01*
X183011932Y-87620565D01*
X183107672Y-87965392D01*
X183107674Y-87965399D01*
X183240142Y-88297870D01*
X183240151Y-88297888D01*
X183407784Y-88614077D01*
X183407787Y-88614082D01*
X183407789Y-88614085D01*
X183608631Y-88910305D01*
X183608641Y-88910319D01*
X183840331Y-89183085D01*
X183840332Y-89183086D01*
X184100163Y-89429211D01*
X184100170Y-89429216D01*
X184100172Y-89429218D01*
X184127051Y-89449651D01*
X184385081Y-89645800D01*
X184691747Y-89830315D01*
X184691749Y-89830316D01*
X184691751Y-89830317D01*
X184691755Y-89830319D01*
X184917146Y-89934595D01*
X185016565Y-89980591D01*
X185355726Y-90094868D01*
X185705254Y-90171805D01*
X186061052Y-90210500D01*
X186061058Y-90210500D01*
X186418942Y-90210500D01*
X186418948Y-90210500D01*
X186774746Y-90171805D01*
X187124274Y-90094868D01*
X187463435Y-89980591D01*
X187788253Y-89830315D01*
X188094919Y-89645800D01*
X188379837Y-89429211D01*
X188639668Y-89183086D01*
X188871365Y-88910311D01*
X189072211Y-88614085D01*
X189239853Y-88297880D01*
X189372324Y-87965403D01*
X189468071Y-87620552D01*
X189525972Y-87267371D01*
X189545348Y-86910000D01*
X189525972Y-86552629D01*
X189525923Y-86552331D01*
X189468073Y-86199460D01*
X189468072Y-86199459D01*
X189468071Y-86199448D01*
X189421389Y-86031314D01*
X189372327Y-85854607D01*
X189372325Y-85854600D01*
X189239857Y-85522129D01*
X189239848Y-85522111D01*
X189072215Y-85205922D01*
X189072213Y-85205919D01*
X189072211Y-85205915D01*
X188871365Y-84909689D01*
X188871361Y-84909684D01*
X188871358Y-84909680D01*
X188639668Y-84636914D01*
X188565018Y-84566202D01*
X188379837Y-84390789D01*
X188379830Y-84390783D01*
X188379827Y-84390781D01*
X188280600Y-84315351D01*
X188094919Y-84174200D01*
X187788253Y-83989685D01*
X187788252Y-83989684D01*
X187788248Y-83989682D01*
X187788244Y-83989680D01*
X187463447Y-83839414D01*
X187463441Y-83839411D01*
X187463435Y-83839409D01*
X187293854Y-83782270D01*
X187124273Y-83725131D01*
X186774744Y-83648194D01*
X186418949Y-83609500D01*
X186418948Y-83609500D01*
X186061052Y-83609500D01*
X186061050Y-83609500D01*
X185705255Y-83648194D01*
X185355726Y-83725131D01*
X185099970Y-83811306D01*
X185016565Y-83839409D01*
X185016563Y-83839410D01*
X185016552Y-83839414D01*
X184691755Y-83989680D01*
X184691751Y-83989682D01*
X184463367Y-84127096D01*
X184385081Y-84174200D01*
X184296768Y-84241333D01*
X184100172Y-84390781D01*
X184100163Y-84390789D01*
X183840331Y-84636914D01*
X183608641Y-84909680D01*
X183608634Y-84909690D01*
X183407790Y-85205913D01*
X183407784Y-85205922D01*
X183240151Y-85522111D01*
X183240142Y-85522129D01*
X183107674Y-85854600D01*
X183107672Y-85854607D01*
X183011932Y-86199434D01*
X183011926Y-86199460D01*
X182954029Y-86552614D01*
X182954028Y-86552627D01*
X182954028Y-86552629D01*
X182953628Y-86560000D01*
X182934652Y-86909997D01*
X182934652Y-86910002D01*
X179568621Y-86910002D01*
X179604646Y-86883828D01*
X179743828Y-86744646D01*
X179859524Y-86585405D01*
X179948884Y-86410025D01*
X180009709Y-86222826D01*
X180040041Y-86031318D01*
X180040500Y-86028422D01*
X180040500Y-85031577D01*
X180009709Y-84837173D01*
X179962143Y-84690783D01*
X179948884Y-84649975D01*
X179948882Y-84649972D01*
X179948882Y-84649970D01*
X179859523Y-84474594D01*
X179743828Y-84315354D01*
X179604646Y-84176172D01*
X179445405Y-84060476D01*
X179270029Y-83971117D01*
X179082826Y-83910290D01*
X178888422Y-83879500D01*
X178888417Y-83879500D01*
X178691583Y-83879500D01*
X178691578Y-83879500D01*
X178497173Y-83910290D01*
X178309970Y-83971117D01*
X178134594Y-84060476D01*
X178043741Y-84126485D01*
X177975354Y-84176172D01*
X177975352Y-84176174D01*
X177975351Y-84176174D01*
X177836174Y-84315351D01*
X177836174Y-84315352D01*
X177836172Y-84315354D01*
X177787685Y-84382090D01*
X177720476Y-84474594D01*
X177631117Y-84649970D01*
X177570290Y-84837173D01*
X177539500Y-85031577D01*
X177539500Y-86028422D01*
X165540500Y-86028422D01*
X165540500Y-85031577D01*
X165509709Y-84837173D01*
X165462143Y-84690783D01*
X165448884Y-84649975D01*
X165448882Y-84649972D01*
X165448882Y-84649970D01*
X165359523Y-84474594D01*
X165243828Y-84315354D01*
X165104646Y-84176172D01*
X164945405Y-84060476D01*
X164770029Y-83971117D01*
X164582826Y-83910290D01*
X164388422Y-83879500D01*
X164388417Y-83879500D01*
X164191583Y-83879500D01*
X164191578Y-83879500D01*
X163997173Y-83910290D01*
X163809970Y-83971117D01*
X163634594Y-84060476D01*
X163543741Y-84126485D01*
X163475354Y-84176172D01*
X163475352Y-84176174D01*
X163475351Y-84176174D01*
X163336174Y-84315351D01*
X163336174Y-84315352D01*
X163336172Y-84315354D01*
X163287685Y-84382090D01*
X163220476Y-84474594D01*
X163131117Y-84649970D01*
X163070290Y-84837173D01*
X163039500Y-85031577D01*
X163039500Y-86028422D01*
X161910500Y-86028422D01*
X161910500Y-85688685D01*
X161910499Y-85688681D01*
X161872141Y-85348231D01*
X161872140Y-85348226D01*
X161872139Y-85348217D01*
X161795897Y-85014183D01*
X161682736Y-84690785D01*
X161534076Y-84382090D01*
X161351789Y-84091982D01*
X161138166Y-83824107D01*
X160895893Y-83581834D01*
X160628018Y-83368211D01*
X160337910Y-83185924D01*
X160337907Y-83185922D01*
X160029216Y-83037264D01*
X159705818Y-82924103D01*
X159705816Y-82924102D01*
X159448024Y-82865262D01*
X159371783Y-82847861D01*
X159371780Y-82847860D01*
X159371768Y-82847858D01*
X159031318Y-82809500D01*
X159031312Y-82809500D01*
X158688688Y-82809500D01*
X158688681Y-82809500D01*
X158348231Y-82847858D01*
X158348217Y-82847861D01*
X158014183Y-82924102D01*
X158014181Y-82924103D01*
X157690783Y-83037264D01*
X157382092Y-83185922D01*
X157091983Y-83368210D01*
X156824107Y-83581833D01*
X156581833Y-83824107D01*
X156368210Y-84091983D01*
X156185922Y-84382092D01*
X156037264Y-84690783D01*
X155924103Y-85014181D01*
X155924102Y-85014183D01*
X155847861Y-85348217D01*
X155847858Y-85348231D01*
X155809500Y-85688681D01*
X155809500Y-86031318D01*
X152110500Y-86031318D01*
X152110499Y-84962128D01*
X152104091Y-84902517D01*
X152079719Y-84837173D01*
X152053797Y-84767671D01*
X152053793Y-84767664D01*
X151967547Y-84652455D01*
X151967544Y-84652452D01*
X151852335Y-84566206D01*
X151852328Y-84566202D01*
X151717482Y-84515908D01*
X151717483Y-84515908D01*
X151657883Y-84509501D01*
X151657881Y-84509500D01*
X151657873Y-84509500D01*
X151657864Y-84509500D01*
X149912129Y-84509500D01*
X149912123Y-84509501D01*
X149852516Y-84515908D01*
X149717671Y-84566202D01*
X149717664Y-84566206D01*
X149602455Y-84652452D01*
X149602452Y-84652455D01*
X149516206Y-84767664D01*
X149516202Y-84767671D01*
X149465908Y-84902517D01*
X149459501Y-84962116D01*
X149459501Y-84962123D01*
X149459500Y-84962135D01*
X149459500Y-86357870D01*
X138060500Y-86357870D01*
X138060499Y-84962128D01*
X138054091Y-84902517D01*
X138029719Y-84837173D01*
X138003797Y-84767671D01*
X138003793Y-84767664D01*
X137917547Y-84652455D01*
X137917544Y-84652452D01*
X137802335Y-84566206D01*
X137802328Y-84566202D01*
X137667482Y-84515908D01*
X137667483Y-84515908D01*
X137607883Y-84509501D01*
X137607881Y-84509500D01*
X137607873Y-84509500D01*
X137607864Y-84509500D01*
X135862129Y-84509500D01*
X135862123Y-84509501D01*
X135802516Y-84515908D01*
X135667671Y-84566202D01*
X135667664Y-84566206D01*
X135552455Y-84652452D01*
X135552452Y-84652455D01*
X135466206Y-84767664D01*
X135466202Y-84767671D01*
X135415908Y-84902517D01*
X135409501Y-84962116D01*
X135409501Y-84962123D01*
X135409500Y-84962135D01*
X135409500Y-86357870D01*
X128873707Y-86357870D01*
X128910499Y-86031318D01*
X128910500Y-86031314D01*
X128910500Y-85688685D01*
X128910499Y-85688681D01*
X128872141Y-85348231D01*
X128872140Y-85348226D01*
X128872139Y-85348217D01*
X128795897Y-85014183D01*
X128682736Y-84690785D01*
X128534076Y-84382090D01*
X128351789Y-84091982D01*
X128138166Y-83824107D01*
X127895893Y-83581834D01*
X127628018Y-83368211D01*
X127337910Y-83185924D01*
X127337907Y-83185922D01*
X127029216Y-83037264D01*
X126705818Y-82924103D01*
X126705816Y-82924102D01*
X126448024Y-82865262D01*
X126371783Y-82847861D01*
X126371780Y-82847860D01*
X126371768Y-82847858D01*
X126031318Y-82809500D01*
X126031312Y-82809500D01*
X125688688Y-82809500D01*
X125688681Y-82809500D01*
X125348231Y-82847858D01*
X125348217Y-82847861D01*
X125014183Y-82924102D01*
X125014181Y-82924103D01*
X124690783Y-83037264D01*
X124382092Y-83185922D01*
X124091983Y-83368210D01*
X123824107Y-83581833D01*
X123581833Y-83824107D01*
X123368210Y-84091983D01*
X123185922Y-84382092D01*
X123037264Y-84690783D01*
X122924103Y-85014181D01*
X122924102Y-85014183D01*
X122847861Y-85348217D01*
X122847858Y-85348231D01*
X122809500Y-85688681D01*
X122809500Y-86031318D01*
X96740500Y-86031318D01*
X96740500Y-82534500D01*
X96760185Y-82467461D01*
X96812989Y-82421706D01*
X96864500Y-82410500D01*
X190615500Y-82410500D01*
X190682539Y-82430185D01*
G37*
%TD.AperFunction*%
%TD*%
M02*
