M48
; DRILL file {KiCad 8.0.1} date 2024-06-09T20:13:58+0200
; FORMAT={-:-/ absolute / inch / decimal}
; #@! TF.CreationDate,2024-06-09T20:13:58+02:00
; #@! TF.GenerationSoftware,Kicad,Pcbnew,8.0.1
; #@! TF.FileFunction,Plated,1,4,PTH
FMAT,2
INCH
; #@! TA.AperFunction,Plated,PTH,ViaDrill
T1C0.0079
; #@! TA.AperFunction,Plated,PTH,ViaDrill
T2C0.0118
; #@! TA.AperFunction,Plated,PTH,ComponentDrill
T3C0.0197
; #@! TA.AperFunction,Plated,PTH,ComponentDrill
T4C0.0354
; #@! TA.AperFunction,Plated,PTH,ComponentDrill
T5C0.0402
; #@! TA.AperFunction,Plated,PTH,ComponentDrill
T6C0.0630
; #@! TA.AperFunction,Plated,PTH,ComponentDrill
T7C0.1260
%
G90
G05
T1
X3.9866Y-4.3385
X4.2543Y-4.2701
X4.463Y-4.278
X5.2799Y-3.648
X5.4331Y-3.6208
X5.4413Y-3.6008
X5.4965Y-3.5821
X5.5004Y-3.5535
X5.6087Y-3.4866
X5.648Y-3.4866
X5.6874Y-3.4866
X5.7268Y-3.4866
X5.7701Y-3.4866
X5.7877Y-3.5079
X5.8488Y-3.4866
X6.5969Y-3.7346
X6.6537Y-3.7346
X6.715Y-3.7346
X6.774Y-3.7346
X6.8735Y-3.7593
T2
X4.148Y-4.3055
X4.2232Y-4.515
X4.3346Y-4.6929
X4.352Y-4.2579
X4.3528Y-4.3016
X4.3657Y-4.224
X4.3937Y-4.6929
X4.3937Y-4.752
X4.3937Y-4.811
X4.3937Y-4.8701
X4.3937Y-4.9291
X4.4528Y-4.6929
X4.4528Y-4.752
X4.4528Y-4.811
X4.4528Y-4.8701
X4.4528Y-4.9291
X4.5161Y-4.774
X4.5972Y-4.7819
X4.6151Y-3.9571
X4.6357Y-4.2164
X4.6394Y-4.4217
X4.6693Y-4.0531
X4.6738Y-4.0152
X4.7571Y-4.0626
X4.7854Y-4.0215
X4.7913Y-4.2059
X4.792Y-4.0616
X4.7937Y-4.7701
X4.7947Y-4.8419
X4.8193Y-4.022
X4.8244Y-4.3323
X4.8429Y-3.8409
X4.8468Y-4.715
X4.8492Y-4.652
X4.8492Y-4.6835
X4.9055Y-4.0854
X4.9055Y-4.211
X4.9055Y-4.2898
X4.9059Y-4.1327
X4.9059Y-4.4945
X4.9059Y-4.5417
X4.9059Y-4.589
X4.9059Y-4.0378
X4.906Y-4.6361
X4.9063Y-4.4476
X4.9067Y-4.3685
X4.9315Y-4.1685
X4.9465Y-4.2063
X4.9634Y-4.0378
X4.9634Y-4.085
X4.9634Y-4.1323
X4.9634Y-4.274
X4.9634Y-4.3528
X4.9634Y-4.4315
X4.9634Y-4.4945
X4.9634Y-4.5417
X4.9634Y-4.6047
X4.9634Y-4.7937
X5.1004Y-4.6831
X5.1973Y-5.0535
X5.2183Y-4.5663
X5.3232Y-5.1362
X5.5272Y-3.7492
X5.5768Y-3.6717
X5.5776Y-3.5217
X6.2416Y-4.3216
X6.2425Y-4.085
X6.2425Y-4.1323
X6.2425Y-4.1795
X6.2425Y-4.2268
X6.2425Y-4.274
X6.2425Y-4.463
X6.2425Y-4.5102
X6.2425Y-4.5575
X6.2425Y-4.6047
X6.2425Y-4.652
X6.2425Y-4.6992
X6.2425Y-4.7465
X6.2425Y-4.7937
X6.3016Y-4.1323
X6.3016Y-4.1795
X6.3016Y-4.2268
X6.3016Y-4.274
X6.3016Y-4.3213
X6.3016Y-4.3685
X6.3016Y-4.4157
X6.3016Y-4.463
X6.3016Y-4.5102
X6.3016Y-4.5575
X6.3016Y-4.6047
X6.3016Y-4.652
X6.3016Y-4.6992
X6.3016Y-4.7465
X6.3016Y-4.7937
X6.3033Y-4.0848
X6.7205Y-4.0831
X6.7508Y-4.0831
X6.9Y-3.9354
X6.9039Y-4.1362
X6.9039Y-4.215
X6.9039Y-4.2937
T3
X3.9866Y-4.5417
X3.9866Y-4.6362
X4.0791Y-4.6362
X4.0811Y-4.5417
T4
X4.0896Y-3.9492
X4.1396Y-4.0492
X4.1896Y-3.9492
X4.2396Y-4.0492
X4.2896Y-3.9492
X4.3396Y-4.0492
X4.3896Y-3.9492
X4.4396Y-4.0492
X4.4896Y-3.9492
X4.5396Y-4.0492
T5
X4.0535Y-3.5386
X4.1535Y-3.5386
X4.4756Y-3.5386
X4.5756Y-3.5386
T6
X4.0096Y-3.8193
X4.6195Y-3.8193
T7
X3.9858Y-5.3114
X7.3323Y-3.4217
X7.3323Y-5.3114
T4
G00X6.4681Y-3.3831
M15
G01X6.4681Y-3.3516
M16
G05
G00X6.4681Y-3.6374
M15
G01X6.4681Y-3.5665
M16
G05
G00X7.039Y-3.3831
M15
G01X7.039Y-3.3516
M16
G05
G00X7.039Y-3.6374
M15
G01X7.039Y-3.5665
M16
G05
M30
