M48
; DRILL file {KiCad 8.0.1} date 2024-06-09T19:14:16+0200
; FORMAT={-:-/ absolute / inch / decimal}
; #@! TF.CreationDate,2024-06-09T19:14:16+02:00
; #@! TF.GenerationSoftware,Kicad,Pcbnew,8.0.1
; #@! TF.FileFunction,Plated,1,6,PTH
FMAT,2
INCH
; #@! TA.AperFunction,Plated,PTH,ViaDrill
T1C0.0059
; #@! TA.AperFunction,Plated,PTH,ViaDrill
T2C0.0079
; #@! TA.AperFunction,Plated,PTH,ComponentDrill
T3C0.0079
; #@! TA.AperFunction,Plated,PTH,ViaDrill
T4C0.0118
; #@! TA.AperFunction,Plated,PTH,ComponentDrill
T5C0.0197
; #@! TA.AperFunction,Plated,PTH,ComponentDrill
T6C0.0236
; #@! TA.AperFunction,Plated,PTH,ComponentDrill
T7C0.0256
; #@! TA.AperFunction,Plated,PTH,ComponentDrill
T8C0.0370
; #@! TA.AperFunction,Plated,PTH,ComponentDrill
T9C0.0374
; #@! TA.AperFunction,Plated,PTH,ComponentDrill
T10C0.0394
; #@! TA.AperFunction,Plated,PTH,ComponentDrill
T11C0.0433
; #@! TA.AperFunction,Plated,PTH,ComponentDrill
T12C0.0472
; #@! TA.AperFunction,Plated,PTH,ComponentDrill
T13C0.0512
; #@! TA.AperFunction,Plated,PTH,ComponentDrill
T14C0.0591
; #@! TA.AperFunction,Plated,PTH,ComponentDrill
T15C0.1260
%
G90
G05
T1
X4.9294Y-4.1255
X4.9551Y-4.1276
X5.1102Y-4.4966
X5.1236Y-4.485
X5.1268Y-4.4417
X5.1634Y-4.3984
X5.1634Y-4.4575
X5.1634Y-4.4965
X5.1654Y-4.9941
X5.1821Y-5.0059
X5.1835Y-4.4575
X5.1957Y-4.5443
X5.1988Y-5.0197
X5.2006Y-4.5272
X5.2028Y-4.4378
X5.2028Y-4.4575
X5.2134Y-4.5429
X5.2165Y-5.0354
X5.2192Y-4.5001
X5.2224Y-4.4378
X5.2343Y-5.0492
X5.2421Y-4.4575
X5.2421Y-4.5165
X5.2428Y-4.4765
X5.2489Y-4.5606
X5.252Y-5.0669
X5.2618Y-4.3984
X5.2618Y-4.4575
X5.2618Y-4.4772
X5.2638Y-4.9596
X5.2697Y-5.0807
X5.2766Y-5.187
X5.2805Y-4.9429
X5.2815Y-4.3984
X5.2815Y-4.4378
X5.2815Y-4.4575
X5.2933Y-5.2028
X5.313Y-5.2165
X5.3169Y-5.2992
X5.3228Y-5.3189
X5.3266Y-4.4919
T2
X4.6417Y-4.3579
X4.8059Y-4.1406
X4.843Y-4.2548
X4.8472Y-5.9272
X4.8791Y-4.128
X4.9347Y-4.3715
X4.9555Y-4.3256
X4.9555Y-4.474
X4.9562Y-4.393
X4.9811Y-4.4492
X4.9953Y-4.4236
X5.0223Y-4.4827
X5.0638Y-4.3102
X5.072Y-4.587
X5.0815Y-4.5125
X5.0882Y-4.4591
X5.1087Y-4.602
X5.1165Y-4.4618
X5.1201Y-4.3665
X5.1299Y-4.1264
X5.1313Y-4.5444
X5.184Y-4.9577
X5.2067Y-4.9398
X5.211Y-4.3402
X5.2283Y-4.65
X5.2421Y-4.3366
X5.2463Y-4.5411
X5.2698Y-4.3085
X5.2815Y-4.3386
X5.2889Y-4.6909
X5.2894Y-4.7894
X5.3032Y-4.5504
X5.3122Y-4.2874
X5.3252Y-4.5283
X5.3307Y-4.3087
X5.3307Y-4.4571
X5.3429Y-4.3791
X5.3539Y-4.6441
X5.3557Y-4.3146
X5.3734Y-3.4628
X5.3976Y-4.5421
X5.4268Y-4.4874
X5.435Y-4.3764
X5.4506Y-4.5681
X5.4866Y-4.4569
X5.5217Y-4.5307
X5.8422Y-5.1666
X5.8756Y-4.513
X5.8756Y-4.5307
X6.0882Y-3.3681
X6.0921Y-3.4681
X6.0985Y-4.8551
X6.1138Y-3.4681
X6.1732Y-5.7063
X6.2772Y-5.9469
X6.4307Y-3.3323
X6.6272Y-3.4551
X6.6559Y-3.4567
X6.7144Y-3.5386
X6.7537Y-3.5386
X6.7931Y-3.5386
X6.8325Y-3.5386
X6.8719Y-3.5386
T3
X6.0026Y-5.6925
X6.0026Y-5.7752
X6.0852Y-5.6925
X6.0852Y-5.7752
X6.1067Y-6.1232
X6.1067Y-6.2059
X6.1894Y-6.1232
X6.1894Y-6.2059
T4
X2.6161Y-6.002
X2.687Y-5.5394
X2.8776Y-5.2741
X2.8776Y-5.5103
X2.8958Y-5.8209
X3.0689Y-5.5846
X3.1614Y-5.8236
X3.1614Y-6.011
X3.1693Y-5.7795
X3.2323Y-5.8465
X3.502Y-5.5846
X3.6713Y-5.9301
X3.7756Y-5.8209
X3.8661Y-5.9508
X3.9287Y-5.2835
X3.9287Y-5.5197
X3.9301Y-5.874
X3.935Y-6.0236
X4.0654Y-5.5413
X4.2402Y-5.8236
X4.2402Y-6.011
X4.3209Y-5.6654
X4.3441Y-5.4819
X4.3543Y-5.5157
X4.3799Y-5.5413
X4.4134Y-3.1575
X4.4213Y-5.5398
X4.4626Y-5.5413
X4.4724Y-5.4016
X4.4957Y-5.5398
X4.5118Y-3.1575
X4.5118Y-3.748
X4.5118Y-4.0236
X4.5118Y-4.3386
X4.5118Y-4.5748
X4.5118Y-4.7323
X4.5295Y-5.4213
X4.5406Y-5.4941
X4.5512Y-5.0472
X4.5512Y-5.1654
X4.5531Y-5.3799
X4.5591Y-4.8878
X4.5846Y-4.3071
X4.5965Y-5.6654
X4.6072Y-5.7717
X4.6102Y-3.1575
X4.6358Y-5.0295
X4.6358Y-5.9272
X4.6363Y-5.7953
X4.6394Y-5.7591
X4.6437Y-6.1673
X4.6496Y-5.1311
X4.6555Y-5.3307
X4.6575Y-5.2224
X4.6576Y-5.3621
X4.6618Y-5.5224
X4.663Y-5.6571
X4.6639Y-5.4016
X4.6818Y-5.2655
X4.6877Y-5.2345
X4.6929Y-5.2047
X4.6929Y-5.5283
X4.6933Y-5.811
X4.7087Y-3.1575
X4.7087Y-3.748
X4.7387Y-5.8031
X4.7402Y-5.485
X4.7461Y-6.1673
X4.748Y-6.0492
X4.752Y-4.815
X4.7623Y-5.2008
X4.7717Y-5.5067
X4.7992Y-4.6142
X4.8071Y-3.1575
X4.8187Y-5.5079
X4.8194Y-5.1988
X4.8194Y-5.5394
X4.8307Y-4.815
X4.845Y-5.5394
X4.85Y-4.5606
X4.8533Y-4.2303
X4.8579Y-5.1972
X4.8642Y-6.1693
X4.8706Y-5.5394
X4.8976Y-5.6496
X4.9055Y-3.1575
X4.9055Y-3.748
X4.9055Y-5.3228
X4.9198Y-4.7569
X4.9213Y-5.6766
X4.937Y-5.1967
X4.9764Y-5.0079
X4.9776Y-5.9
X4.9843Y-3.8661
X4.985Y-5.2874
X4.9937Y-5.774
X4.9945Y-5.2496
X5.0039Y-3.1575
X5.0331Y-5.1236
X5.0374Y-4.5681
X5.048Y-4.4906
X5.0545Y-4.1782
X5.061Y-5.626
X5.0615Y-5.6988
X5.063Y-6.2283
X5.065Y-4.892
X5.0871Y-6.0906
X5.1024Y-3.1575
X5.1024Y-3.9449
X5.1378Y-3.6154
X5.2008Y-3.1575
X5.2205Y-6.1496
X5.2224Y-4.0976
X5.2413Y-4.2571
X5.2776Y-5.9685
X5.2992Y-3.1575
X5.2992Y-3.748
X5.2992Y-3.9449
X5.3Y-4.098
X5.313Y-5.8878
X5.3228Y-5.6476
X5.3677Y-3.4327
X5.3976Y-3.1575
X5.4173Y-4.7323
X5.4173Y-4.8504
X5.4402Y-5.5965
X5.4961Y-3.1575
X5.4961Y-4.3386
X5.4961Y-5.7559
X5.5497Y-4.7913
X5.5732Y-6.2205
X5.5945Y-3.1575
X5.5949Y-4.1035
X5.6181Y-4.4228
X5.6193Y-4.2689
X5.626Y-4.5409
X5.6535Y-5.874
X5.6689Y-6.0425
X5.6722Y-4.7952
X5.6768Y-4.5272
X5.6929Y-3.1575
X5.6929Y-3.748
X5.6929Y-3.9449
X5.6949Y-4.1106
X5.7087Y-4.289
X5.7126Y-4.4571
X5.7831Y-5.8039
X5.7835Y-5.7209
X5.7913Y-3.1575
X5.7988Y-5.3677
X5.8024Y-5.4197
X5.811Y-5.9921
X5.8602Y-5.7209
X5.8606Y-5.8031
X5.8657Y-4.0587
X5.887Y-6.0941
X5.8874Y-6.178
X5.8898Y-3.1575
X5.8898Y-3.5512
X5.8898Y-3.748
X5.8898Y-3.9449
X5.9209Y-5.3335
X5.9563Y-4.5091
X5.9575Y-4.4327
X5.9587Y-4.2776
X5.9594Y-4.2004
X5.965Y-6.1772
X5.9882Y-3.1575
X5.9882Y-3.5512
X5.9988Y-5.416
X5.999Y-5.4587
X5.9992Y-5.3335
X6.0028Y-6.0555
X6.0606Y-6.2319
X6.0722Y-5.6228
X6.0764Y-5.3331
X6.0866Y-3.1575
X6.0866Y-3.5512
X6.0866Y-3.748
X6.0866Y-3.9449
X6.1043Y-5.9114
X6.1122Y-3.3445
X6.1531Y-5.3339
X6.1531Y-5.416
X6.1654Y-5.4803
X6.1677Y-6.0547
X6.185Y-3.1575
X6.185Y-3.2559
X6.185Y-3.6496
X6.185Y-3.748
X6.185Y-3.8465
X6.185Y-4.0433
X6.185Y-4.1417
X6.185Y-4.2402
X6.185Y-4.3386
X6.185Y-4.437
X6.185Y-4.5354
X6.185Y-4.6339
X6.185Y-4.7323
X6.2283Y-5.6776
X6.2541Y-5.8222
X6.2587Y-6.1358
X6.3043Y-6.0504
X6.3819Y-5.4606
X6.3819Y-5.5197
X6.3819Y-5.5689
X6.3819Y-5.6181
X6.3827Y-5.6937
X6.437Y-6.1945
X6.5Y-3.6496
X6.5Y-3.7283
X6.5Y-3.8071
X6.5295Y-5.4606
X6.5295Y-5.5197
X6.5295Y-5.5689
X6.5295Y-5.6181
X6.5394Y-3.689
X6.5394Y-3.7677
X6.5394Y-3.8465
X6.5689Y-6.1791
X6.5689Y-6.2283
X6.5689Y-6.2776
X6.5689Y-6.3366
X6.6969Y-3.6496
X6.7165Y-6.1791
X6.7165Y-6.2283
X6.7165Y-6.2776
X6.7165Y-6.3366
X6.7303Y-5.4724
X6.7362Y-3.689
X6.7362Y-3.7677
X6.7362Y-3.8465
X6.7756Y-3.6496
X6.7756Y-3.7283
X6.7756Y-3.8071
X6.815Y-3.689
X6.815Y-3.7677
X6.815Y-3.8465
X6.8543Y-3.6496
X6.8543Y-3.7283
X6.8543Y-3.8071
X6.8937Y-3.689
X6.8937Y-3.7677
X6.8937Y-3.8465
X6.9232Y-6.1791
X6.9232Y-6.2283
X6.9232Y-6.2776
X6.9232Y-6.3366
X6.9331Y-3.6496
X7.0161Y-5.7646
X7.0646Y-5.6075
X7.0709Y-6.1791
X7.0709Y-6.2283
X7.0709Y-6.2776
X7.0709Y-6.3366
X7.0957Y-5.6075
X7.1299Y-5.6075
X7.1693Y-5.9134
X7.1693Y-6.0118
X7.1693Y-6.1102
X7.1693Y-6.2087
X7.1693Y-6.3071
X7.5559Y-3.3594
X7.5559Y-3.3988
X7.5559Y-3.4382
X7.5559Y-3.4776
X7.5953Y-3.5366
X7.6346Y-3.5366
X7.674Y-3.5366
X7.7134Y-3.3594
X7.7134Y-3.3988
X7.7134Y-3.4382
X7.7134Y-3.4776
X8.029Y-3.8063
X8.029Y-3.8339
X8.029Y-3.8614
X8.029Y-3.889
T5
X5.4469Y-5.1102
X5.4469Y-5.1496
X5.4469Y-5.189
X5.4469Y-5.2283
X5.4469Y-5.2677
X5.4469Y-5.3071
X5.4469Y-5.3465
X5.4469Y-5.3858
X5.4862Y-5.1102
X5.4862Y-5.1496
X5.4862Y-5.189
X5.4862Y-5.2283
X5.4862Y-5.2677
X5.4862Y-5.3071
X5.4862Y-5.3465
X5.4862Y-5.3858
T6
X8.1629Y-6.2236
X8.2338Y-6.0268
T7
X4.0063Y-3.2795
X4.0563Y-3.2795
X4.1063Y-3.2795
T8
X6.5339Y-4.3472
X6.5339Y-4.4472
X6.5339Y-5.0472
X6.5339Y-5.2472
X7.1339Y-4.3472
X7.1339Y-4.4472
X7.1339Y-5.0472
X7.1339Y-5.2472
T9
X8.2843Y-3.5189
X8.2843Y-3.6173
T10
X2.6811Y-3.8937
X2.8811Y-3.8937
X3.2102Y-3.7976
X3.2102Y-3.9976
X3.6433Y-3.7976
X3.6433Y-3.9976
X4.0764Y-3.7976
X4.0764Y-3.9976
X4.6252Y-4.0236
X4.7252Y-4.0236
X4.8252Y-4.0236
X4.9252Y-4.0236
X4.9428Y-3.3284
X4.9428Y-3.6284
X5.0252Y-4.0236
X5.1252Y-4.0236
X5.3831Y-6.3063
X5.715Y-5.5992
X5.9587Y-6.3197
X6.7756Y-5.3102
X7.4838Y-3.9264
X7.6373Y-3.9283
X8.5079Y-4.6126
X8.5079Y-5.0063
T11
X2.6866Y-4.6811
X2.6866Y-5.311
X2.8504Y-6.2165
X2.9504Y-6.2165
X3.0094Y-5.2402
X3.0504Y-6.2165
X3.1504Y-6.2165
X3.3183Y-6.2165
X3.4183Y-6.2165
X3.5183Y-6.2165
X3.6183Y-6.2165
X3.7575Y-5.2441
X3.7835Y-6.2165
X3.8835Y-6.2165
X3.9835Y-6.2165
X4.0835Y-6.2165
X4.2224Y-5.189
X4.248Y-6.2165
X4.348Y-6.2165
X4.448Y-6.2165
X4.548Y-6.2165
T12
X4.2428Y-3.3284
X4.2428Y-3.6284
X4.5428Y-3.3284
X7.735Y-6.1193
X7.8728Y-6.1193
X8.0106Y-6.1193
T13
X2.8866Y-3.4394
X3.0866Y-3.4394
X3.2866Y-3.4394
X3.4866Y-3.4394
T14
X7.4247Y-5.7177
X7.9286Y-3.9461
X8.2436Y-3.9461
X8.2436Y-5.7177
T15
X2.5433Y-3.2362
X2.5433Y-6.3071
X8.5276Y-3.2362
X8.5276Y-6.3071
M30
