%TF.GenerationSoftware,KiCad,Pcbnew,8.0.1*%
%TF.CreationDate,2024-06-09T19:14:10+02:00*%
%TF.ProjectId,daqIONA,64617149-4f4e-4412-9e6b-696361645f70,rev?*%
%TF.SameCoordinates,Original*%
%TF.FileFunction,Legend,Bot*%
%TF.FilePolarity,Positive*%
%FSLAX46Y46*%
G04 Gerber Fmt 4.6, Leading zero omitted, Abs format (unit mm)*
G04 Created by KiCad (PCBNEW 8.0.1) date 2024-06-09 19:14:10*
%MOMM*%
%LPD*%
G01*
G04 APERTURE LIST*
%ADD10C,0.100000*%
%ADD11C,0.150000*%
%ADD12C,0.145000*%
%ADD13C,0.120000*%
%ADD14C,0.010000*%
G04 APERTURE END LIST*
D10*
X192487500Y-96780000D02*
X195487500Y-96780000D01*
X195487500Y-101280000D01*
X192487500Y-101280000D01*
X192487500Y-96780000D01*
X188587500Y-96780000D02*
X191587500Y-96780000D01*
X191587500Y-101280000D01*
X188587500Y-101280000D01*
X188587500Y-96780000D01*
D11*
X195168280Y-97675116D02*
X194482566Y-97675116D01*
X194825423Y-98056069D02*
X194825423Y-97294164D01*
X193625422Y-97056069D02*
X194053994Y-97056069D01*
X194053994Y-97056069D02*
X194096851Y-97532259D01*
X194096851Y-97532259D02*
X194053994Y-97484640D01*
X194053994Y-97484640D02*
X193968280Y-97437021D01*
X193968280Y-97437021D02*
X193753994Y-97437021D01*
X193753994Y-97437021D02*
X193668280Y-97484640D01*
X193668280Y-97484640D02*
X193625422Y-97532259D01*
X193625422Y-97532259D02*
X193582565Y-97627497D01*
X193582565Y-97627497D02*
X193582565Y-97865592D01*
X193582565Y-97865592D02*
X193625422Y-97960830D01*
X193625422Y-97960830D02*
X193668280Y-98008450D01*
X193668280Y-98008450D02*
X193753994Y-98056069D01*
X193753994Y-98056069D02*
X193968280Y-98056069D01*
X193968280Y-98056069D02*
X194053994Y-98008450D01*
X194053994Y-98008450D02*
X194096851Y-97960830D01*
X193325422Y-97056069D02*
X193025422Y-98056069D01*
X193025422Y-98056069D02*
X192725422Y-97056069D01*
X190703101Y-97097438D02*
X190788816Y-97049819D01*
X190788816Y-97049819D02*
X190917387Y-97049819D01*
X190917387Y-97049819D02*
X191045958Y-97097438D01*
X191045958Y-97097438D02*
X191131673Y-97192676D01*
X191131673Y-97192676D02*
X191174530Y-97287914D01*
X191174530Y-97287914D02*
X191217387Y-97478390D01*
X191217387Y-97478390D02*
X191217387Y-97621247D01*
X191217387Y-97621247D02*
X191174530Y-97811723D01*
X191174530Y-97811723D02*
X191131673Y-97906961D01*
X191131673Y-97906961D02*
X191045958Y-98002200D01*
X191045958Y-98002200D02*
X190917387Y-98049819D01*
X190917387Y-98049819D02*
X190831673Y-98049819D01*
X190831673Y-98049819D02*
X190703101Y-98002200D01*
X190703101Y-98002200D02*
X190660244Y-97954580D01*
X190660244Y-97954580D02*
X190660244Y-97621247D01*
X190660244Y-97621247D02*
X190831673Y-97621247D01*
X190274530Y-98049819D02*
X190274530Y-97049819D01*
X190274530Y-97049819D02*
X189760244Y-98049819D01*
X189760244Y-98049819D02*
X189760244Y-97049819D01*
X189331673Y-98049819D02*
X189331673Y-97049819D01*
X189331673Y-97049819D02*
X189117387Y-97049819D01*
X189117387Y-97049819D02*
X188988816Y-97097438D01*
X188988816Y-97097438D02*
X188903101Y-97192676D01*
X188903101Y-97192676D02*
X188860244Y-97287914D01*
X188860244Y-97287914D02*
X188817387Y-97478390D01*
X188817387Y-97478390D02*
X188817387Y-97621247D01*
X188817387Y-97621247D02*
X188860244Y-97811723D01*
X188860244Y-97811723D02*
X188903101Y-97906961D01*
X188903101Y-97906961D02*
X188988816Y-98002200D01*
X188988816Y-98002200D02*
X189117387Y-98049819D01*
X189117387Y-98049819D02*
X189331673Y-98049819D01*
D12*
X143574917Y-129927664D02*
X143574917Y-129277664D01*
X143574917Y-129277664D02*
X143372536Y-129277664D01*
X143372536Y-129277664D02*
X143251107Y-129308616D01*
X143251107Y-129308616D02*
X143170155Y-129370521D01*
X143170155Y-129370521D02*
X143129678Y-129432426D01*
X143129678Y-129432426D02*
X143089202Y-129556235D01*
X143089202Y-129556235D02*
X143089202Y-129649092D01*
X143089202Y-129649092D02*
X143129678Y-129772902D01*
X143129678Y-129772902D02*
X143170155Y-129834807D01*
X143170155Y-129834807D02*
X143251107Y-129896712D01*
X143251107Y-129896712D02*
X143372536Y-129927664D01*
X143372536Y-129927664D02*
X143574917Y-129927664D01*
X142360631Y-129896712D02*
X142441583Y-129927664D01*
X142441583Y-129927664D02*
X142603488Y-129927664D01*
X142603488Y-129927664D02*
X142684440Y-129896712D01*
X142684440Y-129896712D02*
X142724917Y-129865759D01*
X142724917Y-129865759D02*
X142765393Y-129803854D01*
X142765393Y-129803854D02*
X142765393Y-129618140D01*
X142765393Y-129618140D02*
X142724917Y-129556235D01*
X142724917Y-129556235D02*
X142684440Y-129525283D01*
X142684440Y-129525283D02*
X142603488Y-129494331D01*
X142603488Y-129494331D02*
X142441583Y-129494331D01*
X142441583Y-129494331D02*
X142360631Y-129525283D01*
X141874917Y-129927664D02*
X141955869Y-129896712D01*
X141955869Y-129896712D02*
X141996346Y-129834807D01*
X141996346Y-129834807D02*
X141996346Y-129277664D01*
X141551108Y-129927664D02*
X141551108Y-129277664D01*
X141470155Y-129680045D02*
X141227298Y-129927664D01*
X141227298Y-129494331D02*
X141551108Y-129741950D01*
X143655870Y-130974128D02*
X143655870Y-130324128D01*
X143655870Y-130324128D02*
X143453489Y-130324128D01*
X143453489Y-130324128D02*
X143332060Y-130355080D01*
X143332060Y-130355080D02*
X143251108Y-130416985D01*
X143251108Y-130416985D02*
X143210631Y-130478890D01*
X143210631Y-130478890D02*
X143170155Y-130602699D01*
X143170155Y-130602699D02*
X143170155Y-130695556D01*
X143170155Y-130695556D02*
X143210631Y-130819366D01*
X143210631Y-130819366D02*
X143251108Y-130881271D01*
X143251108Y-130881271D02*
X143332060Y-130943176D01*
X143332060Y-130943176D02*
X143453489Y-130974128D01*
X143453489Y-130974128D02*
X143655870Y-130974128D01*
X142805870Y-130974128D02*
X142805870Y-130540795D01*
X142805870Y-130664604D02*
X142765393Y-130602699D01*
X142765393Y-130602699D02*
X142724917Y-130571747D01*
X142724917Y-130571747D02*
X142643965Y-130540795D01*
X142643965Y-130540795D02*
X142563012Y-130540795D01*
X141915394Y-130974128D02*
X141915394Y-130324128D01*
X141915394Y-130943176D02*
X141996346Y-130974128D01*
X141996346Y-130974128D02*
X142158251Y-130974128D01*
X142158251Y-130974128D02*
X142239203Y-130943176D01*
X142239203Y-130943176D02*
X142279680Y-130912223D01*
X142279680Y-130912223D02*
X142320156Y-130850318D01*
X142320156Y-130850318D02*
X142320156Y-130664604D01*
X142320156Y-130664604D02*
X142279680Y-130602699D01*
X142279680Y-130602699D02*
X142239203Y-130571747D01*
X142239203Y-130571747D02*
X142158251Y-130540795D01*
X142158251Y-130540795D02*
X141996346Y-130540795D01*
X141996346Y-130540795D02*
X141915394Y-130571747D01*
X141591584Y-130540795D02*
X141389203Y-130974128D01*
X141186822Y-130540795D02*
X141389203Y-130974128D01*
X141389203Y-130974128D02*
X141470155Y-131128890D01*
X141470155Y-131128890D02*
X141510632Y-131159842D01*
X141510632Y-131159842D02*
X141591584Y-131190795D01*
X143008250Y-131401544D02*
X143089203Y-131370592D01*
X143089203Y-131370592D02*
X143210631Y-131370592D01*
X143210631Y-131370592D02*
X143332060Y-131401544D01*
X143332060Y-131401544D02*
X143413012Y-131463449D01*
X143413012Y-131463449D02*
X143453489Y-131525354D01*
X143453489Y-131525354D02*
X143493965Y-131649163D01*
X143493965Y-131649163D02*
X143493965Y-131742020D01*
X143493965Y-131742020D02*
X143453489Y-131865830D01*
X143453489Y-131865830D02*
X143413012Y-131927735D01*
X143413012Y-131927735D02*
X143332060Y-131989640D01*
X143332060Y-131989640D02*
X143210631Y-132020592D01*
X143210631Y-132020592D02*
X143129679Y-132020592D01*
X143129679Y-132020592D02*
X143008250Y-131989640D01*
X143008250Y-131989640D02*
X142967774Y-131958687D01*
X142967774Y-131958687D02*
X142967774Y-131742020D01*
X142967774Y-131742020D02*
X143129679Y-131742020D01*
X142603489Y-132020592D02*
X142603489Y-131370592D01*
X142603489Y-131370592D02*
X142117774Y-132020592D01*
X142117774Y-132020592D02*
X142117774Y-131370592D01*
X141713013Y-132020592D02*
X141713013Y-131370592D01*
X141713013Y-131370592D02*
X141510632Y-131370592D01*
X141510632Y-131370592D02*
X141389203Y-131401544D01*
X141389203Y-131401544D02*
X141308251Y-131463449D01*
X141308251Y-131463449D02*
X141267774Y-131525354D01*
X141267774Y-131525354D02*
X141227298Y-131649163D01*
X141227298Y-131649163D02*
X141227298Y-131742020D01*
X141227298Y-131742020D02*
X141267774Y-131865830D01*
X141267774Y-131865830D02*
X141308251Y-131927735D01*
X141308251Y-131927735D02*
X141389203Y-131989640D01*
X141389203Y-131989640D02*
X141510632Y-132020592D01*
X141510632Y-132020592D02*
X141713013Y-132020592D01*
X144101108Y-133036104D02*
X143979679Y-133067056D01*
X143979679Y-133067056D02*
X143777298Y-133067056D01*
X143777298Y-133067056D02*
X143696346Y-133036104D01*
X143696346Y-133036104D02*
X143655870Y-133005151D01*
X143655870Y-133005151D02*
X143615393Y-132943246D01*
X143615393Y-132943246D02*
X143615393Y-132881342D01*
X143615393Y-132881342D02*
X143655870Y-132819437D01*
X143655870Y-132819437D02*
X143696346Y-132788484D01*
X143696346Y-132788484D02*
X143777298Y-132757532D01*
X143777298Y-132757532D02*
X143939203Y-132726580D01*
X143939203Y-132726580D02*
X144020155Y-132695627D01*
X144020155Y-132695627D02*
X144060632Y-132664675D01*
X144060632Y-132664675D02*
X144101108Y-132602770D01*
X144101108Y-132602770D02*
X144101108Y-132540865D01*
X144101108Y-132540865D02*
X144060632Y-132478961D01*
X144060632Y-132478961D02*
X144020155Y-132448008D01*
X144020155Y-132448008D02*
X143939203Y-132417056D01*
X143939203Y-132417056D02*
X143736822Y-132417056D01*
X143736822Y-132417056D02*
X143615393Y-132448008D01*
X142765393Y-133005151D02*
X142805869Y-133036104D01*
X142805869Y-133036104D02*
X142927298Y-133067056D01*
X142927298Y-133067056D02*
X143008250Y-133067056D01*
X143008250Y-133067056D02*
X143129679Y-133036104D01*
X143129679Y-133036104D02*
X143210631Y-132974199D01*
X143210631Y-132974199D02*
X143251108Y-132912294D01*
X143251108Y-132912294D02*
X143291584Y-132788484D01*
X143291584Y-132788484D02*
X143291584Y-132695627D01*
X143291584Y-132695627D02*
X143251108Y-132571818D01*
X143251108Y-132571818D02*
X143210631Y-132509913D01*
X143210631Y-132509913D02*
X143129679Y-132448008D01*
X143129679Y-132448008D02*
X143008250Y-132417056D01*
X143008250Y-132417056D02*
X142927298Y-132417056D01*
X142927298Y-132417056D02*
X142805869Y-132448008D01*
X142805869Y-132448008D02*
X142765393Y-132478961D01*
X141996346Y-133067056D02*
X142401108Y-133067056D01*
X142401108Y-133067056D02*
X142401108Y-132417056D01*
X141713013Y-133067056D02*
X141713013Y-132417056D01*
X141227298Y-133067056D02*
X141591584Y-132695627D01*
X141227298Y-132417056D02*
X141713013Y-132788484D01*
X143372537Y-134082568D02*
X143251108Y-134113520D01*
X143251108Y-134113520D02*
X143048727Y-134113520D01*
X143048727Y-134113520D02*
X142967775Y-134082568D01*
X142967775Y-134082568D02*
X142927299Y-134051615D01*
X142927299Y-134051615D02*
X142886822Y-133989710D01*
X142886822Y-133989710D02*
X142886822Y-133927806D01*
X142886822Y-133927806D02*
X142927299Y-133865901D01*
X142927299Y-133865901D02*
X142967775Y-133834948D01*
X142967775Y-133834948D02*
X143048727Y-133803996D01*
X143048727Y-133803996D02*
X143210632Y-133773044D01*
X143210632Y-133773044D02*
X143291584Y-133742091D01*
X143291584Y-133742091D02*
X143332061Y-133711139D01*
X143332061Y-133711139D02*
X143372537Y-133649234D01*
X143372537Y-133649234D02*
X143372537Y-133587329D01*
X143372537Y-133587329D02*
X143332061Y-133525425D01*
X143332061Y-133525425D02*
X143291584Y-133494472D01*
X143291584Y-133494472D02*
X143210632Y-133463520D01*
X143210632Y-133463520D02*
X143008251Y-133463520D01*
X143008251Y-133463520D02*
X142886822Y-133494472D01*
X142036822Y-134051615D02*
X142077298Y-134082568D01*
X142077298Y-134082568D02*
X142198727Y-134113520D01*
X142198727Y-134113520D02*
X142279679Y-134113520D01*
X142279679Y-134113520D02*
X142401108Y-134082568D01*
X142401108Y-134082568D02*
X142482060Y-134020663D01*
X142482060Y-134020663D02*
X142522537Y-133958758D01*
X142522537Y-133958758D02*
X142563013Y-133834948D01*
X142563013Y-133834948D02*
X142563013Y-133742091D01*
X142563013Y-133742091D02*
X142522537Y-133618282D01*
X142522537Y-133618282D02*
X142482060Y-133556377D01*
X142482060Y-133556377D02*
X142401108Y-133494472D01*
X142401108Y-133494472D02*
X142279679Y-133463520D01*
X142279679Y-133463520D02*
X142198727Y-133463520D01*
X142198727Y-133463520D02*
X142077298Y-133494472D01*
X142077298Y-133494472D02*
X142036822Y-133525425D01*
X141713013Y-134082568D02*
X141591584Y-134113520D01*
X141591584Y-134113520D02*
X141389203Y-134113520D01*
X141389203Y-134113520D02*
X141308251Y-134082568D01*
X141308251Y-134082568D02*
X141267775Y-134051615D01*
X141267775Y-134051615D02*
X141227298Y-133989710D01*
X141227298Y-133989710D02*
X141227298Y-133927806D01*
X141227298Y-133927806D02*
X141267775Y-133865901D01*
X141267775Y-133865901D02*
X141308251Y-133834948D01*
X141308251Y-133834948D02*
X141389203Y-133803996D01*
X141389203Y-133803996D02*
X141551108Y-133773044D01*
X141551108Y-133773044D02*
X141632060Y-133742091D01*
X141632060Y-133742091D02*
X141672537Y-133711139D01*
X141672537Y-133711139D02*
X141713013Y-133649234D01*
X141713013Y-133649234D02*
X141713013Y-133587329D01*
X141713013Y-133587329D02*
X141672537Y-133525425D01*
X141672537Y-133525425D02*
X141632060Y-133494472D01*
X141632060Y-133494472D02*
X141551108Y-133463520D01*
X141551108Y-133463520D02*
X141348727Y-133463520D01*
X141348727Y-133463520D02*
X141227298Y-133494472D01*
X142967775Y-135129032D02*
X142846346Y-135159984D01*
X142846346Y-135159984D02*
X142643965Y-135159984D01*
X142643965Y-135159984D02*
X142563013Y-135129032D01*
X142563013Y-135129032D02*
X142522537Y-135098079D01*
X142522537Y-135098079D02*
X142482060Y-135036174D01*
X142482060Y-135036174D02*
X142482060Y-134974270D01*
X142482060Y-134974270D02*
X142522537Y-134912365D01*
X142522537Y-134912365D02*
X142563013Y-134881412D01*
X142563013Y-134881412D02*
X142643965Y-134850460D01*
X142643965Y-134850460D02*
X142805870Y-134819508D01*
X142805870Y-134819508D02*
X142886822Y-134788555D01*
X142886822Y-134788555D02*
X142927299Y-134757603D01*
X142927299Y-134757603D02*
X142967775Y-134695698D01*
X142967775Y-134695698D02*
X142967775Y-134633793D01*
X142967775Y-134633793D02*
X142927299Y-134571889D01*
X142927299Y-134571889D02*
X142886822Y-134540936D01*
X142886822Y-134540936D02*
X142805870Y-134509984D01*
X142805870Y-134509984D02*
X142603489Y-134509984D01*
X142603489Y-134509984D02*
X142482060Y-134540936D01*
X142117775Y-135159984D02*
X142117775Y-134509984D01*
X142117775Y-134509984D02*
X141915394Y-134509984D01*
X141915394Y-134509984D02*
X141793965Y-134540936D01*
X141793965Y-134540936D02*
X141713013Y-134602841D01*
X141713013Y-134602841D02*
X141672536Y-134664746D01*
X141672536Y-134664746D02*
X141632060Y-134788555D01*
X141632060Y-134788555D02*
X141632060Y-134881412D01*
X141632060Y-134881412D02*
X141672536Y-135005222D01*
X141672536Y-135005222D02*
X141713013Y-135067127D01*
X141713013Y-135067127D02*
X141793965Y-135129032D01*
X141793965Y-135129032D02*
X141915394Y-135159984D01*
X141915394Y-135159984D02*
X142117775Y-135159984D01*
X141267775Y-135159984D02*
X141267775Y-134509984D01*
X143453489Y-136175496D02*
X143332060Y-136206448D01*
X143332060Y-136206448D02*
X143129679Y-136206448D01*
X143129679Y-136206448D02*
X143048727Y-136175496D01*
X143048727Y-136175496D02*
X143008251Y-136144543D01*
X143008251Y-136144543D02*
X142967774Y-136082638D01*
X142967774Y-136082638D02*
X142967774Y-136020734D01*
X142967774Y-136020734D02*
X143008251Y-135958829D01*
X143008251Y-135958829D02*
X143048727Y-135927876D01*
X143048727Y-135927876D02*
X143129679Y-135896924D01*
X143129679Y-135896924D02*
X143291584Y-135865972D01*
X143291584Y-135865972D02*
X143372536Y-135835019D01*
X143372536Y-135835019D02*
X143413013Y-135804067D01*
X143413013Y-135804067D02*
X143453489Y-135742162D01*
X143453489Y-135742162D02*
X143453489Y-135680257D01*
X143453489Y-135680257D02*
X143413013Y-135618353D01*
X143413013Y-135618353D02*
X143372536Y-135587400D01*
X143372536Y-135587400D02*
X143291584Y-135556448D01*
X143291584Y-135556448D02*
X143089203Y-135556448D01*
X143089203Y-135556448D02*
X142967774Y-135587400D01*
X142603489Y-136206448D02*
X142603489Y-135556448D01*
X142603489Y-135556448D02*
X142401108Y-135556448D01*
X142401108Y-135556448D02*
X142279679Y-135587400D01*
X142279679Y-135587400D02*
X142198727Y-135649305D01*
X142198727Y-135649305D02*
X142158250Y-135711210D01*
X142158250Y-135711210D02*
X142117774Y-135835019D01*
X142117774Y-135835019D02*
X142117774Y-135927876D01*
X142117774Y-135927876D02*
X142158250Y-136051686D01*
X142158250Y-136051686D02*
X142198727Y-136113591D01*
X142198727Y-136113591D02*
X142279679Y-136175496D01*
X142279679Y-136175496D02*
X142401108Y-136206448D01*
X142401108Y-136206448D02*
X142603489Y-136206448D01*
X141591584Y-135556448D02*
X141429679Y-135556448D01*
X141429679Y-135556448D02*
X141348727Y-135587400D01*
X141348727Y-135587400D02*
X141267774Y-135649305D01*
X141267774Y-135649305D02*
X141227298Y-135773115D01*
X141227298Y-135773115D02*
X141227298Y-135989781D01*
X141227298Y-135989781D02*
X141267774Y-136113591D01*
X141267774Y-136113591D02*
X141348727Y-136175496D01*
X141348727Y-136175496D02*
X141429679Y-136206448D01*
X141429679Y-136206448D02*
X141591584Y-136206448D01*
X141591584Y-136206448D02*
X141672536Y-136175496D01*
X141672536Y-136175496D02*
X141753489Y-136113591D01*
X141753489Y-136113591D02*
X141793965Y-135989781D01*
X141793965Y-135989781D02*
X141793965Y-135773115D01*
X141793965Y-135773115D02*
X141753489Y-135649305D01*
X141753489Y-135649305D02*
X141672536Y-135587400D01*
X141672536Y-135587400D02*
X141591584Y-135556448D01*
X143008250Y-136633864D02*
X143089203Y-136602912D01*
X143089203Y-136602912D02*
X143210631Y-136602912D01*
X143210631Y-136602912D02*
X143332060Y-136633864D01*
X143332060Y-136633864D02*
X143413012Y-136695769D01*
X143413012Y-136695769D02*
X143453489Y-136757674D01*
X143453489Y-136757674D02*
X143493965Y-136881483D01*
X143493965Y-136881483D02*
X143493965Y-136974340D01*
X143493965Y-136974340D02*
X143453489Y-137098150D01*
X143453489Y-137098150D02*
X143413012Y-137160055D01*
X143413012Y-137160055D02*
X143332060Y-137221960D01*
X143332060Y-137221960D02*
X143210631Y-137252912D01*
X143210631Y-137252912D02*
X143129679Y-137252912D01*
X143129679Y-137252912D02*
X143008250Y-137221960D01*
X143008250Y-137221960D02*
X142967774Y-137191007D01*
X142967774Y-137191007D02*
X142967774Y-136974340D01*
X142967774Y-136974340D02*
X143129679Y-136974340D01*
X142603489Y-137252912D02*
X142603489Y-136602912D01*
X142603489Y-136602912D02*
X142117774Y-137252912D01*
X142117774Y-137252912D02*
X142117774Y-136602912D01*
X141713013Y-137252912D02*
X141713013Y-136602912D01*
X141713013Y-136602912D02*
X141510632Y-136602912D01*
X141510632Y-136602912D02*
X141389203Y-136633864D01*
X141389203Y-136633864D02*
X141308251Y-136695769D01*
X141308251Y-136695769D02*
X141267774Y-136757674D01*
X141267774Y-136757674D02*
X141227298Y-136881483D01*
X141227298Y-136881483D02*
X141227298Y-136974340D01*
X141227298Y-136974340D02*
X141267774Y-137098150D01*
X141267774Y-137098150D02*
X141308251Y-137160055D01*
X141308251Y-137160055D02*
X141389203Y-137221960D01*
X141389203Y-137221960D02*
X141510632Y-137252912D01*
X141510632Y-137252912D02*
X141713013Y-137252912D01*
X136602225Y-129937664D02*
X136602225Y-129287664D01*
X136602225Y-129287664D02*
X136399844Y-129287664D01*
X136399844Y-129287664D02*
X136278415Y-129318616D01*
X136278415Y-129318616D02*
X136197463Y-129380521D01*
X136197463Y-129380521D02*
X136156986Y-129442426D01*
X136156986Y-129442426D02*
X136116510Y-129566235D01*
X136116510Y-129566235D02*
X136116510Y-129659092D01*
X136116510Y-129659092D02*
X136156986Y-129782902D01*
X136156986Y-129782902D02*
X136197463Y-129844807D01*
X136197463Y-129844807D02*
X136278415Y-129906712D01*
X136278415Y-129906712D02*
X136399844Y-129937664D01*
X136399844Y-129937664D02*
X136602225Y-129937664D01*
X135590320Y-129287664D02*
X135509367Y-129287664D01*
X135509367Y-129287664D02*
X135428415Y-129318616D01*
X135428415Y-129318616D02*
X135387939Y-129349569D01*
X135387939Y-129349569D02*
X135347463Y-129411473D01*
X135347463Y-129411473D02*
X135306986Y-129535283D01*
X135306986Y-129535283D02*
X135306986Y-129690045D01*
X135306986Y-129690045D02*
X135347463Y-129813854D01*
X135347463Y-129813854D02*
X135387939Y-129875759D01*
X135387939Y-129875759D02*
X135428415Y-129906712D01*
X135428415Y-129906712D02*
X135509367Y-129937664D01*
X135509367Y-129937664D02*
X135590320Y-129937664D01*
X135590320Y-129937664D02*
X135671272Y-129906712D01*
X135671272Y-129906712D02*
X135711748Y-129875759D01*
X135711748Y-129875759D02*
X135752225Y-129813854D01*
X135752225Y-129813854D02*
X135792701Y-129690045D01*
X135792701Y-129690045D02*
X135792701Y-129535283D01*
X135792701Y-129535283D02*
X135752225Y-129411473D01*
X135752225Y-129411473D02*
X135711748Y-129349569D01*
X135711748Y-129349569D02*
X135671272Y-129318616D01*
X135671272Y-129318616D02*
X135590320Y-129287664D01*
X136602225Y-130984128D02*
X136602225Y-130334128D01*
X136602225Y-130334128D02*
X136399844Y-130334128D01*
X136399844Y-130334128D02*
X136278415Y-130365080D01*
X136278415Y-130365080D02*
X136197463Y-130426985D01*
X136197463Y-130426985D02*
X136156986Y-130488890D01*
X136156986Y-130488890D02*
X136116510Y-130612699D01*
X136116510Y-130612699D02*
X136116510Y-130705556D01*
X136116510Y-130705556D02*
X136156986Y-130829366D01*
X136156986Y-130829366D02*
X136197463Y-130891271D01*
X136197463Y-130891271D02*
X136278415Y-130953176D01*
X136278415Y-130953176D02*
X136399844Y-130984128D01*
X136399844Y-130984128D02*
X136602225Y-130984128D01*
X135306986Y-130984128D02*
X135792701Y-130984128D01*
X135549844Y-130984128D02*
X135549844Y-130334128D01*
X135549844Y-130334128D02*
X135630796Y-130426985D01*
X135630796Y-130426985D02*
X135711748Y-130488890D01*
X135711748Y-130488890D02*
X135792701Y-130519842D01*
X136602225Y-132030592D02*
X136602225Y-131380592D01*
X136602225Y-131380592D02*
X136399844Y-131380592D01*
X136399844Y-131380592D02*
X136278415Y-131411544D01*
X136278415Y-131411544D02*
X136197463Y-131473449D01*
X136197463Y-131473449D02*
X136156986Y-131535354D01*
X136156986Y-131535354D02*
X136116510Y-131659163D01*
X136116510Y-131659163D02*
X136116510Y-131752020D01*
X136116510Y-131752020D02*
X136156986Y-131875830D01*
X136156986Y-131875830D02*
X136197463Y-131937735D01*
X136197463Y-131937735D02*
X136278415Y-131999640D01*
X136278415Y-131999640D02*
X136399844Y-132030592D01*
X136399844Y-132030592D02*
X136602225Y-132030592D01*
X135792701Y-131442497D02*
X135752225Y-131411544D01*
X135752225Y-131411544D02*
X135671272Y-131380592D01*
X135671272Y-131380592D02*
X135468891Y-131380592D01*
X135468891Y-131380592D02*
X135387939Y-131411544D01*
X135387939Y-131411544D02*
X135347463Y-131442497D01*
X135347463Y-131442497D02*
X135306986Y-131504401D01*
X135306986Y-131504401D02*
X135306986Y-131566306D01*
X135306986Y-131566306D02*
X135347463Y-131659163D01*
X135347463Y-131659163D02*
X135833177Y-132030592D01*
X135833177Y-132030592D02*
X135306986Y-132030592D01*
X136602225Y-133077056D02*
X136602225Y-132427056D01*
X136602225Y-132427056D02*
X136399844Y-132427056D01*
X136399844Y-132427056D02*
X136278415Y-132458008D01*
X136278415Y-132458008D02*
X136197463Y-132519913D01*
X136197463Y-132519913D02*
X136156986Y-132581818D01*
X136156986Y-132581818D02*
X136116510Y-132705627D01*
X136116510Y-132705627D02*
X136116510Y-132798484D01*
X136116510Y-132798484D02*
X136156986Y-132922294D01*
X136156986Y-132922294D02*
X136197463Y-132984199D01*
X136197463Y-132984199D02*
X136278415Y-133046104D01*
X136278415Y-133046104D02*
X136399844Y-133077056D01*
X136399844Y-133077056D02*
X136602225Y-133077056D01*
X135833177Y-132427056D02*
X135306986Y-132427056D01*
X135306986Y-132427056D02*
X135590320Y-132674675D01*
X135590320Y-132674675D02*
X135468891Y-132674675D01*
X135468891Y-132674675D02*
X135387939Y-132705627D01*
X135387939Y-132705627D02*
X135347463Y-132736580D01*
X135347463Y-132736580D02*
X135306986Y-132798484D01*
X135306986Y-132798484D02*
X135306986Y-132953246D01*
X135306986Y-132953246D02*
X135347463Y-133015151D01*
X135347463Y-133015151D02*
X135387939Y-133046104D01*
X135387939Y-133046104D02*
X135468891Y-133077056D01*
X135468891Y-133077056D02*
X135711748Y-133077056D01*
X135711748Y-133077056D02*
X135792701Y-133046104D01*
X135792701Y-133046104D02*
X135833177Y-133015151D01*
X136602225Y-134123520D02*
X136602225Y-133473520D01*
X136602225Y-133473520D02*
X136399844Y-133473520D01*
X136399844Y-133473520D02*
X136278415Y-133504472D01*
X136278415Y-133504472D02*
X136197463Y-133566377D01*
X136197463Y-133566377D02*
X136156986Y-133628282D01*
X136156986Y-133628282D02*
X136116510Y-133752091D01*
X136116510Y-133752091D02*
X136116510Y-133844948D01*
X136116510Y-133844948D02*
X136156986Y-133968758D01*
X136156986Y-133968758D02*
X136197463Y-134030663D01*
X136197463Y-134030663D02*
X136278415Y-134092568D01*
X136278415Y-134092568D02*
X136399844Y-134123520D01*
X136399844Y-134123520D02*
X136602225Y-134123520D01*
X135387939Y-133690187D02*
X135387939Y-134123520D01*
X135590320Y-133442568D02*
X135792701Y-133906853D01*
X135792701Y-133906853D02*
X135266510Y-133906853D01*
X136602225Y-135169984D02*
X136602225Y-134519984D01*
X136602225Y-134519984D02*
X136399844Y-134519984D01*
X136399844Y-134519984D02*
X136278415Y-134550936D01*
X136278415Y-134550936D02*
X136197463Y-134612841D01*
X136197463Y-134612841D02*
X136156986Y-134674746D01*
X136156986Y-134674746D02*
X136116510Y-134798555D01*
X136116510Y-134798555D02*
X136116510Y-134891412D01*
X136116510Y-134891412D02*
X136156986Y-135015222D01*
X136156986Y-135015222D02*
X136197463Y-135077127D01*
X136197463Y-135077127D02*
X136278415Y-135139032D01*
X136278415Y-135139032D02*
X136399844Y-135169984D01*
X136399844Y-135169984D02*
X136602225Y-135169984D01*
X135347463Y-134519984D02*
X135752225Y-134519984D01*
X135752225Y-134519984D02*
X135792701Y-134829508D01*
X135792701Y-134829508D02*
X135752225Y-134798555D01*
X135752225Y-134798555D02*
X135671272Y-134767603D01*
X135671272Y-134767603D02*
X135468891Y-134767603D01*
X135468891Y-134767603D02*
X135387939Y-134798555D01*
X135387939Y-134798555D02*
X135347463Y-134829508D01*
X135347463Y-134829508D02*
X135306986Y-134891412D01*
X135306986Y-134891412D02*
X135306986Y-135046174D01*
X135306986Y-135046174D02*
X135347463Y-135108079D01*
X135347463Y-135108079D02*
X135387939Y-135139032D01*
X135387939Y-135139032D02*
X135468891Y-135169984D01*
X135468891Y-135169984D02*
X135671272Y-135169984D01*
X135671272Y-135169984D02*
X135752225Y-135139032D01*
X135752225Y-135139032D02*
X135792701Y-135108079D01*
X136602225Y-136216448D02*
X136602225Y-135566448D01*
X136602225Y-135566448D02*
X136399844Y-135566448D01*
X136399844Y-135566448D02*
X136278415Y-135597400D01*
X136278415Y-135597400D02*
X136197463Y-135659305D01*
X136197463Y-135659305D02*
X136156986Y-135721210D01*
X136156986Y-135721210D02*
X136116510Y-135845019D01*
X136116510Y-135845019D02*
X136116510Y-135937876D01*
X136116510Y-135937876D02*
X136156986Y-136061686D01*
X136156986Y-136061686D02*
X136197463Y-136123591D01*
X136197463Y-136123591D02*
X136278415Y-136185496D01*
X136278415Y-136185496D02*
X136399844Y-136216448D01*
X136399844Y-136216448D02*
X136602225Y-136216448D01*
X135387939Y-135566448D02*
X135549844Y-135566448D01*
X135549844Y-135566448D02*
X135630796Y-135597400D01*
X135630796Y-135597400D02*
X135671272Y-135628353D01*
X135671272Y-135628353D02*
X135752225Y-135721210D01*
X135752225Y-135721210D02*
X135792701Y-135845019D01*
X135792701Y-135845019D02*
X135792701Y-136092638D01*
X135792701Y-136092638D02*
X135752225Y-136154543D01*
X135752225Y-136154543D02*
X135711748Y-136185496D01*
X135711748Y-136185496D02*
X135630796Y-136216448D01*
X135630796Y-136216448D02*
X135468891Y-136216448D01*
X135468891Y-136216448D02*
X135387939Y-136185496D01*
X135387939Y-136185496D02*
X135347463Y-136154543D01*
X135347463Y-136154543D02*
X135306986Y-136092638D01*
X135306986Y-136092638D02*
X135306986Y-135937876D01*
X135306986Y-135937876D02*
X135347463Y-135875972D01*
X135347463Y-135875972D02*
X135387939Y-135845019D01*
X135387939Y-135845019D02*
X135468891Y-135814067D01*
X135468891Y-135814067D02*
X135630796Y-135814067D01*
X135630796Y-135814067D02*
X135711748Y-135845019D01*
X135711748Y-135845019D02*
X135752225Y-135875972D01*
X135752225Y-135875972D02*
X135792701Y-135937876D01*
X136602225Y-137262912D02*
X136602225Y-136612912D01*
X136602225Y-136612912D02*
X136399844Y-136612912D01*
X136399844Y-136612912D02*
X136278415Y-136643864D01*
X136278415Y-136643864D02*
X136197463Y-136705769D01*
X136197463Y-136705769D02*
X136156986Y-136767674D01*
X136156986Y-136767674D02*
X136116510Y-136891483D01*
X136116510Y-136891483D02*
X136116510Y-136984340D01*
X136116510Y-136984340D02*
X136156986Y-137108150D01*
X136156986Y-137108150D02*
X136197463Y-137170055D01*
X136197463Y-137170055D02*
X136278415Y-137231960D01*
X136278415Y-137231960D02*
X136399844Y-137262912D01*
X136399844Y-137262912D02*
X136602225Y-137262912D01*
X135833177Y-136612912D02*
X135266510Y-136612912D01*
X135266510Y-136612912D02*
X135630796Y-137262912D01*
D11*
X207820833Y-96734819D02*
X207820833Y-97449104D01*
X207820833Y-97449104D02*
X207868452Y-97591961D01*
X207868452Y-97591961D02*
X207963690Y-97687200D01*
X207963690Y-97687200D02*
X208106547Y-97734819D01*
X208106547Y-97734819D02*
X208201785Y-97734819D01*
X207344642Y-97734819D02*
X207344642Y-96734819D01*
X207344642Y-96734819D02*
X206963690Y-96734819D01*
X206963690Y-96734819D02*
X206868452Y-96782438D01*
X206868452Y-96782438D02*
X206820833Y-96830057D01*
X206820833Y-96830057D02*
X206773214Y-96925295D01*
X206773214Y-96925295D02*
X206773214Y-97068152D01*
X206773214Y-97068152D02*
X206820833Y-97163390D01*
X206820833Y-97163390D02*
X206868452Y-97211009D01*
X206868452Y-97211009D02*
X206963690Y-97258628D01*
X206963690Y-97258628D02*
X207344642Y-97258628D01*
X206392261Y-96830057D02*
X206344642Y-96782438D01*
X206344642Y-96782438D02*
X206249404Y-96734819D01*
X206249404Y-96734819D02*
X206011309Y-96734819D01*
X206011309Y-96734819D02*
X205916071Y-96782438D01*
X205916071Y-96782438D02*
X205868452Y-96830057D01*
X205868452Y-96830057D02*
X205820833Y-96925295D01*
X205820833Y-96925295D02*
X205820833Y-97020533D01*
X205820833Y-97020533D02*
X205868452Y-97163390D01*
X205868452Y-97163390D02*
X206439880Y-97734819D01*
X206439880Y-97734819D02*
X205820833Y-97734819D01*
X187392319Y-96768095D02*
X187392319Y-97339523D01*
X188392319Y-97053809D02*
X187392319Y-97053809D01*
X188392319Y-97672857D02*
X187392319Y-97672857D01*
X187392319Y-97672857D02*
X187392319Y-98053809D01*
X187392319Y-98053809D02*
X187439938Y-98149047D01*
X187439938Y-98149047D02*
X187487557Y-98196666D01*
X187487557Y-98196666D02*
X187582795Y-98244285D01*
X187582795Y-98244285D02*
X187725652Y-98244285D01*
X187725652Y-98244285D02*
X187820890Y-98196666D01*
X187820890Y-98196666D02*
X187868509Y-98149047D01*
X187868509Y-98149047D02*
X187916128Y-98053809D01*
X187916128Y-98053809D02*
X187916128Y-97672857D01*
X187487557Y-98625238D02*
X187439938Y-98672857D01*
X187439938Y-98672857D02*
X187392319Y-98768095D01*
X187392319Y-98768095D02*
X187392319Y-99006190D01*
X187392319Y-99006190D02*
X187439938Y-99101428D01*
X187439938Y-99101428D02*
X187487557Y-99149047D01*
X187487557Y-99149047D02*
X187582795Y-99196666D01*
X187582795Y-99196666D02*
X187678033Y-99196666D01*
X187678033Y-99196666D02*
X187820890Y-99149047D01*
X187820890Y-99149047D02*
X188392319Y-98577619D01*
X188392319Y-98577619D02*
X188392319Y-99196666D01*
X199770833Y-96734819D02*
X199770833Y-97449104D01*
X199770833Y-97449104D02*
X199818452Y-97591961D01*
X199818452Y-97591961D02*
X199913690Y-97687200D01*
X199913690Y-97687200D02*
X200056547Y-97734819D01*
X200056547Y-97734819D02*
X200151785Y-97734819D01*
X199294642Y-97734819D02*
X199294642Y-96734819D01*
X199294642Y-96734819D02*
X198913690Y-96734819D01*
X198913690Y-96734819D02*
X198818452Y-96782438D01*
X198818452Y-96782438D02*
X198770833Y-96830057D01*
X198770833Y-96830057D02*
X198723214Y-96925295D01*
X198723214Y-96925295D02*
X198723214Y-97068152D01*
X198723214Y-97068152D02*
X198770833Y-97163390D01*
X198770833Y-97163390D02*
X198818452Y-97211009D01*
X198818452Y-97211009D02*
X198913690Y-97258628D01*
X198913690Y-97258628D02*
X199294642Y-97258628D01*
X197770833Y-97734819D02*
X198342261Y-97734819D01*
X198056547Y-97734819D02*
X198056547Y-96734819D01*
X198056547Y-96734819D02*
X198151785Y-96877676D01*
X198151785Y-96877676D02*
X198247023Y-96972914D01*
X198247023Y-96972914D02*
X198342261Y-97020533D01*
X121338094Y-114854819D02*
X120766666Y-114854819D01*
X121052380Y-115854819D02*
X121052380Y-114854819D01*
X120433332Y-115854819D02*
X120433332Y-114854819D01*
X120433332Y-114854819D02*
X120052380Y-114854819D01*
X120052380Y-114854819D02*
X119957142Y-114902438D01*
X119957142Y-114902438D02*
X119909523Y-114950057D01*
X119909523Y-114950057D02*
X119861904Y-115045295D01*
X119861904Y-115045295D02*
X119861904Y-115188152D01*
X119861904Y-115188152D02*
X119909523Y-115283390D01*
X119909523Y-115283390D02*
X119957142Y-115331009D01*
X119957142Y-115331009D02*
X120052380Y-115378628D01*
X120052380Y-115378628D02*
X120433332Y-115378628D01*
X118909523Y-115854819D02*
X119480951Y-115854819D01*
X119195237Y-115854819D02*
X119195237Y-114854819D01*
X119195237Y-114854819D02*
X119290475Y-114997676D01*
X119290475Y-114997676D02*
X119385713Y-115092914D01*
X119385713Y-115092914D02*
X119480951Y-115140533D01*
X118052380Y-115188152D02*
X118052380Y-115854819D01*
X118290475Y-114807200D02*
X118528570Y-115521485D01*
X118528570Y-115521485D02*
X117909523Y-115521485D01*
X173361904Y-136584819D02*
X172790476Y-136584819D01*
X173076190Y-137584819D02*
X173076190Y-136584819D01*
X172457142Y-137584819D02*
X172457142Y-136584819D01*
X172457142Y-136584819D02*
X172076190Y-136584819D01*
X172076190Y-136584819D02*
X171980952Y-136632438D01*
X171980952Y-136632438D02*
X171933333Y-136680057D01*
X171933333Y-136680057D02*
X171885714Y-136775295D01*
X171885714Y-136775295D02*
X171885714Y-136918152D01*
X171885714Y-136918152D02*
X171933333Y-137013390D01*
X171933333Y-137013390D02*
X171980952Y-137061009D01*
X171980952Y-137061009D02*
X172076190Y-137108628D01*
X172076190Y-137108628D02*
X172457142Y-137108628D01*
X171552380Y-136584819D02*
X170933333Y-136584819D01*
X170933333Y-136584819D02*
X171266666Y-136965771D01*
X171266666Y-136965771D02*
X171123809Y-136965771D01*
X171123809Y-136965771D02*
X171028571Y-137013390D01*
X171028571Y-137013390D02*
X170980952Y-137061009D01*
X170980952Y-137061009D02*
X170933333Y-137156247D01*
X170933333Y-137156247D02*
X170933333Y-137394342D01*
X170933333Y-137394342D02*
X170980952Y-137489580D01*
X170980952Y-137489580D02*
X171028571Y-137537200D01*
X171028571Y-137537200D02*
X171123809Y-137584819D01*
X171123809Y-137584819D02*
X171409523Y-137584819D01*
X171409523Y-137584819D02*
X171504761Y-137537200D01*
X171504761Y-137537200D02*
X171552380Y-137489580D01*
X195642319Y-96818095D02*
X195642319Y-97389523D01*
X196642319Y-97103809D02*
X195642319Y-97103809D01*
X196642319Y-97722857D02*
X195642319Y-97722857D01*
X195642319Y-97722857D02*
X195642319Y-98103809D01*
X195642319Y-98103809D02*
X195689938Y-98199047D01*
X195689938Y-98199047D02*
X195737557Y-98246666D01*
X195737557Y-98246666D02*
X195832795Y-98294285D01*
X195832795Y-98294285D02*
X195975652Y-98294285D01*
X195975652Y-98294285D02*
X196070890Y-98246666D01*
X196070890Y-98246666D02*
X196118509Y-98199047D01*
X196118509Y-98199047D02*
X196166128Y-98103809D01*
X196166128Y-98103809D02*
X196166128Y-97722857D01*
X196642319Y-99246666D02*
X196642319Y-98675238D01*
X196642319Y-98960952D02*
X195642319Y-98960952D01*
X195642319Y-98960952D02*
X195785176Y-98865714D01*
X195785176Y-98865714D02*
X195880414Y-98770476D01*
X195880414Y-98770476D02*
X195928033Y-98675238D01*
D13*
%TO.C,JP2*%
X208637500Y-97580000D02*
X208637500Y-96980000D01*
X209337500Y-96280000D02*
X210737500Y-96280000D01*
X210737500Y-98280000D02*
X209337500Y-98280000D01*
X211437500Y-96980000D02*
X211437500Y-97580000D01*
X208637500Y-96980000D02*
G75*
G02*
X209337500Y-96280000I699999J1D01*
G01*
X209337500Y-98280000D02*
G75*
G02*
X208637500Y-97580000I-1J699999D01*
G01*
X210737500Y-96280000D02*
G75*
G02*
X211437500Y-96980000I0J-700000D01*
G01*
X211437500Y-97580000D02*
G75*
G02*
X210737500Y-98280000I-700000J0D01*
G01*
D14*
%TO.C,REF\u002A\u002A*%
X78965672Y-118774726D02*
X78994047Y-118802065D01*
X79076784Y-118885439D01*
X79186214Y-118998945D01*
X79317021Y-119136795D01*
X79463886Y-119293198D01*
X79621492Y-119462365D01*
X79784521Y-119638506D01*
X79947655Y-119815832D01*
X80105576Y-119988553D01*
X80252966Y-120150879D01*
X80384508Y-120297020D01*
X80494883Y-120421188D01*
X80578773Y-120517591D01*
X80630862Y-120580441D01*
X80645830Y-120603948D01*
X80640693Y-120606544D01*
X80591570Y-120633957D01*
X80494409Y-120689227D01*
X80353304Y-120769996D01*
X80172347Y-120873910D01*
X79955630Y-120998610D01*
X79707248Y-121141743D01*
X79431291Y-121300950D01*
X79131853Y-121473877D01*
X78813026Y-121658167D01*
X78478903Y-121851464D01*
X78354016Y-121923735D01*
X78025767Y-122113613D01*
X77714716Y-122293428D01*
X77424909Y-122460848D01*
X77160391Y-122613542D01*
X76925208Y-122749178D01*
X76723405Y-122865422D01*
X76559027Y-122959942D01*
X76436119Y-123030407D01*
X76358728Y-123074484D01*
X76330898Y-123089841D01*
X76332150Y-123081663D01*
X76354986Y-123034661D01*
X76396987Y-122959573D01*
X76422752Y-122915128D01*
X76477545Y-122820347D01*
X76558174Y-122680755D01*
X76662019Y-122500889D01*
X76786462Y-122285284D01*
X76928886Y-122038480D01*
X77086670Y-121765012D01*
X77257197Y-121469418D01*
X77437848Y-121156235D01*
X77626005Y-120830000D01*
X77810243Y-120510646D01*
X77989360Y-120200374D01*
X78157787Y-119908824D01*
X78312994Y-119640367D01*
X78452451Y-119399370D01*
X78573628Y-119190204D01*
X78673996Y-119017238D01*
X78751025Y-118884843D01*
X78802184Y-118797386D01*
X78824944Y-118759238D01*
X78871641Y-118686403D01*
X78965672Y-118774726D01*
G36*
X78965672Y-118774726D02*
G01*
X78994047Y-118802065D01*
X79076784Y-118885439D01*
X79186214Y-118998945D01*
X79317021Y-119136795D01*
X79463886Y-119293198D01*
X79621492Y-119462365D01*
X79784521Y-119638506D01*
X79947655Y-119815832D01*
X80105576Y-119988553D01*
X80252966Y-120150879D01*
X80384508Y-120297020D01*
X80494883Y-120421188D01*
X80578773Y-120517591D01*
X80630862Y-120580441D01*
X80645830Y-120603948D01*
X80640693Y-120606544D01*
X80591570Y-120633957D01*
X80494409Y-120689227D01*
X80353304Y-120769996D01*
X80172347Y-120873910D01*
X79955630Y-120998610D01*
X79707248Y-121141743D01*
X79431291Y-121300950D01*
X79131853Y-121473877D01*
X78813026Y-121658167D01*
X78478903Y-121851464D01*
X78354016Y-121923735D01*
X78025767Y-122113613D01*
X77714716Y-122293428D01*
X77424909Y-122460848D01*
X77160391Y-122613542D01*
X76925208Y-122749178D01*
X76723405Y-122865422D01*
X76559027Y-122959942D01*
X76436119Y-123030407D01*
X76358728Y-123074484D01*
X76330898Y-123089841D01*
X76332150Y-123081663D01*
X76354986Y-123034661D01*
X76396987Y-122959573D01*
X76422752Y-122915128D01*
X76477545Y-122820347D01*
X76558174Y-122680755D01*
X76662019Y-122500889D01*
X76786462Y-122285284D01*
X76928886Y-122038480D01*
X77086670Y-121765012D01*
X77257197Y-121469418D01*
X77437848Y-121156235D01*
X77626005Y-120830000D01*
X77810243Y-120510646D01*
X77989360Y-120200374D01*
X78157787Y-119908824D01*
X78312994Y-119640367D01*
X78452451Y-119399370D01*
X78573628Y-119190204D01*
X78673996Y-119017238D01*
X78751025Y-118884843D01*
X78802184Y-118797386D01*
X78824944Y-118759238D01*
X78871641Y-118686403D01*
X78965672Y-118774726D01*
G37*
X82491121Y-112436350D02*
X82514186Y-112471023D01*
X82565001Y-112554324D01*
X82641015Y-112681823D01*
X82739674Y-112849091D01*
X82858426Y-113051699D01*
X82994719Y-113285218D01*
X83146001Y-113545216D01*
X83309719Y-113827266D01*
X83483320Y-114126937D01*
X83664253Y-114439801D01*
X83849964Y-114761427D01*
X84037902Y-115087386D01*
X84225515Y-115413248D01*
X84410249Y-115734584D01*
X84589552Y-116046965D01*
X84760872Y-116345961D01*
X84921657Y-116627143D01*
X85069354Y-116886080D01*
X85201411Y-117118344D01*
X85315275Y-117319505D01*
X85408395Y-117485134D01*
X85478217Y-117610800D01*
X85522189Y-117692075D01*
X85537759Y-117724529D01*
X85537774Y-117724776D01*
X85512666Y-117758832D01*
X85440517Y-117816559D01*
X85328834Y-117892494D01*
X85185122Y-117981175D01*
X85088746Y-118037905D01*
X84950065Y-118116793D01*
X84853469Y-118166509D01*
X84792485Y-118189849D01*
X84760640Y-118189612D01*
X84751464Y-118168594D01*
X84750765Y-118165167D01*
X84724537Y-118123364D01*
X84668000Y-118052279D01*
X84591572Y-117965167D01*
X84556311Y-117927750D01*
X84446964Y-117827024D01*
X84326044Y-117740931D01*
X84186365Y-117666947D01*
X84020741Y-117602546D01*
X83821985Y-117545204D01*
X83582910Y-117492397D01*
X83296332Y-117441600D01*
X82955063Y-117390290D01*
X82562269Y-117332454D01*
X82182549Y-117270346D01*
X81850521Y-117208088D01*
X81558764Y-117143884D01*
X81299854Y-117075938D01*
X81066367Y-117002453D01*
X80850881Y-116921635D01*
X80645971Y-116831687D01*
X80495377Y-116757509D01*
X80351530Y-116679450D01*
X80237773Y-116609764D01*
X80162998Y-116553930D01*
X80136098Y-116517429D01*
X80136892Y-116514740D01*
X80158561Y-116471724D01*
X80207690Y-116381645D01*
X80281371Y-116249544D01*
X80376695Y-116080466D01*
X80490753Y-115879455D01*
X80620637Y-115651552D01*
X80763438Y-115401802D01*
X80916248Y-115135248D01*
X81076158Y-114856934D01*
X81240260Y-114571902D01*
X81405644Y-114285197D01*
X81569403Y-114001860D01*
X81728627Y-113726937D01*
X81880408Y-113465469D01*
X82021838Y-113222501D01*
X82150008Y-113003076D01*
X82262009Y-112812237D01*
X82354933Y-112655028D01*
X82425871Y-112536491D01*
X82471915Y-112461671D01*
X82490155Y-112435610D01*
X82491121Y-112436350D01*
G36*
X82491121Y-112436350D02*
G01*
X82514186Y-112471023D01*
X82565001Y-112554324D01*
X82641015Y-112681823D01*
X82739674Y-112849091D01*
X82858426Y-113051699D01*
X82994719Y-113285218D01*
X83146001Y-113545216D01*
X83309719Y-113827266D01*
X83483320Y-114126937D01*
X83664253Y-114439801D01*
X83849964Y-114761427D01*
X84037902Y-115087386D01*
X84225515Y-115413248D01*
X84410249Y-115734584D01*
X84589552Y-116046965D01*
X84760872Y-116345961D01*
X84921657Y-116627143D01*
X85069354Y-116886080D01*
X85201411Y-117118344D01*
X85315275Y-117319505D01*
X85408395Y-117485134D01*
X85478217Y-117610800D01*
X85522189Y-117692075D01*
X85537759Y-117724529D01*
X85537774Y-117724776D01*
X85512666Y-117758832D01*
X85440517Y-117816559D01*
X85328834Y-117892494D01*
X85185122Y-117981175D01*
X85088746Y-118037905D01*
X84950065Y-118116793D01*
X84853469Y-118166509D01*
X84792485Y-118189849D01*
X84760640Y-118189612D01*
X84751464Y-118168594D01*
X84750765Y-118165167D01*
X84724537Y-118123364D01*
X84668000Y-118052279D01*
X84591572Y-117965167D01*
X84556311Y-117927750D01*
X84446964Y-117827024D01*
X84326044Y-117740931D01*
X84186365Y-117666947D01*
X84020741Y-117602546D01*
X83821985Y-117545204D01*
X83582910Y-117492397D01*
X83296332Y-117441600D01*
X82955063Y-117390290D01*
X82562269Y-117332454D01*
X82182549Y-117270346D01*
X81850521Y-117208088D01*
X81558764Y-117143884D01*
X81299854Y-117075938D01*
X81066367Y-117002453D01*
X80850881Y-116921635D01*
X80645971Y-116831687D01*
X80495377Y-116757509D01*
X80351530Y-116679450D01*
X80237773Y-116609764D01*
X80162998Y-116553930D01*
X80136098Y-116517429D01*
X80136892Y-116514740D01*
X80158561Y-116471724D01*
X80207690Y-116381645D01*
X80281371Y-116249544D01*
X80376695Y-116080466D01*
X80490753Y-115879455D01*
X80620637Y-115651552D01*
X80763438Y-115401802D01*
X80916248Y-115135248D01*
X81076158Y-114856934D01*
X81240260Y-114571902D01*
X81405644Y-114285197D01*
X81569403Y-114001860D01*
X81728627Y-113726937D01*
X81880408Y-113465469D01*
X82021838Y-113222501D01*
X82150008Y-113003076D01*
X82262009Y-112812237D01*
X82354933Y-112655028D01*
X82425871Y-112536491D01*
X82471915Y-112461671D01*
X82490155Y-112435610D01*
X82491121Y-112436350D01*
G37*
X86220095Y-118882080D02*
X86231604Y-118899250D01*
X86272730Y-118966692D01*
X86340359Y-119080401D01*
X86431901Y-119235937D01*
X86544767Y-119428864D01*
X86676368Y-119654743D01*
X86824116Y-119909136D01*
X86985422Y-120187606D01*
X87157696Y-120485715D01*
X87338351Y-120799025D01*
X87387895Y-120885043D01*
X87583800Y-121225151D01*
X87781018Y-121567509D01*
X87975520Y-121905125D01*
X88163277Y-122231007D01*
X88340262Y-122538164D01*
X88502444Y-122819603D01*
X88645796Y-123068332D01*
X88766289Y-123277360D01*
X88859894Y-123439695D01*
X89302061Y-124206342D01*
X83102152Y-124206342D01*
X82845843Y-124206319D01*
X82235000Y-124206085D01*
X81642864Y-124205604D01*
X81072319Y-124204889D01*
X80526247Y-124203952D01*
X80007531Y-124202807D01*
X79519054Y-124201464D01*
X79063699Y-124199937D01*
X78644348Y-124198238D01*
X78263886Y-124196379D01*
X77925194Y-124194373D01*
X77631156Y-124192231D01*
X77384654Y-124189966D01*
X77188572Y-124187592D01*
X77045792Y-124185118D01*
X76959197Y-124182560D01*
X76931671Y-124179927D01*
X76952109Y-124166608D01*
X77022622Y-124124167D01*
X77138443Y-124055841D01*
X77294861Y-123964342D01*
X77487166Y-123852380D01*
X77710646Y-123722666D01*
X77960592Y-123577908D01*
X78232292Y-123420819D01*
X78521036Y-123254109D01*
X78822112Y-123080487D01*
X79130811Y-122902665D01*
X79442421Y-122723352D01*
X79752232Y-122545259D01*
X80055533Y-122371097D01*
X80347613Y-122203576D01*
X80623762Y-122045406D01*
X80879268Y-121899298D01*
X81109422Y-121767962D01*
X81309512Y-121654109D01*
X81474828Y-121560449D01*
X81600659Y-121489692D01*
X81682294Y-121444548D01*
X81715022Y-121427729D01*
X81736379Y-121431898D01*
X81800716Y-121469817D01*
X81892443Y-121540065D01*
X82001480Y-121635339D01*
X82099690Y-121730713D01*
X82224778Y-121860633D01*
X82364737Y-122012311D01*
X82512393Y-122177396D01*
X82660571Y-122347536D01*
X82802097Y-122514381D01*
X82929797Y-122669578D01*
X83036495Y-122804778D01*
X83115018Y-122911628D01*
X83158191Y-122981778D01*
X83187012Y-123033010D01*
X83265287Y-123139032D01*
X83365917Y-123251825D01*
X83474553Y-123356924D01*
X83576848Y-123439861D01*
X83658455Y-123486172D01*
X83748584Y-123496876D01*
X83868853Y-123467291D01*
X83983158Y-123399453D01*
X84071866Y-123302106D01*
X84087227Y-123276850D01*
X84106784Y-123235487D01*
X84119531Y-123185708D01*
X84126285Y-123116819D01*
X84127863Y-123018124D01*
X84125082Y-122878929D01*
X84118762Y-122688537D01*
X84114233Y-122578404D01*
X84104609Y-122404234D01*
X84093251Y-122251799D01*
X84081217Y-122134498D01*
X84069566Y-122065732D01*
X84041358Y-121987176D01*
X83957733Y-121832480D01*
X83827790Y-121649183D01*
X83649941Y-121435134D01*
X83422600Y-121188180D01*
X83323944Y-121084132D01*
X83209876Y-120961393D01*
X83115729Y-120857330D01*
X83049248Y-120780533D01*
X83018178Y-120739593D01*
X83014984Y-120733092D01*
X83011154Y-120705107D01*
X83030290Y-120674078D01*
X83080230Y-120633319D01*
X83168813Y-120576143D01*
X83303876Y-120495864D01*
X83418695Y-120428844D01*
X83629984Y-120306247D01*
X83796342Y-120211018D01*
X83923356Y-120140066D01*
X84016613Y-120090299D01*
X84081701Y-120058626D01*
X84124208Y-120041954D01*
X84168194Y-120023456D01*
X84193903Y-119998615D01*
X84196308Y-119992756D01*
X84233923Y-119960168D01*
X84302670Y-119918196D01*
X84411438Y-119859621D01*
X84491748Y-119934384D01*
X84520115Y-119964673D01*
X84586111Y-120046987D01*
X84666693Y-120156891D01*
X84750365Y-120279062D01*
X84928672Y-120548978D01*
X84914678Y-121948470D01*
X84812787Y-122047467D01*
X84778549Y-122082759D01*
X84668753Y-122241320D01*
X84604661Y-122429870D01*
X84582824Y-122657561D01*
X84588247Y-122779559D01*
X84626522Y-122994756D01*
X84696282Y-123191166D01*
X84791484Y-123348764D01*
X84857590Y-123406228D01*
X84975099Y-123449875D01*
X85108122Y-123454909D01*
X85239632Y-123423656D01*
X85352603Y-123358440D01*
X85430007Y-123261586D01*
X85432540Y-123256337D01*
X85479327Y-123160451D01*
X85528879Y-123060244D01*
X85570945Y-122966174D01*
X85631288Y-122807621D01*
X85697864Y-122612145D01*
X85768359Y-122388457D01*
X85840458Y-122145269D01*
X85911850Y-121891290D01*
X85980220Y-121635232D01*
X86043254Y-121385804D01*
X86098640Y-121151719D01*
X86144064Y-120941687D01*
X86177212Y-120764418D01*
X86195771Y-120628624D01*
X86197428Y-120543014D01*
X86193695Y-120523565D01*
X86157317Y-120425112D01*
X86089814Y-120293398D01*
X85997110Y-120140331D01*
X85961529Y-120085170D01*
X85818565Y-119860245D01*
X85697040Y-119663544D01*
X85599634Y-119499665D01*
X85529029Y-119373210D01*
X85487904Y-119288780D01*
X85478939Y-119250974D01*
X85479977Y-119249641D01*
X85517090Y-119222410D01*
X85596404Y-119172638D01*
X85707053Y-119106952D01*
X85838168Y-119031977D01*
X85849253Y-119025752D01*
X85991615Y-118947425D01*
X86090763Y-118897473D01*
X86155813Y-118872317D01*
X86195885Y-118868379D01*
X86220095Y-118882080D01*
G36*
X86220095Y-118882080D02*
G01*
X86231604Y-118899250D01*
X86272730Y-118966692D01*
X86340359Y-119080401D01*
X86431901Y-119235937D01*
X86544767Y-119428864D01*
X86676368Y-119654743D01*
X86824116Y-119909136D01*
X86985422Y-120187606D01*
X87157696Y-120485715D01*
X87338351Y-120799025D01*
X87387895Y-120885043D01*
X87583800Y-121225151D01*
X87781018Y-121567509D01*
X87975520Y-121905125D01*
X88163277Y-122231007D01*
X88340262Y-122538164D01*
X88502444Y-122819603D01*
X88645796Y-123068332D01*
X88766289Y-123277360D01*
X88859894Y-123439695D01*
X89302061Y-124206342D01*
X83102152Y-124206342D01*
X82845843Y-124206319D01*
X82235000Y-124206085D01*
X81642864Y-124205604D01*
X81072319Y-124204889D01*
X80526247Y-124203952D01*
X80007531Y-124202807D01*
X79519054Y-124201464D01*
X79063699Y-124199937D01*
X78644348Y-124198238D01*
X78263886Y-124196379D01*
X77925194Y-124194373D01*
X77631156Y-124192231D01*
X77384654Y-124189966D01*
X77188572Y-124187592D01*
X77045792Y-124185118D01*
X76959197Y-124182560D01*
X76931671Y-124179927D01*
X76952109Y-124166608D01*
X77022622Y-124124167D01*
X77138443Y-124055841D01*
X77294861Y-123964342D01*
X77487166Y-123852380D01*
X77710646Y-123722666D01*
X77960592Y-123577908D01*
X78232292Y-123420819D01*
X78521036Y-123254109D01*
X78822112Y-123080487D01*
X79130811Y-122902665D01*
X79442421Y-122723352D01*
X79752232Y-122545259D01*
X80055533Y-122371097D01*
X80347613Y-122203576D01*
X80623762Y-122045406D01*
X80879268Y-121899298D01*
X81109422Y-121767962D01*
X81309512Y-121654109D01*
X81474828Y-121560449D01*
X81600659Y-121489692D01*
X81682294Y-121444548D01*
X81715022Y-121427729D01*
X81736379Y-121431898D01*
X81800716Y-121469817D01*
X81892443Y-121540065D01*
X82001480Y-121635339D01*
X82099690Y-121730713D01*
X82224778Y-121860633D01*
X82364737Y-122012311D01*
X82512393Y-122177396D01*
X82660571Y-122347536D01*
X82802097Y-122514381D01*
X82929797Y-122669578D01*
X83036495Y-122804778D01*
X83115018Y-122911628D01*
X83158191Y-122981778D01*
X83187012Y-123033010D01*
X83265287Y-123139032D01*
X83365917Y-123251825D01*
X83474553Y-123356924D01*
X83576848Y-123439861D01*
X83658455Y-123486172D01*
X83748584Y-123496876D01*
X83868853Y-123467291D01*
X83983158Y-123399453D01*
X84071866Y-123302106D01*
X84087227Y-123276850D01*
X84106784Y-123235487D01*
X84119531Y-123185708D01*
X84126285Y-123116819D01*
X84127863Y-123018124D01*
X84125082Y-122878929D01*
X84118762Y-122688537D01*
X84114233Y-122578404D01*
X84104609Y-122404234D01*
X84093251Y-122251799D01*
X84081217Y-122134498D01*
X84069566Y-122065732D01*
X84041358Y-121987176D01*
X83957733Y-121832480D01*
X83827790Y-121649183D01*
X83649941Y-121435134D01*
X83422600Y-121188180D01*
X83323944Y-121084132D01*
X83209876Y-120961393D01*
X83115729Y-120857330D01*
X83049248Y-120780533D01*
X83018178Y-120739593D01*
X83014984Y-120733092D01*
X83011154Y-120705107D01*
X83030290Y-120674078D01*
X83080230Y-120633319D01*
X83168813Y-120576143D01*
X83303876Y-120495864D01*
X83418695Y-120428844D01*
X83629984Y-120306247D01*
X83796342Y-120211018D01*
X83923356Y-120140066D01*
X84016613Y-120090299D01*
X84081701Y-120058626D01*
X84124208Y-120041954D01*
X84168194Y-120023456D01*
X84193903Y-119998615D01*
X84196308Y-119992756D01*
X84233923Y-119960168D01*
X84302670Y-119918196D01*
X84411438Y-119859621D01*
X84491748Y-119934384D01*
X84520115Y-119964673D01*
X84586111Y-120046987D01*
X84666693Y-120156891D01*
X84750365Y-120279062D01*
X84928672Y-120548978D01*
X84914678Y-121948470D01*
X84812787Y-122047467D01*
X84778549Y-122082759D01*
X84668753Y-122241320D01*
X84604661Y-122429870D01*
X84582824Y-122657561D01*
X84588247Y-122779559D01*
X84626522Y-122994756D01*
X84696282Y-123191166D01*
X84791484Y-123348764D01*
X84857590Y-123406228D01*
X84975099Y-123449875D01*
X85108122Y-123454909D01*
X85239632Y-123423656D01*
X85352603Y-123358440D01*
X85430007Y-123261586D01*
X85432540Y-123256337D01*
X85479327Y-123160451D01*
X85528879Y-123060244D01*
X85570945Y-122966174D01*
X85631288Y-122807621D01*
X85697864Y-122612145D01*
X85768359Y-122388457D01*
X85840458Y-122145269D01*
X85911850Y-121891290D01*
X85980220Y-121635232D01*
X86043254Y-121385804D01*
X86098640Y-121151719D01*
X86144064Y-120941687D01*
X86177212Y-120764418D01*
X86195771Y-120628624D01*
X86197428Y-120543014D01*
X86193695Y-120523565D01*
X86157317Y-120425112D01*
X86089814Y-120293398D01*
X85997110Y-120140331D01*
X85961529Y-120085170D01*
X85818565Y-119860245D01*
X85697040Y-119663544D01*
X85599634Y-119499665D01*
X85529029Y-119373210D01*
X85487904Y-119288780D01*
X85478939Y-119250974D01*
X85479977Y-119249641D01*
X85517090Y-119222410D01*
X85596404Y-119172638D01*
X85707053Y-119106952D01*
X85838168Y-119031977D01*
X85849253Y-119025752D01*
X85991615Y-118947425D01*
X86090763Y-118897473D01*
X86155813Y-118872317D01*
X86195885Y-118868379D01*
X86220095Y-118882080D01*
G37*
D13*
%TO.C,TP2*%
X191338500Y-99730000D02*
G75*
G02*
X188836500Y-99730000I-1251000J0D01*
G01*
X188836500Y-99730000D02*
G75*
G02*
X191338500Y-99730000I1251000J0D01*
G01*
%TO.C,JP1*%
X200587500Y-97580000D02*
X200587500Y-96980000D01*
X201287500Y-96280000D02*
X202687500Y-96280000D01*
X202687500Y-98280000D02*
X201287500Y-98280000D01*
X203387500Y-96980000D02*
X203387500Y-97580000D01*
X200587500Y-96980000D02*
G75*
G02*
X201287500Y-96280000I699999J1D01*
G01*
X201287500Y-98280000D02*
G75*
G02*
X200587500Y-97580000I-1J699999D01*
G01*
X202687500Y-96280000D02*
G75*
G02*
X203387500Y-96980000I0J-700000D01*
G01*
X203387500Y-97580000D02*
G75*
G02*
X202687500Y-98280000I-700000J0D01*
G01*
%TO.C,TP14*%
X120410000Y-113720000D02*
G75*
G02*
X119010000Y-113720000I-700000J0D01*
G01*
X119010000Y-113720000D02*
G75*
G02*
X120410000Y-113720000I700000J0D01*
G01*
%TO.C,TP3*%
X173351000Y-134880000D02*
G75*
G02*
X170849000Y-134880000I-1251000J0D01*
G01*
X170849000Y-134880000D02*
G75*
G02*
X173351000Y-134880000I1251000J0D01*
G01*
%TO.C,TP1*%
X195238500Y-99780000D02*
G75*
G02*
X192736500Y-99780000I-1251000J0D01*
G01*
X192736500Y-99780000D02*
G75*
G02*
X195238500Y-99780000I1251000J0D01*
G01*
%TD*%
M02*
