%TF.GenerationSoftware,KiCad,Pcbnew,8.0.1*%
%TF.CreationDate,2024-06-09T19:14:09+02:00*%
%TF.ProjectId,daqIONA,64617149-4f4e-4412-9e6b-696361645f70,rev?*%
%TF.SameCoordinates,Original*%
%TF.FileFunction,Paste,Top*%
%TF.FilePolarity,Positive*%
%FSLAX46Y46*%
G04 Gerber Fmt 4.6, Leading zero omitted, Abs format (unit mm)*
G04 Created by KiCad (PCBNEW 8.0.1) date 2024-06-09 19:14:09*
%MOMM*%
%LPD*%
G01*
G04 APERTURE LIST*
G04 Aperture macros list*
%AMRoundRect*
0 Rectangle with rounded corners*
0 $1 Rounding radius*
0 $2 $3 $4 $5 $6 $7 $8 $9 X,Y pos of 4 corners*
0 Add a 4 corners polygon primitive as box body*
4,1,4,$2,$3,$4,$5,$6,$7,$8,$9,$2,$3,0*
0 Add four circle primitives for the rounded corners*
1,1,$1+$1,$2,$3*
1,1,$1+$1,$4,$5*
1,1,$1+$1,$6,$7*
1,1,$1+$1,$8,$9*
0 Add four rect primitives between the rounded corners*
20,1,$1+$1,$2,$3,$4,$5,0*
20,1,$1+$1,$4,$5,$6,$7,0*
20,1,$1+$1,$6,$7,$8,$9,0*
20,1,$1+$1,$8,$9,$2,$3,0*%
G04 Aperture macros list end*
%ADD10RoundRect,0.250000X-0.450000X0.350000X-0.450000X-0.350000X0.450000X-0.350000X0.450000X0.350000X0*%
%ADD11RoundRect,0.250000X-0.362500X-0.700000X0.362500X-0.700000X0.362500X0.700000X-0.362500X0.700000X0*%
%ADD12RoundRect,0.250000X-0.337500X-0.475000X0.337500X-0.475000X0.337500X0.475000X-0.337500X0.475000X0*%
%ADD13RoundRect,0.250000X-0.350000X-0.450000X0.350000X-0.450000X0.350000X0.450000X-0.350000X0.450000X0*%
%ADD14RoundRect,0.250000X0.475000X-0.337500X0.475000X0.337500X-0.475000X0.337500X-0.475000X-0.337500X0*%
%ADD15RoundRect,0.250001X-0.624999X0.462499X-0.624999X-0.462499X0.624999X-0.462499X0.624999X0.462499X0*%
%ADD16RoundRect,0.250000X-0.625000X0.400000X-0.625000X-0.400000X0.625000X-0.400000X0.625000X0.400000X0*%
%ADD17RoundRect,0.250000X-0.400000X-0.625000X0.400000X-0.625000X0.400000X0.625000X-0.400000X0.625000X0*%
%ADD18RoundRect,0.250000X0.650000X-0.325000X0.650000X0.325000X-0.650000X0.325000X-0.650000X-0.325000X0*%
%ADD19RoundRect,0.250000X-0.475000X0.337500X-0.475000X-0.337500X0.475000X-0.337500X0.475000X0.337500X0*%
%ADD20RoundRect,0.150000X0.587500X0.150000X-0.587500X0.150000X-0.587500X-0.150000X0.587500X-0.150000X0*%
%ADD21R,1.950000X1.650000*%
%ADD22RoundRect,0.250000X0.700000X-0.362500X0.700000X0.362500X-0.700000X0.362500X-0.700000X-0.362500X0*%
%ADD23RoundRect,0.250000X0.450000X-0.350000X0.450000X0.350000X-0.450000X0.350000X-0.450000X-0.350000X0*%
%ADD24RoundRect,0.250000X0.350000X0.450000X-0.350000X0.450000X-0.350000X-0.450000X0.350000X-0.450000X0*%
%ADD25RoundRect,0.150000X0.150000X-0.512500X0.150000X0.512500X-0.150000X0.512500X-0.150000X-0.512500X0*%
%ADD26R,1.200000X0.400000*%
%ADD27RoundRect,0.250000X0.400000X0.625000X-0.400000X0.625000X-0.400000X-0.625000X0.400000X-0.625000X0*%
%ADD28RoundRect,0.250000X0.700000X-1.825000X0.700000X1.825000X-0.700000X1.825000X-0.700000X-1.825000X0*%
%ADD29RoundRect,0.250000X0.337500X0.475000X-0.337500X0.475000X-0.337500X-0.475000X0.337500X-0.475000X0*%
%ADD30RoundRect,0.150000X0.150000X-0.587500X0.150000X0.587500X-0.150000X0.587500X-0.150000X-0.587500X0*%
%ADD31RoundRect,0.250000X-1.100000X0.500000X-1.100000X-0.500000X1.100000X-0.500000X1.100000X0.500000X0*%
%ADD32RoundRect,0.250000X-0.600000X0.400000X-0.600000X-0.400000X0.600000X-0.400000X0.600000X0.400000X0*%
%ADD33RoundRect,0.250000X-0.650000X0.325000X-0.650000X-0.325000X0.650000X-0.325000X0.650000X0.325000X0*%
%ADD34RoundRect,0.150000X-0.150000X0.512500X-0.150000X-0.512500X0.150000X-0.512500X0.150000X0.512500X0*%
%ADD35R,0.900000X1.100000*%
%ADD36R,5.100000X2.350000*%
%ADD37RoundRect,0.250000X0.315000X-0.315000X0.315000X0.315000X-0.315000X0.315000X-0.315000X-0.315000X0*%
%ADD38RoundRect,0.062500X0.062500X-0.362500X0.062500X0.362500X-0.062500X0.362500X-0.062500X-0.362500X0*%
%ADD39RoundRect,0.062500X0.362500X-0.062500X0.362500X0.062500X-0.362500X0.062500X-0.362500X-0.062500X0*%
%ADD40RoundRect,0.250001X0.624999X-0.462499X0.624999X0.462499X-0.624999X0.462499X-0.624999X-0.462499X0*%
%ADD41RoundRect,0.250000X-0.325000X-0.650000X0.325000X-0.650000X0.325000X0.650000X-0.325000X0.650000X0*%
%ADD42RoundRect,0.250000X-0.700000X1.825000X-0.700000X-1.825000X0.700000X-1.825000X0.700000X1.825000X0*%
%ADD43RoundRect,0.150000X0.512500X0.150000X-0.512500X0.150000X-0.512500X-0.150000X0.512500X-0.150000X0*%
%ADD44RoundRect,0.075000X0.075000X-0.700000X0.075000X0.700000X-0.075000X0.700000X-0.075000X-0.700000X0*%
%ADD45RoundRect,0.075000X0.700000X-0.075000X0.700000X0.075000X-0.700000X0.075000X-0.700000X-0.075000X0*%
%ADD46RoundRect,0.250001X0.462499X0.624999X-0.462499X0.624999X-0.462499X-0.624999X0.462499X-0.624999X0*%
%ADD47RoundRect,0.250000X0.625000X-0.400000X0.625000X0.400000X-0.625000X0.400000X-0.625000X-0.400000X0*%
%ADD48C,0.200000*%
%ADD49RoundRect,0.075000X-0.390000X-0.275000X0.390000X-0.275000X0.390000X0.275000X-0.390000X0.275000X0*%
%ADD50RoundRect,0.075000X-0.075000X-0.275000X0.075000X-0.275000X0.075000X0.275000X-0.075000X0.275000X0*%
%ADD51RoundRect,0.150000X0.150000X-0.650000X0.150000X0.650000X-0.150000X0.650000X-0.150000X-0.650000X0*%
%ADD52R,0.300000X1.000000*%
%ADD53R,1.650000X1.300000*%
G04 APERTURE END LIST*
D10*
%TO.C,R71*%
X116700000Y-105050000D03*
X116700000Y-107050000D03*
%TD*%
D11*
%TO.C,FB3*%
X147987500Y-103520000D03*
X151312500Y-103520000D03*
%TD*%
D12*
%TO.C,C51*%
X149252500Y-109630000D03*
X151327500Y-109630000D03*
%TD*%
D13*
%TO.C,R65*%
X129700000Y-147700000D03*
X131700000Y-147700000D03*
%TD*%
D12*
%TO.C,C55*%
X142060000Y-113220000D03*
X144135000Y-113220000D03*
%TD*%
D14*
%TO.C,C63*%
X149420000Y-137567500D03*
X149420000Y-135492500D03*
%TD*%
D15*
%TO.C,D10*%
X148381250Y-127142500D03*
X148381250Y-130117500D03*
%TD*%
D16*
%TO.C,R19*%
X107040000Y-112650000D03*
X107040000Y-115750000D03*
%TD*%
D10*
%TO.C,R9*%
X158390000Y-151050000D03*
X158390000Y-153050000D03*
%TD*%
D17*
%TO.C,R60*%
X101350000Y-151300000D03*
X104450000Y-151300000D03*
%TD*%
D16*
%TO.C,R39*%
X90640000Y-138750000D03*
X90640000Y-141850000D03*
%TD*%
D10*
%TO.C,R88*%
X121260000Y-96940000D03*
X121260000Y-98940000D03*
%TD*%
D18*
%TO.C,C53*%
X147290000Y-138425000D03*
X147290000Y-135475000D03*
%TD*%
D16*
%TO.C,R48*%
X76840000Y-119350000D03*
X76840000Y-122450000D03*
%TD*%
D19*
%TO.C,C38*%
X126850000Y-126262500D03*
X126850000Y-128337500D03*
%TD*%
D20*
%TO.C,Q1*%
X141957500Y-160680000D03*
X141957500Y-158780000D03*
X140082500Y-159730000D03*
%TD*%
D14*
%TO.C,C4*%
X188420000Y-87867500D03*
X188420000Y-85792500D03*
%TD*%
D21*
%TO.C,X2*%
X141325000Y-120430000D03*
X144075000Y-120430000D03*
X144075000Y-118230000D03*
X141325000Y-118230000D03*
%TD*%
D22*
%TO.C,FB1*%
X117450000Y-124175000D03*
X117450000Y-120850000D03*
%TD*%
D19*
%TO.C,C7*%
X145905000Y-145342500D03*
X145905000Y-147417500D03*
%TD*%
D16*
%TO.C,R41*%
X79640000Y-106150000D03*
X79640000Y-109250000D03*
%TD*%
%TO.C,R30*%
X93440000Y-106350000D03*
X93440000Y-109450000D03*
%TD*%
D13*
%TO.C,R6*%
X151435000Y-139770000D03*
X153435000Y-139770000D03*
%TD*%
D16*
%TO.C,R31*%
X93440000Y-112750000D03*
X93440000Y-115850000D03*
%TD*%
D13*
%TO.C,R5*%
X155245000Y-141680000D03*
X157245000Y-141680000D03*
%TD*%
D23*
%TO.C,R17*%
X64500000Y-147700000D03*
X64500000Y-145700000D03*
%TD*%
D10*
%TO.C,R68*%
X127500000Y-151600000D03*
X127500000Y-153600000D03*
%TD*%
D12*
%TO.C,C49*%
X149252500Y-105710000D03*
X151327500Y-105710000D03*
%TD*%
D10*
%TO.C,R29*%
X98690000Y-141600000D03*
X98690000Y-143600000D03*
%TD*%
D19*
%TO.C,C46*%
X127610000Y-114822500D03*
X127610000Y-116897500D03*
%TD*%
D23*
%TO.C,R58*%
X128700000Y-97200000D03*
X128700000Y-95200000D03*
%TD*%
D24*
%TO.C,R7*%
X181410000Y-146460000D03*
X179410000Y-146460000D03*
%TD*%
D15*
%TO.C,D8*%
X88800000Y-148412500D03*
X88800000Y-151387500D03*
%TD*%
D25*
%TO.C,U9*%
X106750000Y-151437500D03*
X107700000Y-151437500D03*
X108650000Y-151437500D03*
X108650000Y-149162500D03*
X107700000Y-149162500D03*
X106750000Y-149162500D03*
%TD*%
D26*
%TO.C,U20*%
X162170000Y-89370000D03*
X162170000Y-88735000D03*
X162170000Y-88100000D03*
X162170000Y-87465000D03*
X162170000Y-86830000D03*
X162170000Y-86195000D03*
X162170000Y-85560000D03*
X162170000Y-84925000D03*
X156970000Y-84925000D03*
X156970000Y-85560000D03*
X156970000Y-86195000D03*
X156970000Y-86830000D03*
X156970000Y-87465000D03*
X156970000Y-88100000D03*
X156970000Y-88735000D03*
X156970000Y-89370000D03*
%TD*%
D19*
%TO.C,C39*%
X128650000Y-120868750D03*
X128650000Y-122943750D03*
%TD*%
D15*
%TO.C,D1*%
X200787500Y-91542500D03*
X200787500Y-94517500D03*
%TD*%
D27*
%TO.C,R57*%
X86650000Y-151362500D03*
X83550000Y-151362500D03*
%TD*%
D19*
%TO.C,C35*%
X119700000Y-120825000D03*
X119700000Y-122900000D03*
%TD*%
D13*
%TO.C,R11*%
X142130000Y-156760000D03*
X144130000Y-156760000D03*
%TD*%
D12*
%TO.C,C65*%
X140962500Y-124800000D03*
X143037500Y-124800000D03*
%TD*%
D19*
%TO.C,C29*%
X113450000Y-141812500D03*
X113450000Y-143887500D03*
%TD*%
D14*
%TO.C,C64*%
X151380000Y-137567500D03*
X151380000Y-135492500D03*
%TD*%
%TO.C,C17*%
X150510000Y-156897500D03*
X150510000Y-154822500D03*
%TD*%
D16*
%TO.C,R24*%
X104240000Y-119150000D03*
X104240000Y-122250000D03*
%TD*%
D28*
%TO.C,C3*%
X177870000Y-102225000D03*
X177870000Y-95275000D03*
%TD*%
D23*
%TO.C,R73*%
X156081250Y-129212500D03*
X156081250Y-127212500D03*
%TD*%
D10*
%TO.C,R85*%
X119350000Y-96940000D03*
X119350000Y-98940000D03*
%TD*%
D12*
%TO.C,C50*%
X149252500Y-107670000D03*
X151327500Y-107670000D03*
%TD*%
D17*
%TO.C,R56*%
X73950000Y-151362500D03*
X77050000Y-151362500D03*
%TD*%
D16*
%TO.C,R25*%
X104240000Y-125650000D03*
X104240000Y-128750000D03*
%TD*%
D19*
%TO.C,C40*%
X120862500Y-144062500D03*
X120862500Y-146137500D03*
%TD*%
D10*
%TO.C,R87*%
X123170000Y-96940000D03*
X123170000Y-98940000D03*
%TD*%
D11*
%TO.C,FB2*%
X133587500Y-142150000D03*
X136912500Y-142150000D03*
%TD*%
D14*
%TO.C,C18*%
X152470000Y-156897500D03*
X152470000Y-154822500D03*
%TD*%
D29*
%TO.C,C27*%
X92982500Y-151900000D03*
X90907500Y-151900000D03*
%TD*%
D30*
%TO.C,U10*%
X94245000Y-149737500D03*
X96145000Y-149737500D03*
X95195000Y-147862500D03*
%TD*%
D14*
%TO.C,C15*%
X157095000Y-145957500D03*
X157095000Y-143882500D03*
%TD*%
D23*
%TO.C,R3*%
X176370000Y-141060000D03*
X176370000Y-139060000D03*
%TD*%
D10*
%TO.C,R59*%
X130700000Y-95200000D03*
X130700000Y-97200000D03*
%TD*%
D24*
%TO.C,R13*%
X72400000Y-147837500D03*
X70400000Y-147837500D03*
%TD*%
D16*
%TO.C,R47*%
X76840000Y-112750000D03*
X76840000Y-115850000D03*
%TD*%
D10*
%TO.C,R69*%
X118650000Y-105050000D03*
X118650000Y-107050000D03*
%TD*%
D29*
%TO.C,C41*%
X120950000Y-128200000D03*
X118875000Y-128200000D03*
%TD*%
D16*
%TO.C,R22*%
X104240000Y-106150000D03*
X104240000Y-109250000D03*
%TD*%
D31*
%TO.C,D5*%
X65150000Y-138450000D03*
X65150000Y-143250000D03*
%TD*%
%TO.C,D7*%
X129450000Y-84000000D03*
X129450000Y-88800000D03*
%TD*%
D32*
%TO.C,D6*%
X68240000Y-138350000D03*
X68240000Y-141850000D03*
%TD*%
D14*
%TO.C,C44*%
X132650000Y-107297500D03*
X132650000Y-105222500D03*
%TD*%
D10*
%TO.C,R28*%
X100690000Y-141600000D03*
X100690000Y-143600000D03*
%TD*%
D29*
%TO.C,C20*%
X68587500Y-147837500D03*
X66512500Y-147837500D03*
%TD*%
D16*
%TO.C,R44*%
X79640000Y-125750000D03*
X79640000Y-128850000D03*
%TD*%
D12*
%TO.C,C30*%
X133562500Y-148450000D03*
X135637500Y-148450000D03*
%TD*%
D33*
%TO.C,C42*%
X123510000Y-113955000D03*
X123510000Y-116905000D03*
%TD*%
D34*
%TO.C,U7*%
X74040000Y-135962500D03*
X73090000Y-135962500D03*
X72140000Y-135962500D03*
X72140000Y-138237500D03*
X73090000Y-138237500D03*
X74040000Y-138237500D03*
%TD*%
D12*
%TO.C,C13*%
X161232500Y-159070000D03*
X163307500Y-159070000D03*
%TD*%
D19*
%TO.C,C23*%
X97240000Y-110262500D03*
X97240000Y-112337500D03*
%TD*%
D16*
%TO.C,R50*%
X79640000Y-132350000D03*
X79640000Y-135450000D03*
%TD*%
D29*
%TO.C,C28*%
X99432500Y-151900000D03*
X97357500Y-151900000D03*
%TD*%
D23*
%TO.C,R75*%
X150531250Y-125227500D03*
X150531250Y-123227500D03*
%TD*%
D16*
%TO.C,R53*%
X68240000Y-112350000D03*
X68240000Y-115450000D03*
%TD*%
D14*
%TO.C,C5*%
X186320000Y-87867500D03*
X186320000Y-85792500D03*
%TD*%
D20*
%TO.C,Q3*%
X156288750Y-125345000D03*
X156288750Y-123445000D03*
X154413750Y-124395000D03*
%TD*%
D16*
%TO.C,R34*%
X90640000Y-106350000D03*
X90640000Y-109450000D03*
%TD*%
%TO.C,R21*%
X107040000Y-125650000D03*
X107040000Y-128750000D03*
%TD*%
D24*
%TO.C,R66*%
X131700000Y-149650000D03*
X129700000Y-149650000D03*
%TD*%
D12*
%TO.C,C33*%
X133562500Y-144450000D03*
X135637500Y-144450000D03*
%TD*%
D28*
%TO.C,C1*%
X193920000Y-93555000D03*
X193920000Y-86605000D03*
%TD*%
D14*
%TO.C,C62*%
X157260000Y-137567500D03*
X157260000Y-135492500D03*
%TD*%
D16*
%TO.C,R54*%
X68240000Y-122350000D03*
X68240000Y-125450000D03*
%TD*%
%TO.C,R32*%
X93440000Y-119350000D03*
X93440000Y-122450000D03*
%TD*%
D19*
%TO.C,C9*%
X147875000Y-145342500D03*
X147875000Y-147417500D03*
%TD*%
D16*
%TO.C,R46*%
X76840000Y-106150000D03*
X76840000Y-109250000D03*
%TD*%
D19*
%TO.C,C21*%
X110840000Y-109862500D03*
X110840000Y-111937500D03*
%TD*%
D35*
%TO.C,X1*%
X130550000Y-120850000D03*
X130550000Y-122550000D03*
X131850000Y-122550000D03*
X131850000Y-120850000D03*
%TD*%
D36*
%TO.C,L1*%
X186170000Y-94405000D03*
X186170000Y-90255000D03*
%TD*%
D15*
%TO.C,D12*%
X153151250Y-127145000D03*
X153151250Y-130120000D03*
%TD*%
D28*
%TO.C,C12*%
X163910000Y-147535000D03*
X163910000Y-140585000D03*
%TD*%
D12*
%TO.C,C31*%
X133562500Y-146450000D03*
X135637500Y-146450000D03*
%TD*%
D19*
%TO.C,C25*%
X83440000Y-110062500D03*
X83440000Y-112137500D03*
%TD*%
D37*
%TO.C,U4*%
X155510000Y-157230000D03*
X156810000Y-157230000D03*
X155510000Y-155930000D03*
X156810000Y-155930000D03*
D38*
X155160000Y-158505000D03*
X155660000Y-158505000D03*
X156160000Y-158505000D03*
X156660000Y-158505000D03*
X157160000Y-158505000D03*
D39*
X158085000Y-157580000D03*
X158085000Y-157080000D03*
X158085000Y-156580000D03*
X158085000Y-156080000D03*
X158085000Y-155580000D03*
D38*
X157160000Y-154655000D03*
X156660000Y-154655000D03*
X156160000Y-154655000D03*
X155660000Y-154655000D03*
X155160000Y-154655000D03*
D39*
X154235000Y-155580000D03*
X154235000Y-156080000D03*
X154235000Y-156580000D03*
X154235000Y-157080000D03*
X154235000Y-157580000D03*
%TD*%
D16*
%TO.C,R37*%
X90640000Y-125750000D03*
X90640000Y-128850000D03*
%TD*%
D14*
%TO.C,C37*%
X111250000Y-143887500D03*
X111250000Y-141812500D03*
%TD*%
D23*
%TO.C,R67*%
X126150000Y-122800000D03*
X126150000Y-120800000D03*
%TD*%
D19*
%TO.C,C24*%
X97240000Y-123012500D03*
X97240000Y-125087500D03*
%TD*%
D40*
%TO.C,F1*%
X192937500Y-155767500D03*
X192937500Y-152792500D03*
%TD*%
D12*
%TO.C,C48*%
X149252500Y-113560000D03*
X151327500Y-113560000D03*
%TD*%
D41*
%TO.C,C59*%
X142035000Y-115350000D03*
X144985000Y-115350000D03*
%TD*%
D25*
%TO.C,U8*%
X79350000Y-151500000D03*
X80300000Y-151500000D03*
X81250000Y-151500000D03*
X81250000Y-149225000D03*
X80300000Y-149225000D03*
X79350000Y-149225000D03*
%TD*%
D10*
%TO.C,R70*%
X120610000Y-105050000D03*
X120610000Y-107050000D03*
%TD*%
D16*
%TO.C,R18*%
X107040000Y-106150000D03*
X107040000Y-109250000D03*
%TD*%
D19*
%TO.C,C36*%
X123700000Y-120825000D03*
X123700000Y-122900000D03*
%TD*%
D13*
%TO.C,R2*%
X201487500Y-89280000D03*
X203487500Y-89280000D03*
%TD*%
D14*
%TO.C,C45*%
X134610000Y-107297500D03*
X134610000Y-105222500D03*
%TD*%
D10*
%TO.C,R61*%
X98395000Y-147800000D03*
X98395000Y-149800000D03*
%TD*%
D19*
%TO.C,C32*%
X115420000Y-141812500D03*
X115420000Y-143887500D03*
%TD*%
D12*
%TO.C,C66*%
X140957500Y-122840000D03*
X143032500Y-122840000D03*
%TD*%
D24*
%TO.C,R64*%
X135650000Y-150500000D03*
X133650000Y-150500000D03*
%TD*%
D19*
%TO.C,C22*%
X110840000Y-123062500D03*
X110840000Y-125137500D03*
%TD*%
D16*
%TO.C,R42*%
X79640000Y-112750000D03*
X79640000Y-115850000D03*
%TD*%
D23*
%TO.C,R16*%
X64500000Y-151500000D03*
X64500000Y-149500000D03*
%TD*%
D42*
%TO.C,C11*%
X168820000Y-152015000D03*
X168820000Y-158965000D03*
%TD*%
D23*
%TO.C,R76*%
X152461250Y-125232500D03*
X152461250Y-123232500D03*
%TD*%
D12*
%TO.C,C56*%
X142072500Y-105380000D03*
X144147500Y-105380000D03*
%TD*%
D19*
%TO.C,C8*%
X149835000Y-145342500D03*
X149835000Y-147417500D03*
%TD*%
D12*
%TO.C,C57*%
X142072500Y-107340000D03*
X144147500Y-107340000D03*
%TD*%
D16*
%TO.C,R52*%
X68240000Y-106150000D03*
X68240000Y-109250000D03*
%TD*%
D43*
%TO.C,U12*%
X131737500Y-153700000D03*
X131737500Y-152750000D03*
X131737500Y-151800000D03*
X129462500Y-151800000D03*
X129462500Y-153700000D03*
%TD*%
D13*
%TO.C,R10*%
X138330000Y-156760000D03*
X140330000Y-156760000D03*
%TD*%
D16*
%TO.C,R38*%
X90640000Y-132350000D03*
X90640000Y-135450000D03*
%TD*%
D14*
%TO.C,C43*%
X136570000Y-107307500D03*
X136570000Y-105232500D03*
%TD*%
D34*
%TO.C,U6*%
X100740000Y-136062500D03*
X99790000Y-136062500D03*
X98840000Y-136062500D03*
X98840000Y-138337500D03*
X99790000Y-138337500D03*
X100740000Y-138337500D03*
%TD*%
D44*
%TO.C,U11*%
X118912500Y-142075000D03*
X119412500Y-142075000D03*
X119912500Y-142075000D03*
X120412500Y-142075000D03*
X120912500Y-142075000D03*
X121412500Y-142075000D03*
X121912500Y-142075000D03*
X122412500Y-142075000D03*
X122912500Y-142075000D03*
X123412500Y-142075000D03*
X123912500Y-142075000D03*
X124412500Y-142075000D03*
X124912500Y-142075000D03*
X125412500Y-142075000D03*
X125912500Y-142075000D03*
X126412500Y-142075000D03*
D45*
X128337500Y-140150000D03*
X128337500Y-139650000D03*
X128337500Y-139150000D03*
X128337500Y-138650000D03*
X128337500Y-138150000D03*
X128337500Y-137650000D03*
X128337500Y-137150000D03*
X128337500Y-136650000D03*
X128337500Y-136150000D03*
X128337500Y-135650000D03*
X128337500Y-135150000D03*
X128337500Y-134650000D03*
X128337500Y-134150000D03*
X128337500Y-133650000D03*
X128337500Y-133150000D03*
X128337500Y-132650000D03*
D44*
X126412500Y-130725000D03*
X125912500Y-130725000D03*
X125412500Y-130725000D03*
X124912500Y-130725000D03*
X124412500Y-130725000D03*
X123912500Y-130725000D03*
X123412500Y-130725000D03*
X122912500Y-130725000D03*
X122412500Y-130725000D03*
X121912500Y-130725000D03*
X121412500Y-130725000D03*
X120912500Y-130725000D03*
X120412500Y-130725000D03*
X119912500Y-130725000D03*
X119412500Y-130725000D03*
X118912500Y-130725000D03*
D45*
X116987500Y-132650000D03*
X116987500Y-133150000D03*
X116987500Y-133650000D03*
X116987500Y-134150000D03*
X116987500Y-134650000D03*
X116987500Y-135150000D03*
X116987500Y-135650000D03*
X116987500Y-136150000D03*
X116987500Y-136650000D03*
X116987500Y-137150000D03*
X116987500Y-137650000D03*
X116987500Y-138150000D03*
X116987500Y-138650000D03*
X116987500Y-139150000D03*
X116987500Y-139650000D03*
X116987500Y-140150000D03*
%TD*%
D16*
%TO.C,R20*%
X107040000Y-119150000D03*
X107040000Y-122250000D03*
%TD*%
D46*
%TO.C,D2*%
X181267500Y-144240000D03*
X178292500Y-144240000D03*
%TD*%
D10*
%TO.C,R40*%
X74090000Y-141300000D03*
X74090000Y-143300000D03*
%TD*%
D16*
%TO.C,R27*%
X104240000Y-138650000D03*
X104240000Y-141750000D03*
%TD*%
D12*
%TO.C,C58*%
X142070000Y-109300000D03*
X144145000Y-109300000D03*
%TD*%
D15*
%TO.C,D11*%
X150771250Y-127137500D03*
X150771250Y-130112500D03*
%TD*%
D10*
%TO.C,R45*%
X72090000Y-141300000D03*
X72090000Y-143300000D03*
%TD*%
D19*
%TO.C,C47*%
X125650000Y-114812500D03*
X125650000Y-116887500D03*
%TD*%
D36*
%TO.C,L2*%
X171980000Y-141065000D03*
X171980000Y-145215000D03*
%TD*%
D16*
%TO.C,R33*%
X93440000Y-125750000D03*
X93440000Y-128850000D03*
%TD*%
D28*
%TO.C,C2*%
X168290000Y-102225000D03*
X168290000Y-95275000D03*
%TD*%
D13*
%TO.C,R8*%
X142130000Y-154800000D03*
X144130000Y-154800000D03*
%TD*%
D47*
%TO.C,R1*%
X204670000Y-94530000D03*
X204670000Y-91430000D03*
%TD*%
D37*
%TO.C,U3*%
X152865000Y-146290000D03*
X154165000Y-146290000D03*
X152865000Y-144990000D03*
X154165000Y-144990000D03*
D38*
X152515000Y-147565000D03*
X153015000Y-147565000D03*
X153515000Y-147565000D03*
X154015000Y-147565000D03*
X154515000Y-147565000D03*
D39*
X155440000Y-146640000D03*
X155440000Y-146140000D03*
X155440000Y-145640000D03*
X155440000Y-145140000D03*
X155440000Y-144640000D03*
D38*
X154515000Y-143715000D03*
X154015000Y-143715000D03*
X153515000Y-143715000D03*
X153015000Y-143715000D03*
X152515000Y-143715000D03*
D39*
X151590000Y-144640000D03*
X151590000Y-145140000D03*
X151590000Y-145640000D03*
X151590000Y-146140000D03*
X151590000Y-146640000D03*
%TD*%
D23*
%TO.C,R15*%
X144020000Y-160730000D03*
X144020000Y-158730000D03*
%TD*%
%TO.C,R74*%
X148581250Y-125227500D03*
X148581250Y-123227500D03*
%TD*%
D16*
%TO.C,R26*%
X104240000Y-132150000D03*
X104240000Y-135250000D03*
%TD*%
%TO.C,R23*%
X104240000Y-112650000D03*
X104240000Y-115750000D03*
%TD*%
D40*
%TO.C,D4*%
X139950000Y-154665000D03*
X139950000Y-151690000D03*
%TD*%
D13*
%TO.C,R12*%
X153830000Y-151060000D03*
X155830000Y-151060000D03*
%TD*%
D48*
%TO.C,U13*%
X130650000Y-114720000D03*
X130650000Y-114220000D03*
X130650000Y-113720000D03*
X130650000Y-113220000D03*
X130650000Y-112720000D03*
X130650000Y-112220000D03*
X130650000Y-111720000D03*
X130650000Y-111220000D03*
X130650000Y-110720000D03*
X131150000Y-114720000D03*
X131150000Y-114220000D03*
X131150000Y-113720000D03*
X131150000Y-113220000D03*
X131150000Y-112720000D03*
X131150000Y-112220000D03*
X131150000Y-111720000D03*
X131150000Y-111220000D03*
X131150000Y-110720000D03*
X131650000Y-114720000D03*
X131650000Y-114220000D03*
X131650000Y-113720000D03*
X131650000Y-113220000D03*
X131650000Y-112720000D03*
X131650000Y-112220000D03*
X131650000Y-111720000D03*
X131650000Y-111220000D03*
X131650000Y-110720000D03*
X132150000Y-114720000D03*
X132150000Y-114220000D03*
X132150000Y-113720000D03*
X132150000Y-113220000D03*
X132150000Y-112720000D03*
X132150000Y-112220000D03*
X132150000Y-111720000D03*
X132150000Y-111220000D03*
X132150000Y-110720000D03*
X132650000Y-114720000D03*
X132650000Y-114220000D03*
X132650000Y-113720000D03*
X132650000Y-113220000D03*
X132650000Y-112720000D03*
X132650000Y-112220000D03*
X132650000Y-111720000D03*
X132650000Y-111220000D03*
X132650000Y-110720000D03*
X133150000Y-114720000D03*
X133150000Y-114220000D03*
X133150000Y-113720000D03*
X133150000Y-113220000D03*
X133150000Y-112720000D03*
X133150000Y-112220000D03*
X133150000Y-111720000D03*
X133150000Y-111220000D03*
X133150000Y-110720000D03*
X133650000Y-114720000D03*
X133650000Y-114220000D03*
X133650000Y-113720000D03*
X133650000Y-113220000D03*
X133650000Y-112720000D03*
X133650000Y-112220000D03*
X133650000Y-111720000D03*
X133650000Y-111220000D03*
X133650000Y-110720000D03*
X134150000Y-114720000D03*
X134150000Y-114220000D03*
X134150000Y-113720000D03*
X134150000Y-113220000D03*
X134150000Y-112720000D03*
X134150000Y-112220000D03*
X134150000Y-111720000D03*
X134150000Y-111220000D03*
X134150000Y-110720000D03*
X134650000Y-114720000D03*
X134650000Y-114220000D03*
X134650000Y-113720000D03*
X134650000Y-113220000D03*
X134650000Y-112720000D03*
X134650000Y-112220000D03*
X134650000Y-111720000D03*
X134650000Y-111220000D03*
X134650000Y-110720000D03*
%TD*%
D16*
%TO.C,R43*%
X79640000Y-119350000D03*
X79640000Y-122450000D03*
%TD*%
D24*
%TO.C,R14*%
X155830000Y-152960000D03*
X153830000Y-152960000D03*
%TD*%
D16*
%TO.C,R51*%
X79640000Y-138750000D03*
X79640000Y-141850000D03*
%TD*%
D19*
%TO.C,C34*%
X121700000Y-120825000D03*
X121700000Y-122900000D03*
%TD*%
%TO.C,C26*%
X83440000Y-123062500D03*
X83440000Y-125137500D03*
%TD*%
D49*
%TO.C,D9*%
X95000000Y-152300000D03*
D50*
X95885000Y-152300000D03*
%TD*%
D42*
%TO.C,C10*%
X177770000Y-152015000D03*
X177770000Y-158965000D03*
%TD*%
D12*
%TO.C,C14*%
X161230000Y-161060000D03*
X163305000Y-161060000D03*
%TD*%
D16*
%TO.C,R35*%
X90640000Y-112750000D03*
X90640000Y-115850000D03*
%TD*%
D43*
%TO.C,U5*%
X68887500Y-151600000D03*
X68887500Y-150650000D03*
X68887500Y-149700000D03*
X66612500Y-149700000D03*
X66612500Y-151600000D03*
%TD*%
D16*
%TO.C,R55*%
X68240000Y-128350000D03*
X68240000Y-131450000D03*
%TD*%
D49*
%TO.C,D3*%
X162065000Y-157340000D03*
D50*
X162950000Y-157340000D03*
%TD*%
D24*
%TO.C,R4*%
X153435000Y-141680000D03*
X151435000Y-141680000D03*
%TD*%
D14*
%TO.C,C61*%
X155300000Y-137565000D03*
X155300000Y-135490000D03*
%TD*%
D10*
%TO.C,R72*%
X146505000Y-117960000D03*
X146505000Y-119960000D03*
%TD*%
D14*
%TO.C,C19*%
X159900000Y-156887500D03*
X159900000Y-154812500D03*
%TD*%
D23*
%TO.C,R63*%
X91945000Y-149800000D03*
X91945000Y-147800000D03*
%TD*%
D12*
%TO.C,C54*%
X142070000Y-111260000D03*
X144145000Y-111260000D03*
%TD*%
D10*
%TO.C,R86*%
X117450000Y-96940000D03*
X117450000Y-98940000D03*
%TD*%
D16*
%TO.C,R36*%
X90640000Y-119350000D03*
X90640000Y-122450000D03*
%TD*%
D14*
%TO.C,C60*%
X153340000Y-137567500D03*
X153340000Y-135492500D03*
%TD*%
D30*
%TO.C,Q2*%
X128500000Y-92937500D03*
X130400000Y-92937500D03*
X129450000Y-91062500D03*
%TD*%
D27*
%TO.C,R62*%
X114050000Y-151300000D03*
X110950000Y-151300000D03*
%TD*%
D51*
%TO.C,U14*%
X117245000Y-116600000D03*
X118515000Y-116600000D03*
X119785000Y-116600000D03*
X121055000Y-116600000D03*
X121055000Y-109400000D03*
X119785000Y-109400000D03*
X118515000Y-109400000D03*
X117245000Y-109400000D03*
%TD*%
D14*
%TO.C,C16*%
X148550000Y-156897500D03*
X148550000Y-154822500D03*
%TD*%
D16*
%TO.C,R49*%
X76840000Y-125750000D03*
X76840000Y-128850000D03*
%TD*%
D52*
%TO.C,J14*%
X178040000Y-88730000D03*
X177540000Y-88730000D03*
X177040000Y-88730000D03*
X176540000Y-88730000D03*
X176040000Y-88730000D03*
X175540000Y-88730000D03*
X175040000Y-88730000D03*
X174540000Y-88730000D03*
X174040000Y-88730000D03*
X173540000Y-88730000D03*
X173040000Y-88730000D03*
X172540000Y-88730000D03*
X172040000Y-88730000D03*
X171540000Y-88730000D03*
X171040000Y-88730000D03*
X170540000Y-88730000D03*
X170040000Y-88730000D03*
X169540000Y-88730000D03*
X169040000Y-88730000D03*
X168540000Y-88730000D03*
D53*
X180315000Y-86830000D03*
X166265000Y-86830000D03*
%TD*%
D12*
%TO.C,C52*%
X149252500Y-111600000D03*
X151327500Y-111600000D03*
%TD*%
M02*
